<svg xmlns="http://www.w3.org/2000/svg" viewBox="0 0 500 500"><g id="freepik--background-simple--inject-29"><path d="M335.81,76.3c-36-5.55-73.15.5-100.91,23-27,21.89-39.25,58.53-67.41,78.88C124,209.67,62.23,199.21,37,255.74,28,275.92,25.68,298.47,26,320.56c.37,27.67,4.88,55.67,16.83,80.62s31.85,46.72,57.31,57.54c37.58,16,81.13,6.43,118.85-9.18,15.56-6.43,31.18-14,48-14.86,21.18-1.11,41.23,8.44,61.35,15.15,24.14,8.07,50.88,12.13,74.85,3.55,18.76-6.71,34.18-20.62,46.55-36.24a186.32,186.32,0,0,0,39.15-97.32C498.48,219.18,446.55,93.35,335.81,76.3Z" style="fill:#82C518"></path><path d="M335.81,76.3c-36-5.55-73.15.5-100.91,23-27,21.89-39.25,58.53-67.41,78.88C124,209.67,62.23,199.21,37,255.74,28,275.92,25.68,298.47,26,320.56c.37,27.67,4.88,55.67,16.83,80.62s31.85,46.72,57.31,57.54c37.58,16,81.13,6.43,118.85-9.18,15.56-6.43,31.18-14,48-14.86,21.18-1.11,41.23,8.44,61.35,15.15,24.14,8.07,50.88,12.13,74.85,3.55,18.76-6.71,34.18-20.62,46.55-36.24a186.32,186.32,0,0,0,39.15-97.32C498.48,219.18,446.55,93.35,335.81,76.3Z" style="fill:#fff;opacity:0.7000000000000001"></path></g><g id="freepik--Plants--inject-29"><path d="M284.05,234.34c-5.66,2.08-19.13,1-19.14,1s3.43-8.66,3.72-9.18c3.33-6,13.31-15.67,20.86-14.18,5.45,1.07,8.17,6.75,6.62,11.84S288.87,232.57,284.05,234.34Z" style="fill:#82C518"></path><path d="M110.11,177.77c7.69-.36,16.14,10.66,18.56,17.09.2.56,2.47,9.64,2.33,9.63l-.17,0c1.35,1.73,2.78,3.6,4.29,5.68,2.77,3.85,5.86,8.23,8.9,13.22a159.94,159.94,0,0,1,9.06,16.57,118.5,118.5,0,0,1,7.4,19.78l.06.25c.09-2.25.57-8.54.66-9,1.3-6.75,7.76-19,15.4-20,5.51-.68,9.86,3.86,10,9.18s-4.13,10.61-8.16,13.8c-4.54,3.59-16.74,6.59-17.71,6.83a161.1,161.1,0,0,1,3.8,21.18c.49,4.16.85,8.36,1.15,12.58.15-2,.29-3.69.34-3.93,1.29-6.75,7.76-19,15.4-20,5.51-.68,9.86,3.87,10,9.19s-4.13,10.6-8.15,13.79-14.43,6-17.18,6.7c.1,1.62.22,3.23.31,4.85.46,7.77.88,15.53,1.53,23.12.23,2.67.55,5.3.86,7.93.13-1.73.26-3.18.3-3.4,1.29-6.75,7.76-19,15.4-20,5.5-.68,9.86,3.86,10,9.18s-4.13,10.61-8.16,13.8-13.42,5.73-16.68,6.57c.4,2.68.8,5.37,1.31,7.95.38,1.76.64,3.47,1.12,5.22s.89,3.45,1.33,5.15c1,3.24,1.94,6.59,2.95,9.73.7,2.19,1.4,4.26,2.1,6.35-.26-2.66-.65-7.88-.64-8.32a35.47,35.47,0,0,1,5.77-16.89,11.28,11.28,0,0,1,.25-2c1.16-5.2,6.32-8.8,11.59-7.05,7.31,2.43,11.23,15.75,11.17,22.62,0,.41-.54,4.8-.92,7.57.48-1.59.91-3.14,1.42-4.78,1-3.24,2-6.44,3.18-9.89l1.85-5c.58-1.68,1.4-3.37,2.11-5.08,1.71-3.93,3.63-7.83,5.66-11.71-2.84-.86-12.85-4.07-16.75-7.45s-7.88-8.73-7.52-14.15,4.92-9.65,10.39-8.72c7.59,1.29,13.49,13.86,14.47,20.66.06.43.21,5.39.25,8.12,1.23-2.33,2.45-4.65,3.78-7,3.83-6.68,7.91-13.31,12-19.95,1.24-2,2.45-4.07,3.67-6.1-1-.3-13-3.85-17.36-7.64-3.88-3.37-7.89-8.73-7.52-14.15s4.91-9.65,10.38-8.72c7.59,1.29,13.49,13.86,14.47,20.66.08.52.29,7.66.25,9.47,2.69-4.48,5.32-9,7.74-13.52a159.5,159.5,0,0,0,8.67-18.92c-.47-.14-13-3.79-17.47-7.67-3.88-3.36-7.88-8.73-7.52-14.15s4.92-9.65,10.39-8.72c7.59,1.29,13.48,13.86,14.47,20.67.07.53.3,8.21.24,9.61.14-.38.33-.75.47-1.13a117.82,117.82,0,0,0,5.12-20.22c.66-3.79,1.07-7.45,1.4-11-2.4-.44-13.36-2.58-17.77-5.63-4.23-2.92-8.8-7.81-9-13.24s3.83-10.13,9.36-9.81c7.69.45,14.93,12.3,16.65,19,.1.36.64,4.14,1,6.91.12-1.62.28-3.28.37-4.83.34-5.81.29-11.15.21-15.89-.07-2.69-.18-5.12-.31-7.39-2.13-1.67-10.64-8.48-13.11-13.12s-4.2-11-1.91-15.92,8.07-7.22,12.83-4.39c6.62,4,7.59,17.8,6.05,24.5-.14.58-3.25,9.39-3.37,9.31l-.13-.1c.17,2.18.33,4.53.45,7.1.18,4.74.35,10.09.13,15.93a162.76,162.76,0,0,1-1.58,18.82,118.94,118.94,0,0,1-4.75,20.59,1.57,1.57,0,0,1-.09.23c1.32-1.82,5.2-6.81,5.54-7.16,4.8-4.91,17-11.6,23.86-8.17,5,2.48,6.1,8.67,3.25,13.17s-9.29,6.57-14.41,7c-5.77.49-17.6-3.73-18.54-4.07A161.43,161.43,0,0,1,250,288.83c-1.88,3.73-3.9,7.43-6,11.12,1.19-1.54,2.28-2.91,2.45-3.09,4.8-4.92,17-11.6,23.86-8.17,5,2.47,6.09,8.66,3.26,13.17s-9.3,6.57-14.42,7-15.35-2.95-18-3.89c-.81,1.41-1.6,2.82-2.42,4.23-3.9,6.73-7.83,13.43-11.48,20.12-1.28,2.35-2.46,4.72-3.66,7.09,1.07-1.37,2-2.51,2.13-2.68,4.8-4.91,17-11.6,23.87-8.17,5,2.48,6.09,8.67,3.25,13.17s-9.3,6.57-14.41,7c-5,.42-14.36-2.63-17.55-3.72-1.14,2.46-2.29,4.92-3.29,7.35-.65,1.68-1.39,3.25-1.94,5s-1.16,3.37-1.73,5c-1,3.24-2,6.57-2.91,9.75-.63,2.21-1.19,4.33-1.76,6.46,1.25-2.37,3.81-6.94,4.06-7.29,4-5.59,15-14,22.36-11.7,5.28,1.7,7.33,7.64,5.2,12.52s-8.19,7.91-13.18,9.11c-5.5,1.32-17.36-.9-18.84-1.19-.93,3.53-1.8,7-2.57,10.22-.17.7-.31,1.33-.47,2H201c.26-1,.52-2.06.8-3.12.93-3.59,2-7.4,3.13-11.3a102.05,102.05,0,0,1-10.21-5.58c-4.19,4-14.57,8.4-15.91,9,1.17,3.45,2.34,6.8,3.49,9.94l.41,1.1H177.9c-1.16-3.39-2.32-7-3.48-10.73-1.47.21-13.44,1.9-18.88.33-4.93-1.43-10.82-4.63-12.76-9.71s.43-10.82,5.78-12.26c7.43-2,18.05,6.93,21.8,12.7.22.34,2.2,4.3,3.41,6.82-.49-1.59-1-3.13-1.46-4.77-1-3.24-1.84-6.5-2.79-10-.41-1.71-.81-3.44-1.22-5.18s-.69-3.59-1.05-5.41c-.74-4.22-1.28-8.53-1.74-12.88-2.83.84-13,3.69-18.07,3s-11.39-2.93-14.08-7.66-1.22-10.76,3.85-13c7-3.11,18.9,4.12,23.47,9.26.29.32,3.15,4.37,4.68,6.63-.25-2.62-.51-5.24-.68-7.9-.49-7.67-.74-15.46-1-23.23-.08-2.38-.2-4.75-.3-7.12-1,.31-13,4-18.7,3.21-5.09-.66-11.39-2.93-14.08-7.66s-1.22-10.76,3.85-13c7.05-3.11,18.9,4.12,23.47,9.26.35.39,4.46,6.22,5.44,7.76-.24-5.23-.52-10.43-1-15.55a158.63,158.63,0,0,0-3.21-20.56c-.46.15-12.93,4-18.8,3.24-5.09-.67-11.39-2.93-14.07-7.66s-1.23-10.76,3.85-13c7-3.11,18.89,4.12,23.47,9.26.35.4,4.78,6.68,5.5,7.88-.09-.39-.14-.81-.24-1.2a116.64,116.64,0,0,0-6.88-19.69c-1.54-3.52-3.21-6.81-4.91-10-2.25,1-12.57,5.23-17.92,5.12-5.14-.11-11.65-1.67-14.84-6.07s-2.39-10.56,2.4-13.34c6.66-3.87,19.24,2,24.35,6.62.27.25,2.82,3.11,4.64,5.21-.79-1.41-1.58-2.88-2.36-4.22-2.92-5-5.91-9.47-8.58-13.37-1.54-2.21-3-4.17-4.35-6-2.69-.21-13.54-1.2-18.17-3.71s-9.56-6.85-10.37-12.22S104.57,178,110.11,177.77Z" style="fill:#82C518"></path><path d="M147.43,229.08c-.12.07-1.91-9.11-2-9.7-.54-6.86,2.46-20.42,9.58-23.34,5.13-2.11,10.53,1.12,12,6.22s-1.18,11.33-4.22,15.46C159.29,222.58,147.44,229.07,147.43,229.08Z" style="fill:#82C518"></path></g><g id="freepik--banknotes-2--inject-29"><path d="M143.17,372.52s-30.32-.38-37.41-11.72H26.56S33,372.42,43,372.52Z" style="fill:#fff;stroke:#263238;stroke-miterlimit:10"></path><path d="M103.46,364.54H38.94s1.2,2.62-2.09,4.06a14.06,14.06,0,0,0,7.47,3.58h82.14s-10.46-1-16.13-4.3C110.33,367.88,103.76,368.84,103.46,364.54Z" style="fill:#fff;stroke:#263238;stroke-miterlimit:10"></path><rect x="131.21" y="440.66" width="182.02" height="22.52" transform="translate(444.44 903.83) rotate(180)" style="fill:#263238;stroke:#263238;stroke-miterlimit:10"></rect><rect x="31.03" y="440.66" width="182.02" height="22.52" transform="translate(244.09 903.83) rotate(180)" style="fill:#fff;stroke:#263238;stroke-miterlimit:10"></rect><line x1="211.8" y1="446.66" x2="167.35" y2="446.66" style="fill:#fff;stroke:#263238;stroke-miterlimit:10"></line><line x1="203.03" y1="451.67" x2="138.55" y2="451.67" style="fill:#fff;stroke:#263238;stroke-miterlimit:10"></line><line x1="177.36" y1="456.17" x2="188.63" y2="456.17" style="fill:#fff;stroke:#263238;stroke-miterlimit:10"></line><line x1="193.02" y1="456.17" x2="211.17" y2="456.17" style="fill:#fff;stroke:#263238;stroke-miterlimit:10"></line><line x1="32.11" y1="455.17" x2="89.08" y2="455.17" style="fill:#fff;stroke:#263238;stroke-miterlimit:10"></line><line x1="37.12" y1="452.17" x2="44.63" y2="452.17" style="fill:#fff;stroke:#263238;stroke-miterlimit:10"></line><line x1="79.69" y1="451.67" x2="54.65" y2="451.67" style="fill:#fff;stroke:#263238;stroke-miterlimit:10"></line><line x1="32.11" y1="445.66" x2="54.02" y2="445.66" style="fill:#fff;stroke:#263238;stroke-miterlimit:10"></line><line x1="310.72" y1="450.16" x2="299.45" y2="450.16" style="fill:none;stroke:#8a8a8a;stroke-miterlimit:10"></line><line x1="313.23" y1="455.17" x2="278.17" y2="455.17" style="fill:none;stroke:#8a8a8a;stroke-miterlimit:10"></line><line x1="214.93" y1="458.17" x2="231.84" y2="458.17" style="fill:none;stroke:#8a8a8a;stroke-miterlimit:10"></line><line x1="213.05" y1="450.16" x2="258.76" y2="450.16" style="fill:none;stroke:#8a8a8a;stroke-miterlimit:10"></line><line x1="298.2" y1="443.66" x2="271.91" y2="443.66" style="fill:none;stroke:#8a8a8a;stroke-miterlimit:10"></line><rect x="114.13" y="440.66" width="21.29" height="22.02" transform="translate(249.54 903.33) rotate(180)" style="fill:#fff;stroke:#263238;stroke-miterlimit:10"></rect><rect x="128.88" y="417.94" width="182.02" height="22.52" transform="translate(439.77 858.41) rotate(180)" style="fill:#263238;stroke:#263238;stroke-miterlimit:10"></rect><rect x="28.7" y="417.94" width="182.02" height="22.52" transform="translate(239.42 858.41) rotate(180)" style="fill:#fff;stroke:#263238;stroke-miterlimit:10"></rect><line x1="209.46" y1="423.95" x2="165.01" y2="423.95" style="fill:#fff;stroke:#263238;stroke-miterlimit:10"></line><line x1="200.7" y1="428.95" x2="136.21" y2="428.95" style="fill:#fff;stroke:#263238;stroke-miterlimit:10"></line><line x1="175.03" y1="433.46" x2="186.3" y2="433.46" style="fill:#fff;stroke:#263238;stroke-miterlimit:10"></line><line x1="190.68" y1="433.46" x2="208.84" y2="433.46" style="fill:#fff;stroke:#263238;stroke-miterlimit:10"></line><line x1="29.77" y1="432.46" x2="86.75" y2="432.46" style="fill:#fff;stroke:#263238;stroke-miterlimit:10"></line><line x1="34.78" y1="429.45" x2="42.29" y2="429.45" style="fill:#fff;stroke:#263238;stroke-miterlimit:10"></line><line x1="77.36" y1="428.95" x2="52.31" y2="428.95" style="fill:#fff;stroke:#263238;stroke-miterlimit:10"></line><line x1="29.77" y1="422.95" x2="51.69" y2="422.95" style="fill:#fff;stroke:#263238;stroke-miterlimit:10"></line><line x1="308.39" y1="427.45" x2="297.12" y2="427.45" style="fill:none;stroke:#8a8a8a;stroke-miterlimit:10"></line><line x1="310.89" y1="432.46" x2="275.83" y2="432.46" style="fill:none;stroke:#8a8a8a;stroke-miterlimit:10"></line><line x1="212.6" y1="435.46" x2="229.5" y2="435.46" style="fill:none;stroke:#8a8a8a;stroke-miterlimit:10"></line><line x1="210.72" y1="427.45" x2="256.42" y2="427.45" style="fill:none;stroke:#8a8a8a;stroke-miterlimit:10"></line><line x1="295.87" y1="420.95" x2="269.57" y2="420.95" style="fill:none;stroke:#8a8a8a;stroke-miterlimit:10"></line><rect x="111.79" y="417.94" width="21.29" height="22.02" transform="translate(244.87 857.91) rotate(180)" style="fill:#fff;stroke:#263238;stroke-miterlimit:10"></rect><rect x="136.27" y="395.23" width="182.02" height="22.52" transform="translate(454.56 812.99) rotate(180)" style="fill:#263238;stroke:#263238;stroke-miterlimit:10"></rect><rect x="36.09" y="395.23" width="182.02" height="22.52" transform="translate(254.21 812.99) rotate(180)" style="fill:#fff;stroke:#263238;stroke-miterlimit:10"></rect><line x1="216.86" y1="401.24" x2="172.41" y2="401.24" style="fill:#fff;stroke:#263238;stroke-miterlimit:10"></line><line x1="208.09" y1="406.24" x2="143.61" y2="406.24" style="fill:#fff;stroke:#263238;stroke-miterlimit:10"></line><line x1="182.42" y1="410.75" x2="193.69" y2="410.75" style="fill:#fff;stroke:#263238;stroke-miterlimit:10"></line><line x1="198.08" y1="410.75" x2="216.23" y2="410.75" style="fill:#fff;stroke:#263238;stroke-miterlimit:10"></line><line x1="37.17" y1="409.75" x2="94.14" y2="409.75" style="fill:#fff;stroke:#263238;stroke-miterlimit:10"></line><line x1="42.18" y1="406.74" x2="49.69" y2="406.74" style="fill:#fff;stroke:#263238;stroke-miterlimit:10"></line><line x1="84.75" y1="406.24" x2="59.71" y2="406.24" style="fill:#fff;stroke:#263238;stroke-miterlimit:10"></line><line x1="37.17" y1="400.24" x2="59.08" y2="400.24" style="fill:#fff;stroke:#263238;stroke-miterlimit:10"></line><line x1="315.78" y1="404.74" x2="304.51" y2="404.74" style="fill:none;stroke:#8a8a8a;stroke-miterlimit:10"></line><line x1="318.29" y1="409.75" x2="283.23" y2="409.75" style="fill:none;stroke:#8a8a8a;stroke-miterlimit:10"></line><line x1="219.99" y1="412.75" x2="236.9" y2="412.75" style="fill:none;stroke:#8a8a8a;stroke-miterlimit:10"></line><line x1="218.11" y1="404.74" x2="263.82" y2="404.74" style="fill:none;stroke:#8a8a8a;stroke-miterlimit:10"></line><line x1="303.26" y1="398.24" x2="276.97" y2="398.24" style="fill:none;stroke:#8a8a8a;stroke-miterlimit:10"></line><rect x="119.19" y="395.23" width="21.29" height="22.02" transform="translate(259.66 812.49) rotate(180)" style="fill:#fff;stroke:#263238;stroke-miterlimit:10"></rect><rect x="130.63" y="372.52" width="182.02" height="22.52" transform="translate(443.27 767.56) rotate(180)" style="fill:#263238;stroke:#263238;stroke-miterlimit:10"></rect><rect x="30.45" y="372.52" width="182.02" height="22.52" transform="translate(242.92 767.56) rotate(180)" style="fill:#fff;stroke:#263238;stroke-miterlimit:10"></rect><line x1="211.22" y1="378.53" x2="166.76" y2="378.53" style="fill:#fff;stroke:#263238;stroke-miterlimit:10"></line><line x1="202.45" y1="383.53" x2="137.96" y2="383.53" style="fill:#fff;stroke:#263238;stroke-miterlimit:10"></line><line x1="176.78" y1="388.03" x2="188.05" y2="388.03" style="fill:#fff;stroke:#263238;stroke-miterlimit:10"></line><line x1="192.43" y1="388.03" x2="210.59" y2="388.03" style="fill:#fff;stroke:#263238;stroke-miterlimit:10"></line><line x1="31.52" y1="387.03" x2="88.5" y2="387.03" style="fill:#fff;stroke:#263238;stroke-miterlimit:10"></line><line x1="36.53" y1="384.03" x2="44.05" y2="384.03" style="fill:#fff;stroke:#263238;stroke-miterlimit:10"></line><line x1="79.11" y1="383.53" x2="54.06" y2="383.53" style="fill:#fff;stroke:#263238;stroke-miterlimit:10"></line><line x1="31.52" y1="377.53" x2="53.44" y2="377.53" style="fill:#fff;stroke:#263238;stroke-miterlimit:10"></line><line x1="310.14" y1="382.03" x2="298.87" y2="382.03" style="fill:none;stroke:#8a8a8a;stroke-miterlimit:10"></line><line x1="312.64" y1="387.03" x2="277.58" y2="387.03" style="fill:none;stroke:#8a8a8a;stroke-miterlimit:10"></line><line x1="214.35" y1="390.04" x2="231.25" y2="390.04" style="fill:none;stroke:#8a8a8a;stroke-miterlimit:10"></line><line x1="212.47" y1="382.03" x2="258.17" y2="382.03" style="fill:none;stroke:#8a8a8a;stroke-miterlimit:10"></line><line x1="297.62" y1="375.52" x2="271.32" y2="375.52" style="fill:none;stroke:#8a8a8a;stroke-miterlimit:10"></line><rect x="113.54" y="372.52" width="21.29" height="22.02" transform="translate(248.37 767.06) rotate(180)" style="fill:#fff;stroke:#263238;stroke-miterlimit:10"></rect></g><g id="freepik--banknotes-3--inject-29"><rect x="283.28" y="118.62" width="174.24" height="344.56" style="fill:#263238;stroke:#263238;stroke-miterlimit:10"></rect><line x1="438.68" y1="120.19" x2="438.68" y2="179.84" style="fill:none;stroke:#8a8a8a;stroke-miterlimit:10"></line><line x1="449.67" y1="135.1" x2="449.67" y2="160.22" style="fill:none;stroke:#8a8a8a;stroke-miterlimit:10"></line><line x1="444.18" y1="129.61" x2="444.18" y2="219.08" style="fill:none;stroke:#8a8a8a;stroke-miterlimit:10"></line><line x1="453.6" y1="118.62" x2="453.6" y2="235.57" style="fill:none;stroke:#8a8a8a;stroke-miterlimit:10"></line><line x1="440.25" y1="462.39" x2="440.25" y2="401.17" style="fill:none;stroke:#8a8a8a;stroke-miterlimit:10"></line><line x1="446.53" y1="463.18" x2="446.53" y2="449.83" style="fill:none;stroke:#8a8a8a;stroke-miterlimit:10"></line><line x1="448.1" y1="445.12" x2="448.1" y2="390.97" style="fill:none;stroke:#8a8a8a;stroke-miterlimit:10"></line><line x1="441.04" y1="393.32" x2="441.04" y2="304.63" style="fill:none;stroke:#8a8a8a;stroke-miterlimit:10"></line><rect x="258.95" y="118.62" width="174.24" height="344.56" style="fill:#82C518;stroke:#263238;stroke-miterlimit:10"></rect><path d="M418.28,143A13.33,13.33,0,0,1,405,130.39H287.16A13.31,13.31,0,0,1,273.86,143a13,13,0,0,1-2.35-.22V432a14,14,0,0,1,2.35-.22,13.34,13.34,0,0,1,11.77,19.62H406.51a13.33,13.33,0,0,1,11.77-19.62,14,14,0,0,1,2.35.22V142.73A13,13,0,0,1,418.28,143ZM342.54,343.09c-27.53,0-49.84-24.24-49.84-54.15s22.31-54.16,49.84-54.16,49.84,24.25,49.84,54.16S370.06,343.09,342.54,343.09Z" style="fill:#fff;stroke:#263238;stroke-miterlimit:10"></path><rect x="259.73" y="270.1" width="197.47" height="35.32" style="fill:#fff;stroke:#263238;stroke-miterlimit:10"></rect><rect x="433.57" y="270.1" width="23.63" height="35.32" style="fill:#3d3d3d;stroke:#8a8a8a;stroke-miterlimit:10"></rect></g><g id="freepik--Character--inject-29"><path d="M68.68,441.75l-5.82,8.73-11.37,9v3.71H90.38l-1.33-13v-5.82S73.18,437.51,68.68,441.75Z" style="fill:#263238;stroke:#263238;stroke-miterlimit:10"></path><polygon points="90.03 459.74 51.49 459.74 51.49 463.18 90.38 463.18 90.03 459.74" style="fill:#fff;stroke:#263238;stroke-miterlimit:10"></polygon><path d="M132.9,441.75l6.2,8.73,12.13,9v3.71H109.78l1.41-13v-5.82S128.11,437.51,132.9,441.75Z" style="fill:#263238;stroke:#263238;stroke-miterlimit:10"></path><polygon points="110.15 459.74 151.23 459.74 151.23 463.18 109.78 463.18 110.15 459.74" style="fill:#fff;stroke:#263238;stroke-miterlimit:10"></polygon><path d="M51.33,260.68s9.08,102.48,9.73,121.94,6.81,45.73,6.81,45.73L65,432.89l2.92,10.05s6.81-1.62,10.38-.32,10,2.92,10,2.92,3.25-8.76,3.57-12.65S88,419.59,88,419.59l-.65-117.07h5.84L108.09,426.4l-.65,7.46,2.92,11.68s17.19-3.57,18.48-3.9a5.67,5.67,0,0,1,2.92.33s2-4.22,2-5.52-2.6-8.75-2.6-8.75l-.65-58.05V259.71l-79.13-1.62Z" style="fill:#82C518;stroke:#263238;stroke-miterlimit:10"></path><polyline points="127.72 305.94 129.49 344.71 121.94 345.39 121.94 350.2 127.43 350.54" style="fill:none;stroke:#263238;stroke-linecap:round;stroke-linejoin:round"></polyline><line x1="126.4" y1="277.1" x2="127.55" y2="302.14" style="fill:none;stroke:#263238;stroke-linecap:round;stroke-linejoin:round"></line><path d="M123.1,373.21c.25,6.93.8,12.94,1.93,13.36,2.75,1,3.43,2.06,3.43,2.06" style="fill:none;stroke:#263238;stroke-linecap:round;stroke-linejoin:round"></path><path d="M123,351.57s-.18,8.76,0,17.52" style="fill:none;stroke:#263238;stroke-linecap:round;stroke-linejoin:round"></path><line x1="79.39" y1="299.06" x2="93.11" y2="300.09" style="fill:none;stroke:#263238;stroke-linecap:round;stroke-linejoin:round"></line><polyline points="83.85 266.12 84.19 285.33 90.37 289.8" style="fill:none;stroke:#263238;stroke-linecap:round;stroke-linejoin:round"></polyline><line x1="90.37" y1="272.98" x2="91.4" y2="296.66" style="fill:none;stroke:#263238;stroke-linecap:round;stroke-linejoin:round"></line><line x1="86.13" y1="382.81" x2="86.59" y2="406.48" style="fill:none;stroke:#263238;stroke-linecap:round;stroke-linejoin:round"></line><line x1="84.53" y1="300.43" x2="86.02" y2="376.96" style="fill:none;stroke:#263238;stroke-linecap:round;stroke-linejoin:round"></line><path d="M112.33,276.07s4.81,9.95,13.73,6.86" style="fill:none;stroke:#263238;stroke-linecap:round;stroke-linejoin:round"></path><path d="M64.29,276.07s-3.44,7.55-8.93,8.58" style="fill:none;stroke:#263238;stroke-linecap:round;stroke-linejoin:round"></path><polygon points="84.67 146.33 74.36 149.45 65.72 260.25 111.29 260.98 113.69 147.05 84.67 146.33" style="fill:#fff;stroke:#263238;stroke-miterlimit:10"></polygon><path d="M81,142H78.58l-1.22,3.16.49,26.75,15.08-9.72,14.83,14.1,1.95-31.86s.73-1.46-1.46-2.43-2.92-1.22-2.92-1.22Z" style="fill:#fff;stroke:#263238;stroke-miterlimit:10"></path><path d="M79.55,134.2l.73,11s7,15.32,11.67,17.51,15.33-18.24,15.33-18.24l-.73-12.16H79.3Z" style="fill:#fff;stroke:#263238;stroke-miterlimit:10"></path><path d="M79.55,134.2s8.75,19,13.86,19.71,13.38-17.52,13.38-19.22S79.55,134.2,79.55,134.2Z" style="fill:#263238;stroke:#263238;stroke-miterlimit:10"></path><path d="M74.93,117.92s-4.22-3.46-4.8,1.34,5.57,9.22,5.57,9.22Z" style="fill:#fff;stroke:#263238;stroke-miterlimit:10"></path><path d="M109.23,117.92s4.23-3.46,4.81,1.34-5.57,9.22-5.57,9.22Z" style="fill:#fff;stroke:#263238;stroke-miterlimit:10"></path><path d="M74.16,118.49s2.31,13.45,4.23,15.94,7.87,11.14,13.44,12.68,14.22-9.22,15.94-12.87,2.31-19.78,2.31-19.78l-.19-8.64s-.58-6.34-3.08-9.8S93.56,90.26,86.46,93,73.4,108.12,73.4,110.62,74.16,118.49,74.16,118.49Z" style="fill:#fff;stroke:#263238;stroke-miterlimit:10"></path><path d="M86.84,103.51s-6,6.92-8.64,8.26a26.48,26.48,0,0,0-3.46,1.92l.38,8.07-3.07-11S68.21,99.09,69,93.91s18.24-10.18,24.39-12.1,8.45,1.92,12.48,5,8.26,5.38,7.69,10.57a48.43,48.43,0,0,1-2.69,10.56s-1,14.4-1,15-1.73-14.21-1.73-14.21a5.24,5.24,0,0,1-3.84-4.23,55.89,55.89,0,0,1-1-7.68s-2.5,5.19-5,7.68-8.64,4.8-9.6,4.61,1-4.8,1-4.8l-3.46,3.27Z" style="fill:#263238;stroke:#263238;stroke-miterlimit:10"></path><path d="M88.38,130.4a9.77,9.77,0,0,0,3.26,1.92c1.54.38,4.23-1.92,5-2.5" style="fill:none;stroke:#263238;stroke-miterlimit:10"></path><path d="M87.8,135.78s4.42,3.45,10.37-.58" style="fill:#fff;stroke:#263238;stroke-miterlimit:10"></path><ellipse cx="84.82" cy="121.37" rx="1.25" ry="2.11" style="fill:#263238"></ellipse><ellipse cx="99.42" cy="121.37" rx="1.25" ry="2.11" style="fill:#263238"></ellipse><path d="M96.44,114.65a6.59,6.59,0,0,1,7.69,1.15" style="fill:none;stroke:#263238;stroke-miterlimit:10"></path><path d="M86.26,114.46a4.85,4.85,0,0,0-6.14,1" style="fill:none;stroke:#263238;stroke-miterlimit:10"></path><line x1="99.9" y1="125.02" x2="104.13" y2="124.06" style="fill:none;stroke:#263238;stroke-miterlimit:10"></line><line x1="80.5" y1="123.87" x2="83.96" y2="125.02" style="fill:none;stroke:#263238;stroke-miterlimit:10"></line><path d="M77.6,170,75.41,275l-25-1.21L48.9,270.9s-3.4,0-3.89-2.68,3.4-61.53,3.4-61.53L27,204.74l14.35-28s4.38-19.46,5.35-20.92,31.38-11.92,31.38-11.92Z" style="fill:#263238;stroke:#263238;stroke-miterlimit:10"></path><path d="M108.74,143.28l-3.57,132,32.1-.33,1.3-4.86,3.24-2.27V257.44c0-5.19-6.16-42.81-6.16-42.81s16.22-2.27,16.54-5.51-6.81-52.21-10.7-55.78S108.74,143.28,108.74,143.28Z" style="fill:#263238;stroke:#263238;stroke-miterlimit:10"></path><path d="M116.79,218.55l4.27,12.3s2.47-5.94,2.1-9.68-.38-4.87-1.5-5.06S117,215.18,116.79,218.55Z" style="fill:#fff;stroke:#263238;stroke-miterlimit:10"></path><polygon points="74.12 186.59 87.79 213.75 102.21 206.63 90.04 177.98 74.12 186.59" style="fill:#82C518;stroke:#263238;stroke-miterlimit:10"></polygon><path d="M97.83,205.54a1.76,1.76,0,0,1,1-2.26,1,1,0,0,1,.24,0l-9-21.09a1.42,1.42,0,0,1-.92.82,1.57,1.57,0,0,1-1.65-.64L78,187.48a2,2,0,0,1,.27.6,1.85,1.85,0,0,1-.7,2.13L87.06,209a1.39,1.39,0,0,1,.63-.4,1.72,1.72,0,0,1,1.94,1.11l8.23-4.06Zm-8.12-4.86c-1.75.49-3.64-.8-4.23-2.89s.34-4.19,2.08-4.68,3.64.8,4.23,2.89S91.45,200.18,89.71,200.68Z" style="fill:#fff;stroke:#263238;stroke-miterlimit:10"></path><polygon points="79.97 183.25 87.27 212.76 102.91 209.02 97.4 178.39 79.97 183.25" style="fill:#82C518;stroke:#263238;stroke-miterlimit:10"></polygon><path d="M98.88,207a1.76,1.76,0,0,1,1.49-2,1,1,0,0,1,.24,0l-4-22.55a1.46,1.46,0,0,1-1.08.6,1.61,1.61,0,0,1-1.48-1L83.59,185a2,2,0,0,1,.14.65,1.85,1.85,0,0,1-1.16,1.92L87.62,208a1.34,1.34,0,0,1,.7-.24,1.69,1.69,0,0,1,1.64,1.5l8.93-2.13S98.88,207,98.88,207ZM92,200.44c-1.81.1-3.37-1.58-3.48-3.75s1.26-4,3.07-4.1,3.36,1.59,3.48,3.76S93.85,200.35,92,200.44Z" style="fill:#fff;stroke:#263238;stroke-miterlimit:10"></path><polygon points="88.62 180.97 86.94 211.32 102.99 212.34 106.71 181.43 88.62 180.97" style="fill:#82C518;stroke:#263238;stroke-miterlimit:10"></polygon><path d="M99.73,209.21a1.76,1.76,0,0,1,2-1.46,1,1,0,0,1,.24.09l2.74-22.76a1.43,1.43,0,0,1-1.21.26,1.58,1.58,0,0,1-1.12-1.38l-10.81-.27a1.82,1.82,0,0,1-.06.65,1.85,1.85,0,0,1-1.67,1.5l-1.16,21a1.36,1.36,0,0,1,.75,0,1.7,1.7,0,0,1,1.12,1.93l9.17.58A.28.28,0,0,1,99.73,209.21Zm-4.62-8.27c-1.75-.44-2.75-2.5-2.22-4.61s2.38-3.46,4.14-3,2.74,2.51,2.22,4.62S96.87,201.38,95.11,200.94Z" style="fill:#fff;stroke:#263238;stroke-miterlimit:10"></path><path d="M121.66,210.68a43.6,43.6,0,0,1-5.24-1.12c-.75-.37-6.18-2.25-10.49-4.49s-7.86,0-14,1.12-7.87,1.5-7.87,3,3.19,1.87,3.19,1.87-3,.37-1.5,2.43a7.22,7.22,0,0,0,3.56,2.62,12.9,12.9,0,0,0,3.18,3.56c1.87,1.31,3.18,2.44,3.18,2.44a10,10,0,0,0,4.5,3.18c2.62.75,17.41-3.75,17.41-3.75s4.49,1.31,5.62-1.12S121.66,210.68,121.66,210.68Z" style="fill:#fff;stroke:#263238;stroke-linecap:round;stroke-linejoin:round"></path><path d="M87.21,211.06s11.23-.38,14.79-1.5" style="fill:none;stroke:#263238;stroke-linecap:round;stroke-linejoin:round"></path><path d="M89.27,216.11a59.62,59.62,0,0,0,9.36.75,10.71,10.71,0,0,0,5.24-1.49" style="fill:none;stroke:#263238;stroke-linecap:round;stroke-linejoin:round"></path><path d="M94,220.8s6.55,2,11,.56" style="fill:none;stroke:#263238;stroke-linecap:round;stroke-linejoin:round"></path><path d="M127.22,178.63l3.57,27.89-10.06,2.92s1.63,8.43,1,12.33a66.82,66.82,0,0,0-.65,9.08s11-3.57,18.16-4.22,13.3-3.89,15.24-9.08-4.21-23-4.21-23" style="fill:#263238;stroke:#263238;stroke-miterlimit:10"></path><polyline points="125.89 208.62 130.79 206.52 143.19 203.19" style="fill:none;stroke:#6b6b6b;stroke-miterlimit:10"></polyline><line x1="130.79" y1="206.52" x2="126.94" y2="173.58" style="fill:none;stroke:#6b6b6b;stroke-miterlimit:10"></line><path d="M67.38,205.88s-2.24-9.92-3.18-11.8-6,3.38-6.37,5.06S65.88,206.07,67.38,205.88Z" style="fill:#fff;stroke:#263238;stroke-miterlimit:10"></path><path d="M62.49,185l-4.84,5.68S59,199,60.08,199.33s8.8-5.62,8.8-5.62Z" style="fill:#fff;stroke:#263238;stroke-miterlimit:10"></path><path d="M71.48,173.61s-8.43,8.24-9,11.42,5.43,9.18,6.18,9.74,6.18-3.75,6.36-4.5-3.55-6.55-3.55-6.55a50.83,50.83,0,0,1,5,2.81c.56.56,4.12,5.62,5.43,5.24s.75-2.81,0-5.05-8.8-9.74-8.8-9.74l5.43,1.31s6.37,6.18,7.87,6.18.75-1.5-.19-2.81-5.43-6.55-6.55-7.86-5.43-2.06-6-2.06S71.48,173.61,71.48,173.61Z" style="fill:#fff;stroke:#263238;stroke-linecap:round;stroke-linejoin:round"></path><line x1="71.48" y1="183.72" x2="68.86" y2="181.1" style="fill:none;stroke:#263238;stroke-linecap:round;stroke-linejoin:round"></line><line x1="65.49" y1="184.28" x2="72.23" y2="192.52" style="fill:none;stroke:#263238;stroke-linecap:round;stroke-linejoin:round"></line><path d="M57.46,189.78s1.31,4.49,2.06,7.3,7.86,8.8,7.86,8.8-10.11,10.67-19.1,15.35-19.55,2.33-22.73-1.41-1.87-14.6.75-16.85,17.86-5.14,21.61-7.2S57.46,189.78,57.46,189.78Z" style="fill:#263238;stroke:#263238;stroke-miterlimit:10"></path><line x1="57.46" y1="189.78" x2="32.82" y2="201.82" style="fill:none;stroke:#6b6b6b;stroke-miterlimit:10"></line><line x1="54.26" y1="191.36" x2="54.26" y2="179.86" style="fill:none;stroke:#6b6b6b;stroke-miterlimit:10"></line></g><g id="freepik--banknotes-1--inject-29"><path d="M218.24,444.3s-3,.85-11-5.08-17.36-14.4-17.36-14.4,9.24-1.24,13.51-3.49c4.7-2.49,10.2-8.37,10.2-8.37s18.63,25.41,41.93,23.72a13.07,13.07,0,0,1-8,9.74C240.26,449.38,218.24,444.3,218.24,444.3Z" style="fill:#82C518;stroke:#263238;stroke-linejoin:round"></path><path d="M248.47,439.59S228.69,434.4,218,423.05a3.6,3.6,0,0,1-4.54-3.24A23.26,23.26,0,0,1,199.83,426s.32,2.27-.65,2.92c0,0,15.24,13.3,24,14.92a64.76,64.76,0,0,0,18.48,1,12.43,12.43,0,0,0,7.14-3.24S245.55,440.89,248.47,439.59Zm-18.68-.73c-.71,1.75-4.24,2-7.89.48s-6-4.09-5.34-5.83,4.24-2,7.89-.48S230.49,437.12,229.79,438.86Z" style="fill:#fff;stroke:#263238;stroke-miterlimit:10"></path><path d="M215.24,443.77s10.2,4.2,18.25,4.2a60.9,60.9,0,0,0,14-1.55s-2.75,1.5-7.22-1.37c-2.55-1.64-4.19-5.29-4.19-5.29A76.72,76.72,0,0,1,215.24,443.77Z" style="fill:#82C518;stroke:#263238;stroke-linejoin:round"></path><path d="M329.82,401.06s18.57-6.11,29.43-13.36l11.55,19s-27.62,21.51-34.87,15.85Z" style="fill:#82C518;stroke:#263238;stroke-linejoin:round"></path><path d="M362.88,405.59a2.53,2.53,0,0,1,1.93-2.35l-5.13-8.51a4.12,4.12,0,0,1-1.33.22,3.39,3.39,0,0,1-2.87-1.32c-9.59,6.71-24.3,10.15-24.3,10.15l2.94,11.55s-.45,6.34,7.47,4.75c6.14-1.23,17.69-9,22.6-12.39A2.44,2.44,0,0,1,362.88,405.59Zm-19.79,8.5c-3.47.79-6.7-.39-7.22-2.64s1.88-4.73,5.35-5.53,6.71.39,7.23,2.64S346.57,413.29,343.09,414.09Z" style="fill:#fff;stroke:#263238;stroke-miterlimit:10"></path><path d="M327.1,392.46l12.68,25.13s-4.3,2.26-3.85,5l-12.22-24S322.12,394.72,327.1,392.46Z" style="fill:#82C518;stroke:#263238;stroke-linejoin:round"></path><path d="M324.79,400.7l9.42,18.48a4,4,0,0,1,2-2L325.74,398.8Z" style="fill:#fff;stroke:#263238;stroke-miterlimit:10"></path><polygon points="189.49 260.79 189.69 308.96 214.83 308.85 214.91 259.7 189.49 260.79" style="fill:#82C518;stroke:#263238;stroke-miterlimit:10"></polygon><path d="M209.32,304.23a2.71,2.71,0,0,1,2.92-2.54,2.26,2.26,0,0,1,.37.11l-.05-36.67a2,2,0,0,1-1.66.49,2.33,2.33,0,0,1-1.74-1.87L194,264.4a3,3,0,0,1,0,.94,2.57,2.57,0,0,1-2.15,2.31l0,34a2.18,2.18,0,0,1,1.16-.13,2.79,2.79,0,0,1,2,2.94l14.36-.06C209.32,304.32,209.31,304.27,209.32,304.23ZM201,291.57c-2.79-.51-4.63-3.68-4.11-7.09s3.23-5.76,6-5.24,4.64,3.68,4.11,7.09S203.76,292.09,201,291.57Z" style="fill:#fff;stroke:#263238;stroke-miterlimit:10"></path><polygon points="424.56 56.97 389.5 92.03 407.8 110.33 443.78 74.77 424.56 56.97" style="fill:#82C518;stroke:#263238;stroke-miterlimit:10"></polygon><path d="M407.18,103a2.79,2.79,0,0,1,4,.29,2,2,0,0,1,.19.36L438.12,77a2.06,2.06,0,0,1-1.57-.86,2.4,2.4,0,0,1,.11-2.63L425.18,62.86a3.47,3.47,0,0,1-.69.69,2.63,2.63,0,0,1-3.25.09l-24.87,24.6a2.16,2.16,0,0,1,.93.74,2.86,2.86,0,0,1-.68,3.61l10.45,10.46Zm3.2-15.28c-1.66-2.41-.67-6.06,2.2-8.15s6.55-1.81,8.2.6.66,6.07-2.21,8.15S412,90.09,410.38,87.67Z" style="fill:#fff;stroke:#263238;stroke-miterlimit:10"></path><polygon points="183 203.94 231.78 184.65 221.71 159.19 171.82 178.58 183 203.94" style="fill:#82C518;stroke:#263238;stroke-miterlimit:10"></polygon><path d="M219.2,166.61c-1.77.39-3.44-.48-3.73-2a3,3,0,0,1,0-.43l-37.19,14.58a2.18,2.18,0,0,1,1.16,1.5,2.54,2.54,0,0,1-1.21,2.5L184.88,198a3.68,3.68,0,0,1,1-.37,2.78,2.78,0,0,1,3.19,1.27l34.49-13.42a2.22,2.22,0,0,1-.59-1.11,3,3,0,0,1,2.18-3.22l-5.76-14.55Zm-9.52,13.49c.59,3-1.9,6.17-5.57,7s-7.11-1-7.7-4,1.9-6.16,5.57-7S209.09,177.06,209.68,180.1Z" style="fill:#fff;stroke:#263238;stroke-miterlimit:10"></path><path d="M355.17,56.81s3,.79,6.86,10,7.56,21.25,7.56,21.25-8.58-3.66-13.4-3.91c-5.32-.27-13.05,2-13.05,2s-3-31.37-23.89-41.82A13.06,13.06,0,0,1,331.15,40C338.85,41.18,355.17,56.81,355.17,56.81Z" style="fill:#82C518;stroke:#263238;stroke-linejoin:round"></path><path d="M326.79,45.39S341.13,60,344.52,75.19a3.61,3.61,0,0,1,2.24,5.11A23.24,23.24,0,0,1,361.62,82s.88-2.12,2.05-2.18c0,0-6.3-19.22-13-25.09a65,65,0,0,0-15.39-10.3,12.5,12.5,0,0,0-7.79-.86S330,45.77,326.79,45.39Zm15.68,10.18c1.49-1.13,4.64.49,7,3.63s3.1,6.6,1.6,7.74-4.64-.49-7-3.63S341,56.71,342.47,55.57Z" style="fill:#fff;stroke:#263238;stroke-miterlimit:10"></path><path d="M357.48,58.8S350.86,50,343.94,45.85A61.1,61.1,0,0,0,331.15,40s3.13.12,5.5,4.87c1.35,2.72.9,6.69.9,6.69A76.84,76.84,0,0,1,357.48,58.8Z" style="fill:#82C518;stroke:#263238;stroke-linejoin:round"></path><path d="M96.39,31.6l4.83,17.7S77.08,67.18,40.61,62.17l2-19.13s14.3,2.86,27.35.18S96.39,31.6,96.39,31.6Z" style="fill:#82C518;stroke:#263238;stroke-miterlimit:10"></path><path d="M93.63,48.52a2.15,2.15,0,0,1,1.62-1.84L92.4,38.81a4.06,4.06,0,0,1-1.29.21A3.56,3.56,0,0,1,89,38.37C85,40.47,77.49,44.13,70,45.68a75.8,75.8,0,0,1-20.68.84,2.58,2.58,0,0,1-2.11.81l-.95,10.72c.24,0,.49,0,.74,0,2,0,3.57.6,3.57,1.34a.77.77,0,0,1-.37.58c23.17.88,39.39-7.13,44.31-9.93A1.85,1.85,0,0,1,93.63,48.52ZM70.7,54.11c-3.54.71-6.64.11-6.93-1.34s2.34-3.19,5.88-3.9,6.64-.11,6.93,1.34S74.24,53.4,70.7,54.11Z" style="fill:#fff;stroke:#263238;stroke-miterlimit:10"></path><path d="M422.08,425.77l4.82,17.7s-24.13,17.88-60.61,12.87l2-19.13s14.3,2.86,27.36.18S422.08,425.77,422.08,425.77Z" style="fill:#82C518;stroke:#263238;stroke-miterlimit:10"></path><path d="M419.31,442.7a2.15,2.15,0,0,1,1.62-1.85L418.08,433a4.36,4.36,0,0,1-1.29.2,3.64,3.64,0,0,1-2.16-.64c-3.91,2.09-11.46,5.75-18.94,7.3a75.79,75.79,0,0,1-20.68.84,2.58,2.58,0,0,1-2.11.81L372,452.23q.36,0,.75,0c2,0,3.56.59,3.56,1.33a.77.77,0,0,1-.37.58c23.17.89,39.39-7.12,44.32-9.93A1.85,1.85,0,0,1,419.31,442.7Zm-22.93,5.58c-3.54.71-6.64.11-6.93-1.33s2.34-3.2,5.88-3.91,6.64-.1,6.93,1.34S399.92,447.58,396.38,448.28Z" style="fill:#fff;stroke:#263238;stroke-miterlimit:10"></path><path d="M169.24,54.16s18.56-6.11,29.43-13.36l11.55,19S182.6,81.33,175.35,75.67Z" style="fill:#82C518;stroke:#263238;stroke-linejoin:round"></path><path d="M202.29,58.69a2.54,2.54,0,0,1,1.94-2.35l-5.14-8.51a4,4,0,0,1-1.32.22,3.39,3.39,0,0,1-2.87-1.32c-9.59,6.71-24.3,10.15-24.3,10.15l2.94,11.55s-.45,6.34,7.47,4.75c6.13-1.23,17.68-9,22.6-12.39A2.44,2.44,0,0,1,202.29,58.69Zm-19.78,8.5c-3.47.79-6.71-.39-7.22-2.64s1.88-4.73,5.35-5.53,6.71.39,7.23,2.65S186,66.39,182.51,67.19Z" style="fill:#fff;stroke:#263238;stroke-miterlimit:10"></path><path d="M166.52,45.56,179.2,70.69s-4.3,2.26-3.85,5l-12.23-24S161.54,47.82,166.52,45.56Z" style="fill:#82C518;stroke:#263238;stroke-linejoin:round"></path><path d="M164.21,53.8l9.41,18.48a4,4,0,0,1,2-2L165.16,51.9Z" style="fill:#fff;stroke:#263238;stroke-miterlimit:10"></path><polygon points="324.51 165.62 289.45 200.68 307.75 218.97 343.74 183.41 324.51 165.62" style="fill:#82C518;stroke:#263238;stroke-miterlimit:10"></polygon><path d="M307.14,211.6a2.79,2.79,0,0,1,4,.29,2,2,0,0,1,.18.36l26.78-26.62a2,2,0,0,1-1.56-.86,2.4,2.4,0,0,1,.1-2.63l-11.48-10.63a3.18,3.18,0,0,1-.69.68,2.62,2.62,0,0,1-3.25.1l-24.87,24.59a2.2,2.2,0,0,1,.93.75,2.86,2.86,0,0,1-.68,3.61L307,211.69Zm3.19-15.28c-1.65-2.42-.66-6.06,2.21-8.15s6.54-1.81,8.19.6.67,6.06-2.21,8.15S312,198.73,310.33,196.32Z" style="fill:#fff;stroke:#263238;stroke-miterlimit:10"></path><polygon points="388.6 251.16 436.51 256.16 439.11 231.16 390.26 225.77 388.6 251.16" style="fill:#82C518;stroke:#263238;stroke-miterlimit:10"></polygon><path d="M433.92,236.13a2.71,2.71,0,0,1-2.21-3.17,2.32,2.32,0,0,1,.16-.36l-36.47-3.91a2,2,0,0,1,.31,1.71,2.31,2.31,0,0,1-2,1.52l-1,15.17a3.38,3.38,0,0,1,.94.1,2.57,2.57,0,0,1,2.06,2.4l33.77,3.71a2.08,2.08,0,0,1,0-1.16,2.78,2.78,0,0,1,3.14-1.7l1.48-14.28Zm-13.48,7c-.81,2.72-4.16,4.21-7.49,3.32s-5.38-3.83-4.57-6.55,4.17-4.21,7.5-3.32S421.25,240.35,420.44,243.08Z" style="fill:#fff;stroke:#263238;stroke-miterlimit:10"></path><path d="M443.18,296.43s3,.79,6.86,10,7.55,21.25,7.55,21.25-8.57-3.66-13.4-3.91c-5.31-.27-13,2-13,2s-3-31.37-23.89-41.82a13.05,13.05,0,0,1,11.89-4.26C426.85,280.8,443.18,296.43,443.18,296.43Z" style="fill:#82C518;stroke:#263238;stroke-linejoin:round"></path><path d="M414.79,285s14.35,14.58,17.74,29.81a3.59,3.59,0,0,1,2.24,5.1,23.21,23.21,0,0,1,14.85,1.68s.89-2.12,2.05-2.18c0,0-6.29-19.22-13-25.09A64.78,64.78,0,0,0,423.3,284a12.5,12.5,0,0,0-7.79-.86S418,285.39,414.79,285Zm15.68,10.18c1.5-1.13,4.64.49,7,3.63s3.1,6.6,1.6,7.74-4.64-.49-7-3.63S429,296.33,430.47,295.19Z" style="fill:#fff;stroke:#263238;stroke-miterlimit:10"></path><path d="M445.48,298.42s-6.62-8.83-13.53-12.95a61,61,0,0,0-12.8-5.81s3.14.12,5.5,4.87c1.36,2.72.9,6.69.9,6.69A76.71,76.71,0,0,1,445.48,298.42Z" style="fill:#82C518;stroke:#263238;stroke-linejoin:round"></path><path d="M420,180.83s-16.19,10.95-24.67,20.89L379,186.58s20.69-28.24,29.21-24.77Z" style="fill:#82C518;stroke:#263238;stroke-linejoin:round"></path><path d="M387,185.51a2.52,2.52,0,0,1-1.22,2.78l7.26,6.79a4.14,4.14,0,0,1,1.22-.57,3.39,3.39,0,0,1,3.12.48c7.4-9.07,20.61-16.4,20.61-16.4l-6-10.31s-1.3-6.22-8.49-2.53c-5.56,2.86-14.56,13.45-18.35,18.1A2.43,2.43,0,0,1,387,185.51Zm16.71-13.58c3.12-1.72,6.56-1.46,7.67.56s-.52,5.07-3.64,6.78-6.56,1.46-7.68-.57S400.55,173.64,403.68,171.93Z" style="fill:#fff;stroke:#263238;stroke-miterlimit:10"></path><path d="M425,188.36l-19.06-20.71s3.52-3.35,2.34-5.84l18.32,19.74S429.14,184.82,425,188.36Z" style="fill:#82C518;stroke:#263238;stroke-linejoin:round"></path><path d="M424.94,179.8l-14.1-15.2a4.06,4.06,0,0,1-1.33,2.5l15,14.79Z" style="fill:#fff;stroke:#263238;stroke-miterlimit:10"></path></g><g id="freepik--Floor--inject-29"><line x1="9.66" y1="463.18" x2="488" y2="463.18" style="fill:none;stroke:#263238;stroke-linecap:round;stroke-linejoin:round"></line></g></svg>