<svg xmlns="http://www.w3.org/2000/svg" viewBox="0 0 500 500"><g id="freepik--background-simple--inject-54"><path d="M467.6,251.91c-4.93,41.8-24,90.41-62.14,112.73-57.59,33.75-52.77,85.64-165.19,108.2a231.26,231.26,0,0,1-49.84,4.71,194.66,194.66,0,0,1-24.47-2C94.51,465.12,46.43,415.46,28.79,355.5,5.58,276.66,51.93,225,82.65,193.94s53.23-128,163.57-151A223.75,223.75,0,0,1,297.45,38c39.26,1,82.08,13.86,111.71,40.76q3.33,3,6.5,6.28C456.84,127.33,474.34,194.92,467.6,251.91Z" style="fill:#82C518"></path><path d="M467.6,251.91c-4.93,41.8-24,90.41-62.14,112.73-57.59,33.75-52.77,85.64-165.19,108.2a231.26,231.26,0,0,1-49.84,4.71,194.66,194.66,0,0,1-24.47-2C94.51,465.12,46.43,415.46,28.79,355.5,5.58,276.66,51.93,225,82.65,193.94s53.23-128,163.57-151A223.75,223.75,0,0,1,297.45,38c39.26,1,82.08,13.86,111.71,40.76q3.33,3,6.5,6.28C456.84,127.33,474.34,194.92,467.6,251.91Z" style="fill:#fff;opacity:0.7000000000000001"></path></g><g id="freepik--Floor--inject-54"><line x1="42.41" y1="443.21" x2="463.74" y2="443.21" style="fill:none;stroke:#263238;stroke-miterlimit:10"></line></g><g id="freepik--terms-and-conditions--inject-54"><rect x="416.58" y="281.74" width="45.97" height="59.73" rx="4.67" style="fill:#263238"></rect><rect x="418.78" y="286.89" width="41.57" height="51.74" style="fill:#fff;stroke:#263238;stroke-linecap:round;stroke-linejoin:round"></rect><line x1="431.12" y1="293.26" x2="448" y2="293.26" style="fill:none;stroke:#263238;stroke-linecap:round;stroke-linejoin:round"></line><line x1="423.07" y1="300.53" x2="456.05" y2="300.53" style="fill:none;stroke:#263238;stroke-linecap:round;stroke-linejoin:round"></line><line x1="423.07" y1="306.24" x2="456.05" y2="306.24" style="fill:none;stroke:#263238;stroke-linecap:round;stroke-linejoin:round"></line><line x1="423.07" y1="311.96" x2="456.05" y2="311.96" style="fill:none;stroke:#263238;stroke-linecap:round;stroke-linejoin:round"></line><line x1="423.07" y1="317.67" x2="456.05" y2="317.67" style="fill:none;stroke:#263238;stroke-linecap:round;stroke-linejoin:round"></line><line x1="423.07" y1="323.39" x2="456.05" y2="323.39" style="fill:none;stroke:#263238;stroke-linecap:round;stroke-linejoin:round"></line><line x1="423.07" y1="329.1" x2="456.05" y2="329.1" style="fill:none;stroke:#263238;stroke-linecap:round;stroke-linejoin:round"></line><path d="M446.39,280.92a1.48,1.48,0,0,1-1.21-2.31,5.19,5.19,0,1,0-8.76.08,1.46,1.46,0,0,1-1.26,2.23h-9l2.44,7H453l2.44-7Zm-5.62-3a1.82,1.82,0,1,1,1.82-1.81A1.81,1.81,0,0,1,440.77,277.93Z" style="fill:#fff;stroke:#263238;stroke-linecap:round;stroke-linejoin:round"></path><path d="M426,297.67a32.38,32.38,0,0,1-15.84-10.5,32.38,32.38,0,0,1-15.84,10.5s-.57,16.89,15.84,32.37C426.54,314.56,426,297.67,426,297.67Z" style="fill:#fff;stroke:#263238;stroke-linecap:round;stroke-linejoin:round"></path><path d="M423.19,299.59a26.7,26.7,0,0,1-13.06-8.67,26.75,26.75,0,0,1-13.07,8.67s-.47,13.93,13.07,26.7C423.67,313.52,423.19,299.59,423.19,299.59Z" style="fill:#263238;stroke:#263238;stroke-miterlimit:10"></path><path d="M423.19,299.59a26.7,26.7,0,0,1-13.06-8.67v35.37C423.67,313.52,423.19,299.59,423.19,299.59Z" style="fill:#fff;stroke:#263238;stroke-linecap:round;stroke-linejoin:round"></path></g><g id="freepik--equipment-2--inject-54"><path d="M373.71,173.92l5.34.62,25.23,43.57a6.84,6.84,0,0,0,6.3,4.16h0a6.84,6.84,0,0,0,6.51-4.75l3-16.73L460.07,213l-14.45-27.43" style="fill:none;stroke:#263238;stroke-linecap:round;stroke-linejoin:round;stroke-width:3px"></path><line x1="362.69" y1="172.64" x2="373.71" y2="173.92" style="fill:none;stroke:#263238;stroke-linecap:round;stroke-linejoin:round;stroke-width:5px"></line><polygon points="440.29 204.21 397.31 204.21 388.94 173.78 455.89 173.78 440.29 204.21" style="fill:#263238;stroke:#263238;stroke-linecap:round;stroke-linejoin:round"></polygon><polygon points="453.75 177.96 455.89 173.78 388.94 173.78 390.09 177.96 453.75 177.96" style="fill:#fff;stroke:#263238;stroke-miterlimit:10"></polygon><circle cx="460.07" cy="213" r="9.89" transform="translate(-15.86 387.71) rotate(-45)" style="fill:#263238;stroke:#263238;stroke-linecap:round;stroke-linejoin:round"></circle><path d="M465.61,213a5.54,5.54,0,1,0-5.54,5.54A5.54,5.54,0,0,0,465.61,213Z" style="fill:#fff;stroke:#263238;stroke-miterlimit:10"></path><path d="M446.55,171.49c-4-3.32-15.76-12.88-21.09-14.45-5.65-1.66-25.19,11.16-30.08,14.45Z" style="fill:#263238"></path></g><g id="freepik--equipment-1--inject-54"><path d="M416.19,50l-31.26-.81L383,42.41s-.67-.55-1.34.45-5.47,7-5.47,7a3,3,0,0,0-.22,1.68c.22.66,4.58,44,4.58,44l3.23-.9L385,54.58,411.93,59S414,53.07,416.19,50Z" style="fill:#fff;stroke:#263238;stroke-miterlimit:10"></path><path d="M416.19,50s-12,12.9-10.42,36.9h49.36l-1.81-13.36-17-2.71v-19Z" style="fill:#fff;stroke:#263238;stroke-miterlimit:10"></path><path d="M416.19,50s-10.61,11.41-10.56,32.72h22.08l8.63-11.89v-19Z" style="fill:#263238;stroke:#263238;stroke-miterlimit:10"></path><path d="M417.78,54.22c-2.86,4.49-5.44,14.6-5.44,14.6h14.94V54.92Z" style="fill:#fff;stroke:#263238;stroke-miterlimit:10"></path><polygon points="430.06 54.42 430.06 67.83 434.97 63.83 434.97 54.22 430.06 54.42" style="fill:#fff;stroke:#263238;stroke-miterlimit:10"></polygon><rect x="444.83" y="83.26" width="8.68" height="1.29" style="fill:#263238"></rect><rect x="444.83" y="80.49" width="8.68" height="1.29" style="fill:#263238"></rect><rect x="444.83" y="77.72" width="8.68" height="1.29" style="fill:#263238"></rect><polyline points="436.04 88.95 418.85 88.95 415.95 89.73 418.07 92.19 434.48 92.19 436.04 89.73" style="fill:#fff;stroke:#263238;stroke-miterlimit:10"></polyline><rect x="405.13" y="86.16" width="52.45" height="4.69" style="fill:#fff;stroke:#263238;stroke-miterlimit:10"></rect><path d="M446.75,91.89H415.51a10.12,10.12,0,0,0,0,20.24h31.24a10.12,10.12,0,1,0,0-20.24Z" style="fill:#263238;stroke:#263238;stroke-miterlimit:10"></path><circle cx="446.75" cy="102.01" r="6.58" style="fill:#fff;stroke:#263238;stroke-miterlimit:10"></circle><path d="M451,102a4.24,4.24,0,1,0-4.24,4.24A4.24,4.24,0,0,0,451,102Z" style="fill:#263238;stroke:#263238;stroke-miterlimit:10"></path><circle cx="415.51" cy="102.01" r="6.58" style="fill:#fff;stroke:#263238;stroke-miterlimit:10"></circle><path d="M419.75,102a4.24,4.24,0,1,0-4.24,4.24A4.24,4.24,0,0,0,419.75,102Z" style="fill:#263238;stroke:#263238;stroke-miterlimit:10"></path><path d="M443.56,106.37l-26.07-.71a3.77,3.77,0,0,1-3.66-3.76h0a3.75,3.75,0,0,1,3.66-3.76l26.07-.71a3.75,3.75,0,0,1,3.86,3.76v1.42A3.77,3.77,0,0,1,443.56,106.37Z" style="fill:#fff;stroke:#263238;stroke-miterlimit:10"></path><path d="M381.91,92.3l-5.58,9.93s7.37,7.7,13.17,9.38,12.39.22,12.39.22v-.89l-4.13-.23-2-14.06Z" style="fill:#263238;stroke:#263238;stroke-miterlimit:10"></path></g><g id="freepik--Workers--inject-54"><polygon points="101.86 90.68 87.18 80.39 83.09 80.69 79.01 80.39 64.33 90.68 61.98 100.53 83.09 100.53 104.2 100.53 101.86 90.68" style="fill:#fff;stroke:#263238;stroke-miterlimit:10"></polygon><polygon points="69.3 100.53 83.09 100.53 97.17 100.53 97.17 87.39 87.18 80.39 83.09 80.69 79.01 80.39 69.3 87.2 69.3 100.53" style="fill:#fff;stroke:#263238;stroke-miterlimit:10"></polygon><polygon points="87.58 81.8 83.05 93.26 78.19 81.8 78.19 73.29 87.58 73.29 87.58 81.8" style="fill:#263238;stroke:#263238;stroke-miterlimit:10"></polygon><path d="M78.78,54.36,81,56.21V52.39h3.22v3.94L86,54.51a9,9,0,0,1,2.31,1.22c1.45,1,2.35,3.55,2.71,5.28.07.32.48.16.48.16v2.42a46.12,46.12,0,0,1-10,.91,32.17,32.17,0,0,1-7.48-1.21V60.87h.89S74.79,55.14,78.78,54.36Z" style="fill:#fff;stroke:#263238;stroke-miterlimit:10"></path><path d="M81.41,65.85A30.54,30.54,0,0,1,75.17,65,9.81,9.81,0,0,0,75,66.61c0,9.17,3.38,11.69,7.55,11.69s7.55-3.24,7.55-11.69a10.85,10.85,0,0,0-.1-1.4A46.52,46.52,0,0,1,81.41,65.85Z" style="fill:#263238;stroke:#263238;stroke-miterlimit:10"></path><polygon points="78.19 79.16 74.95 82.4 81.11 89.44 82.88 82.09 78.19 79.16" style="fill:#fff;stroke:#263238;stroke-miterlimit:10"></polygon><polygon points="88.16 79.16 91.39 82.4 85.23 89.44 83.46 82.09 88.16 79.16" style="fill:#fff;stroke:#263238;stroke-miterlimit:10"></polygon><polygon points="130.62 100.71 115.95 90.42 111.86 90.71 107.77 90.42 93.09 100.71 90.75 110.56 111.86 110.56 132.97 110.56 130.62 100.71" style="fill:#fff;stroke:#263238;stroke-miterlimit:10"></polygon><polygon points="98.07 110.56 111.86 110.56 125.93 110.56 125.93 97.42 115.95 90.42 111.86 90.71 107.77 90.42 98.07 97.22 98.07 110.56" style="fill:#fff;stroke:#263238;stroke-miterlimit:10"></polygon><polygon points="116.34 91.83 111.81 103.29 106.95 91.83 106.95 83.32 116.34 83.32 116.34 91.83" style="fill:#263238;stroke:#263238;stroke-miterlimit:10"></polygon><path d="M107.54,64.38l2.2,1.86V62.42H113v3.93l1.76-1.82a9.46,9.46,0,0,1,2.3,1.22c1.46,1,2.35,3.55,2.72,5.28.06.33.48.16.48.16v2.42a45.44,45.44,0,0,1-10,.91,31.43,31.43,0,0,1-7.47-1.21V70.89h.89S103.55,65.17,107.54,64.38Z" style="fill:#fff;stroke:#263238;stroke-miterlimit:10"></path><path d="M110.17,75.88a31.27,31.27,0,0,1-6.24-.89,11.24,11.24,0,0,0-.13,1.65c0,9.17,3.38,11.68,7.55,11.68s7.55-3.23,7.55-11.68a9.13,9.13,0,0,0-.11-1.4A46.36,46.36,0,0,1,110.17,75.88Z" style="fill:#263238;stroke:#263238;stroke-miterlimit:10"></path><polygon points="106.95 89.18 103.72 92.43 109.88 99.47 111.65 92.12 106.95 89.18" style="fill:#fff;stroke:#263238;stroke-miterlimit:10"></polygon><polygon points="116.92 89.18 120.16 92.43 114 99.47 112.23 92.12 116.92 89.18" style="fill:#fff;stroke:#263238;stroke-miterlimit:10"></polygon><polygon points="74.2 100.71 59.52 90.42 55.43 90.71 51.35 90.42 36.67 100.71 34.32 110.56 55.43 110.56 76.54 110.56 74.2 100.71" style="fill:#fff;stroke:#263238;stroke-miterlimit:10"></polygon><polygon points="41.64 110.56 55.43 110.56 69.51 110.56 69.51 97.42 59.52 90.42 55.43 90.71 51.35 90.42 41.64 97.22 41.64 110.56" style="fill:#fff;stroke:#263238;stroke-miterlimit:10"></polygon><polygon points="59.92 91.83 55.39 103.29 50.53 91.83 50.53 83.32 59.92 83.32 59.92 91.83" style="fill:#263238;stroke:#263238;stroke-miterlimit:10"></polygon><path d="M51.12,64.38l2.19,1.86V62.42h3.23v3.93l1.75-1.82a9.42,9.42,0,0,1,2.31,1.22c1.45,1,2.35,3.55,2.71,5.28.07.33.48.16.48.16v2.42a45.4,45.4,0,0,1-10,.91,31.57,31.57,0,0,1-7.48-1.21V70.89h.89S47.13,65.17,51.12,64.38Z" style="fill:#fff;stroke:#263238;stroke-miterlimit:10"></path><path d="M53.75,75.88A31.15,31.15,0,0,1,47.51,75a10,10,0,0,0-.14,1.65c0,9.17,3.38,11.68,7.55,11.68s7.55-3.23,7.55-11.68a10.6,10.6,0,0,0-.1-1.4A46.52,46.52,0,0,1,53.75,75.88Z" style="fill:#263238;stroke:#263238;stroke-miterlimit:10"></path><polygon points="50.53 89.18 47.29 92.43 53.46 99.47 55.22 92.12 50.53 89.18" style="fill:#fff;stroke:#263238;stroke-miterlimit:10"></polygon><polygon points="60.5 89.18 63.73 92.43 57.57 99.47 55.8 92.12 60.5 89.18" style="fill:#fff;stroke:#263238;stroke-miterlimit:10"></polygon></g><g id="freepik--Money--inject-54"><path d="M99.25,185.22H105a3.31,3.31,0,0,1,3.31,3.31v7.7a3.31,3.31,0,0,1-3.31,3.31H99.25a0,0,0,0,1,0,0V185.22A0,0,0,0,1,99.25,185.22Z" style="fill:#263238"></path><ellipse cx="72.14" cy="192.76" rx="30.12" ry="27.89" style="fill:#263238"></ellipse><path d="M82.54,170.65a28,28,0,0,0-19.84-.36" style="fill:none;stroke:#fff;stroke-miterlimit:10;stroke-width:2px"></path><path d="M38.79,185.22h5.74a3.31,3.31,0,0,1,3.31,3.31v7.7a3.31,3.31,0,0,1-3.31,3.31H38.79a0,0,0,0,1,0,0V185.22A0,0,0,0,1,38.79,185.22Z" transform="translate(86.63 384.77) rotate(180)" style="fill:#263238"></path><path d="M58.3,215.37H69.6a0,0,0,0,1,0,0v9.32a1.23,1.23,0,0,1-1.23,1.23H59.53a1.23,1.23,0,0,1-1.23-1.23v-9.32A0,0,0,0,1,58.3,215.37Z" style="fill:#263238"></path><path d="M74.88,215.37H86.19a0,0,0,0,1,0,0v9.32A1.23,1.23,0,0,1,85,225.93H76.11a1.23,1.23,0,0,1-1.23-1.23v-9.32A0,0,0,0,1,74.88,215.37Z" style="fill:#263238"></path><path d="M88.69,170.9s13.57-8.29,13.57-3.77-3,18.09-3,18.09" style="fill:#263238"></path><circle cx="72.86" cy="192.71" r="19.02" transform="translate(-114.92 107.96) rotate(-45)" style="fill:#fff"></circle><path d="M72.49,208.44v-3a6.29,6.29,0,0,1-4.75-2.05c-1.06-1.26-1.63-3.21-1.71-5.83l4.71-.71A12.31,12.31,0,0,0,71,199.4a2.83,2.83,0,0,0,.73,1.41,1.64,1.64,0,0,0,1.15.43,1.11,1.11,0,0,0,1.13-.58,3.05,3.05,0,0,0,.26-1.23,4.43,4.43,0,0,0-.73-2.6,11,11,0,0,0-2-2.14l-2.19-1.88a17.87,17.87,0,0,1-1.67-1.71,7,7,0,0,1-1.22-2,7.33,7.33,0,0,1-.46-2.75,6.17,6.17,0,0,1,1.68-4.59,6.91,6.91,0,0,1,4.51-1.87v-2.93h1.56v2.9a5.63,5.63,0,0,1,2.87.81,4.74,4.74,0,0,1,1.61,1.79,7.57,7.57,0,0,1,.74,2.24,16.81,16.81,0,0,1,.23,2.2l-4.77.59c0-.74-.07-1.39-.14-1.94a2.71,2.71,0,0,0-.43-1.28,1.11,1.11,0,0,0-1-.41,1.23,1.23,0,0,0-1.14.64,2.64,2.64,0,0,0-.37,1.29,3.59,3.59,0,0,0,.76,2.39,17.59,17.59,0,0,0,1.64,1.71l2.1,1.81a21.57,21.57,0,0,1,1.92,2,9.27,9.27,0,0,1,1.4,2.4,8.26,8.26,0,0,1,.52,3.05,6.56,6.56,0,0,1-.67,3,5.65,5.65,0,0,1-1.94,2.2,6.46,6.46,0,0,1-3,1v3.08Z" style="fill:#263238"></path></g><g id="freepik--Preconstruction--inject-54"><rect x="55.52" y="281.74" width="45.97" height="59.73" rx="4.67" style="fill:#263238"></rect><rect x="57.72" y="286.89" width="41.57" height="51.74" style="fill:#fff;stroke:#263238;stroke-linecap:round;stroke-linejoin:round"></rect><line x1="70.06" y1="293.26" x2="86.94" y2="293.26" style="fill:none;stroke:#263238;stroke-linecap:round;stroke-linejoin:round"></line><line x1="62.01" y1="300.53" x2="95" y2="300.53" style="fill:none;stroke:#263238;stroke-linecap:round;stroke-linejoin:round"></line><line x1="62.01" y1="306.24" x2="95" y2="306.24" style="fill:none;stroke:#263238;stroke-linecap:round;stroke-linejoin:round"></line><line x1="62.01" y1="311.96" x2="95" y2="311.96" style="fill:none;stroke:#263238;stroke-linecap:round;stroke-linejoin:round"></line><line x1="62.01" y1="317.67" x2="95" y2="317.67" style="fill:none;stroke:#263238;stroke-linecap:round;stroke-linejoin:round"></line><line x1="62.01" y1="323.39" x2="95" y2="323.39" style="fill:none;stroke:#263238;stroke-linecap:round;stroke-linejoin:round"></line><line x1="62.01" y1="329.1" x2="95" y2="329.1" style="fill:none;stroke:#263238;stroke-linecap:round;stroke-linejoin:round"></line><path d="M85.34,280.92a1.48,1.48,0,0,1-1.21-2.31,5.19,5.19,0,1,0-8.76.08,1.46,1.46,0,0,1-1.27,2.23h-9l2.44,7H91.93l2.44-7Zm-5.62-3a1.82,1.82,0,1,1,1.82-1.81A1.82,1.82,0,0,1,79.72,277.93Z" style="fill:#fff;stroke:#263238;stroke-linecap:round;stroke-linejoin:round"></path><circle cx="47.28" cy="306.93" r="20.07" transform="translate(-203.18 123.33) rotate(-45)" style="fill:#263238"></circle><path d="M46.89,323.53v-3.21a6.61,6.61,0,0,1-5-2.16q-1.68-2-1.8-6.15l5-.75a12.62,12.62,0,0,0,.3,2.73,2.86,2.86,0,0,0,.76,1.49,1.76,1.76,0,0,0,1.22.46,1.16,1.16,0,0,0,1.18-.62,3.23,3.23,0,0,0,.28-1.3,4.73,4.73,0,0,0-.77-2.74A11.3,11.3,0,0,0,45.92,309l-2.3-2a18.71,18.71,0,0,1-1.77-1.8,7.77,7.77,0,0,1-1.29-2.14,7.92,7.92,0,0,1-.48-2.91,6.48,6.48,0,0,1,1.77-4.83,7.32,7.32,0,0,1,4.75-2v-3.08h1.66v3a6,6,0,0,1,3,.86,5,5,0,0,1,1.7,1.89,8.09,8.09,0,0,1,.78,2.36,17.07,17.07,0,0,1,.24,2.33l-5,.61c0-.78-.07-1.46-.14-2a2.93,2.93,0,0,0-.46-1.35,1.2,1.2,0,0,0-1.09-.44,1.3,1.3,0,0,0-1.2.68,2.75,2.75,0,0,0-.39,1.37,3.78,3.78,0,0,0,.8,2.51,16.41,16.41,0,0,0,1.74,1.8l2.2,1.92a20.43,20.43,0,0,1,2,2.14,9.55,9.55,0,0,1,1.48,2.53,8.73,8.73,0,0,1,.55,3.22,7,7,0,0,1-.71,3.15,6,6,0,0,1-2.05,2.32,6.88,6.88,0,0,1-3.18,1.08v3.25Z" style="fill:#fff"></path></g><g id="freepik--Calculator--inject-54"><path d="M332.94,118.78H159.07a21.23,21.23,0,0,0-20.43,21.34l3.66,80V434.61a17.62,17.62,0,0,0,17.62,17.62H330.05a19.49,19.49,0,0,0,18.63-18.63V219.12l3.67-80A19.43,19.43,0,0,0,332.94,118.78Z" style="fill:#fff;stroke:#263238;stroke-miterlimit:10"></path><path d="M339.24,216.67,342.6,142a11.91,11.91,0,0,0-11.9-12.45H161.3A11.91,11.91,0,0,0,149.4,142l3.37,74.65Z" style="fill:#263238;stroke:#263238;stroke-miterlimit:10"></path><rect x="159.41" y="148.95" width="172.41" height="58.31" style="fill:#7d7d7d"></rect><rect x="167.92" y="157.46" width="155.39" height="41.29" style="fill:#bfbfbf"></rect><rect x="159.72" y="240.36" width="86.99" height="25.53" rx="4.97" style="fill:#7d7d7d;stroke:#263238;stroke-miterlimit:10"></rect><line x1="178" y1="240.68" x2="178" y2="265.89" style="fill:none;stroke:#263238;stroke-miterlimit:10"></line><line x1="195.55" y1="240.68" x2="195.55" y2="265.89" style="fill:none;stroke:#263238;stroke-miterlimit:10"></line><line x1="213.09" y1="240.68" x2="213.09" y2="265.89" style="fill:none;stroke:#263238;stroke-miterlimit:10"></line><line x1="230.64" y1="240.68" x2="230.64" y2="265.89" style="fill:none;stroke:#263238;stroke-miterlimit:10"></line><rect x="268.83" y="254.39" width="30.95" height="20.04" rx="4.62" style="fill:#bdbdbd;stroke:#263238;stroke-miterlimit:10"></rect><rect x="160.24" y="282.05" width="30.95" height="23.59" rx="4.62" style="fill:#bdbdbd;stroke:#263238;stroke-miterlimit:10"></rect><rect x="196.52" y="282.05" width="30.95" height="23.59" rx="4.62" style="fill:#bdbdbd;stroke:#263238;stroke-miterlimit:10"></rect><path d="M237.43,282h21.7a4.63,4.63,0,0,1,4.63,4.63V301a4.63,4.63,0,0,1-4.62,4.63h-21.7A4.62,4.62,0,0,1,232.8,301V286.67A4.62,4.62,0,0,1,237.43,282Z" style="fill:#bdbdbd;stroke:#263238;stroke-miterlimit:10"></path><rect x="269.08" y="282.05" width="30.95" height="23.59" rx="4.62" style="fill:#bdbdbd;stroke:#263238;stroke-miterlimit:10"></rect><rect x="305.36" y="282.05" width="30.95" height="23.59" rx="4.62" style="fill:#bdbdbd;stroke:#263238;stroke-miterlimit:10"></rect><rect x="160.24" y="313.76" width="30.95" height="23.59" rx="4.62" style="fill:#bdbdbd;stroke:#263238;stroke-miterlimit:10"></rect><rect x="196.52" y="313.76" width="30.95" height="23.59" rx="4.62" style="fill:#6b6b6b;stroke:#263238;stroke-miterlimit:10"></rect><path d="M237.43,313.76h21.7a4.63,4.63,0,0,1,4.63,4.63v14.34a4.63,4.63,0,0,1-4.62,4.63h-21.7a4.62,4.62,0,0,1-4.62-4.62V318.38A4.62,4.62,0,0,1,237.43,313.76Z" style="fill:#6b6b6b;stroke:#263238;stroke-miterlimit:10"></path><rect x="269.08" y="313.76" width="30.95" height="23.59" rx="4.62" style="fill:#6b6b6b;stroke:#263238;stroke-miterlimit:10"></rect><rect x="305.36" y="313.76" width="30.95" height="23.59" rx="4.62" style="fill:#bdbdbd;stroke:#263238;stroke-miterlimit:10"></rect><rect x="160.24" y="345.47" width="30.95" height="23.59" rx="4.62" style="fill:#bdbdbd;stroke:#263238;stroke-miterlimit:10"></rect><rect x="196.52" y="345.47" width="30.95" height="23.59" rx="4.62" style="fill:#6b6b6b;stroke:#263238;stroke-miterlimit:10"></rect><path d="M237.43,345.47h21.7a4.63,4.63,0,0,1,4.63,4.63v14.34a4.63,4.63,0,0,1-4.62,4.63h-21.7a4.62,4.62,0,0,1-4.62-4.62V350.1A4.62,4.62,0,0,1,237.43,345.47Z" style="fill:#6b6b6b;stroke:#263238;stroke-miterlimit:10"></path><rect x="269.08" y="345.47" width="30.95" height="23.59" rx="4.62" style="fill:#6b6b6b;stroke:#263238;stroke-miterlimit:10"></rect><rect x="305.36" y="345.47" width="30.95" height="23.59" rx="4.62" style="fill:#bdbdbd;stroke:#263238;stroke-miterlimit:10"></rect><rect x="160.24" y="377.18" width="30.95" height="23.59" rx="4.62" style="fill:#263238;stroke:#263238;stroke-linecap:round;stroke-linejoin:round"></rect><rect x="196.52" y="377.18" width="30.95" height="23.59" rx="4.62" style="fill:#6b6b6b;stroke:#263238;stroke-miterlimit:10"></rect><path d="M237.43,377.18h21.7a4.63,4.63,0,0,1,4.63,4.63v14.34a4.63,4.63,0,0,1-4.62,4.63h-21.7a4.62,4.62,0,0,1-4.62-4.62V381.81A4.62,4.62,0,0,1,237.43,377.18Z" style="fill:#6b6b6b;stroke:#263238;stroke-miterlimit:10"></path><rect x="269.08" y="377.18" width="30.95" height="23.59" rx="4.62" style="fill:#6b6b6b;stroke:#263238;stroke-miterlimit:10"></rect><rect x="160.24" y="408.9" width="30.95" height="23.59" rx="4.62" style="fill:#263238;stroke:#263238;stroke-linecap:round;stroke-linejoin:round"></rect><rect x="196.52" y="408.9" width="30.95" height="23.59" rx="4.62" style="fill:#6b6b6b;stroke:#263238;stroke-miterlimit:10"></rect><path d="M237.43,408.9h21.7a4.63,4.63,0,0,1,4.63,4.63v14.34a4.63,4.63,0,0,1-4.62,4.63h-21.7a4.62,4.62,0,0,1-4.62-4.62V413.52A4.62,4.62,0,0,1,237.43,408.9Z" style="fill:#6b6b6b;stroke:#263238;stroke-miterlimit:10"></path><rect x="269.08" y="408.9" width="30.95" height="23.59" rx="4.62" style="fill:#bdbdbd;stroke:#263238;stroke-miterlimit:10"></rect><path d="M331.62,377.18H310.05a4.7,4.7,0,0,0-4.69,4.7V427.8a4.69,4.69,0,0,0,4.69,4.69h21.57a4.69,4.69,0,0,0,4.69-4.69V381.88A4.7,4.7,0,0,0,331.62,377.18Z" style="fill:#bdbdbd;stroke:#263238;stroke-miterlimit:10"></path><rect x="305.36" y="254.39" width="30.95" height="20.04" rx="4.62" style="fill:#263238;stroke:#263238;stroke-linecap:round;stroke-linejoin:round"></rect><path d="M311.33,269.37a7,7,0,0,1,0-8.43,5.63,5.63,0,0,1,7.78,0,7,7,0,0,1,0,8.43,5.63,5.63,0,0,1-7.78,0Zm6.56-.92a6.15,6.15,0,0,0,0-6.6,3.2,3.2,0,0,0-2.67-1.2,3.23,3.23,0,0,0-2.68,1.2,5.24,5.24,0,0,0-1,3.3,5.14,5.14,0,0,0,1,3.3,3.55,3.55,0,0,0,5.34,0Z" style="fill:#fff"></path><path d="M323.08,270.57a.64.64,0,0,1-.22-.51v-9.51a1,1,0,0,1,.26-.74.84.84,0,0,1,.64-.27,1.18,1.18,0,0,1,.57.16,1.37,1.37,0,0,1,.5.46l5.72,8.32v-8.24a.64.64,0,0,1,.21-.51.73.73,0,0,1,.52-.19.75.75,0,0,1,.51.19.64.64,0,0,1,.22.51v9.5a1,1,0,0,1-.28.74,1,1,0,0,1-.69.27,1.21,1.21,0,0,1-1-.51l-5.74-8.32v8.14a.61.61,0,0,1-.22.51.78.78,0,0,1-.52.18A.78.78,0,0,1,323.08,270.57Z" style="fill:#fff"></path><path d="M169.87,300.28a1.22,1.22,0,0,1-.4-.51l-3.66-8.21v8.54a.47.47,0,0,1-.22.42.85.85,0,0,1-.51.15.9.9,0,0,1-.51-.15.47.47,0,0,1-.22-.42v-9.29a1,1,0,0,1,.36-.76,1.25,1.25,0,0,1,.83-.3,1.27,1.27,0,0,1,.74.23,1.56,1.56,0,0,1,.57.7l3.56,7.91,3.56-7.91a1.53,1.53,0,0,1,.55-.7,1.29,1.29,0,0,1,.74-.23,1.27,1.27,0,0,1,.84.3,1,1,0,0,1,.37.76v9.29a.5.5,0,0,1-.22.42.9.9,0,0,1-.51.15.91.91,0,0,1-.52-.15.49.49,0,0,1-.21-.42v-8.54l-3.66,8.21a1.24,1.24,0,0,1-.41.51.91.91,0,0,1-.53.18A.94.94,0,0,1,169.87,300.28Z" style="fill:#fff"></path><path d="M181.25,300.16a4.84,4.84,0,0,1-1.79-2.06,7,7,0,0,1-.59-2.91,7.06,7.06,0,0,1,.36-2.27,5.69,5.69,0,0,1,1-1.84,4.8,4.8,0,0,1,1.68-1.25,5.51,5.51,0,0,1,2.25-.45,5.68,5.68,0,0,1,2.83.73.58.58,0,0,1,.35.54.62.62,0,0,1-.18.44.55.55,0,0,1-.41.19.68.68,0,0,1-.26-.07l-.19-.1-.27-.12-.31-.12-.41-.12-.49-.07a6.08,6.08,0,0,0-.61,0,4,4,0,0,0-1.38.23,3.12,3.12,0,0,0-1,.65,3.82,3.82,0,0,0-.72,1,5,5,0,0,0-.42,1.24,7.66,7.66,0,0,0,0,2.81,5,5,0,0,0,.42,1.23,3.83,3.83,0,0,0,.72,1,3.19,3.19,0,0,0,1.06.64,3.93,3.93,0,0,0,1.41.24,3.76,3.76,0,0,0,1.22-.19,7.06,7.06,0,0,0,1.14-.53.59.59,0,0,1,.3-.08.58.58,0,0,1,.42.18.61.61,0,0,1,.17.42.72.72,0,0,1-.39.61,5.57,5.57,0,0,1-3.1.86A5.09,5.09,0,0,1,181.25,300.16Z" style="fill:#fff"></path><path d="M173.25,423.81h-5.4l-.93,2.39a.73.73,0,0,1-.73.52.84.84,0,0,1-.54-.2.62.62,0,0,1-.24-.49.83.83,0,0,1,.06-.29l3.73-9.26a1.93,1.93,0,0,1,.58-.88,1.32,1.32,0,0,1,.77-.21,1.34,1.34,0,0,1,.77.21,1.93,1.93,0,0,1,.58.88l3.73,9.26a.83.83,0,0,1,.06.29.6.6,0,0,1-.25.49.84.84,0,0,1-.54.2.74.74,0,0,1-.73-.52Zm-2.7-6.93-2.25,5.8h4.5Z" style="fill:#fff"></path><path d="M179.5,426.07a4.87,4.87,0,0,1-1.79-2.05,6.82,6.82,0,0,1-.59-2.91,7,7,0,0,1,.36-2.27,5.74,5.74,0,0,1,1-1.85,4.66,4.66,0,0,1,1.68-1.24,5.33,5.33,0,0,1,2.25-.46,5.71,5.71,0,0,1,2.83.73.62.62,0,0,1,.17,1,.52.52,0,0,1-.41.19.65.65,0,0,1-.26-.06l-.2-.1-.26-.13-.31-.11-.41-.12a3.85,3.85,0,0,0-.49-.08,6.08,6.08,0,0,0-.61,0,3.77,3.77,0,0,0-1.38.24,2.83,2.83,0,0,0-1,.65,3.82,3.82,0,0,0-.72,1,5,5,0,0,0-.42,1.23,7.18,7.18,0,0,0-.13,1.41,7,7,0,0,0,.13,1.41,4.75,4.75,0,0,0,.42,1.22,3.83,3.83,0,0,0,.72,1,3.21,3.21,0,0,0,1.06.65,4.17,4.17,0,0,0,1.41.23,3.78,3.78,0,0,0,1.22-.18,8,8,0,0,0,1.14-.53.58.58,0,0,1,.3-.09.54.54,0,0,1,.41.18.58.58,0,0,1,.18.42.73.73,0,0,1-.4.62,5.51,5.51,0,0,1-3.09.85A5,5,0,0,1,179.5,426.07Z" style="fill:#fff"></path><path d="M173.3,394.07a4.74,4.74,0,0,1-1.79-2.05,6.82,6.82,0,0,1-.6-2.91,6.71,6.71,0,0,1,.37-2.27,5.56,5.56,0,0,1,1-1.85,4.5,4.5,0,0,1,1.68-1.24,5.28,5.28,0,0,1,2.24-.46,5.66,5.66,0,0,1,2.83.73.6.6,0,0,1,.35.54.64.64,0,0,1-.17.44.55.55,0,0,1-.42.19.69.69,0,0,1-.26-.06l-.19-.1-.26-.13-.32-.11-.41-.12a3.85,3.85,0,0,0-.49-.08,5.74,5.74,0,0,0-.6,0,3.86,3.86,0,0,0-1.39.24,2.83,2.83,0,0,0-1,.65,3.79,3.79,0,0,0-.71,1,4.6,4.6,0,0,0-.43,1.23,7.18,7.18,0,0,0-.13,1.41,7,7,0,0,0,.13,1.41,4.41,4.41,0,0,0,.43,1.22,3.41,3.41,0,0,0,.72,1,3.07,3.07,0,0,0,1,.65,4.21,4.21,0,0,0,1.41.23,3.8,3.8,0,0,0,1.23-.18,7.48,7.48,0,0,0,1.13-.53.64.64,0,0,1,.3-.09.56.56,0,0,1,.42.18.61.61,0,0,1,.17.42.74.74,0,0,1-.39.62,5.51,5.51,0,0,1-3.09.85A5,5,0,0,1,173.3,394.07Z" style="fill:#fff"></path><path d="M169.32,326a3.69,3.69,0,0,1,0-4.38,2.38,2.38,0,0,1,2-.88,2.71,2.71,0,0,1,1.2.26,2.21,2.21,0,0,1,.85.71,3.29,3.29,0,0,1,.47,1,3.68,3.68,0,0,1,.16,1.11,3.31,3.31,0,0,1-.73,2.19,2.63,2.63,0,0,1-3.9,0Zm2.83-.34a1.76,1.76,0,0,0,.49-.79,3.91,3.91,0,0,0,.14-1.07,3.78,3.78,0,0,0-.14-1.06,1.66,1.66,0,0,0-.49-.79,1.36,1.36,0,0,0-1.75,0,1.64,1.64,0,0,0-.48.79,3.45,3.45,0,0,0-.14,1.06,3.56,3.56,0,0,0,.14,1.07,1.74,1.74,0,0,0,.48.79,1.36,1.36,0,0,0,1.75,0Zm-.76,6.57a.41.41,0,0,1-.15-.32.6.6,0,0,1,.09-.27l6.13-10.85a.53.53,0,0,1,.46-.3.42.42,0,0,1,.31.13.48.48,0,0,1,.13.33.79.79,0,0,1-.1.33l-6.11,10.78a.48.48,0,0,1-.43.3A.48.48,0,0,1,171.39,332.22Zm5.49-1a3.36,3.36,0,0,1-.72-2.21,3.26,3.26,0,0,1,.73-2.17,2.37,2.37,0,0,1,1.94-.88,2.71,2.71,0,0,1,1.2.26,2.25,2.25,0,0,1,.84.71,3.24,3.24,0,0,1,.47,1,3.77,3.77,0,0,1,.16,1.11,3.65,3.65,0,0,1-.31,1.54,2.63,2.63,0,0,1-.92,1.11,2.51,2.51,0,0,1-1.44.42A2.41,2.41,0,0,1,176.88,331.19Zm2.82-.35a1.68,1.68,0,0,0,.49-.78,4,4,0,0,0,.13-1.08,4.14,4.14,0,0,0-.07-.81,3,3,0,0,0-.25-.69,1.3,1.3,0,0,0-.47-.49,1.33,1.33,0,0,0-.7-.18,1.27,1.27,0,0,0-.88.32,1.74,1.74,0,0,0-.48.79,4.43,4.43,0,0,0,0,2.13,1.74,1.74,0,0,0,.48.79,1.27,1.27,0,0,0,.88.32A1.24,1.24,0,0,0,179.7,330.84Z" style="fill:#fff"></path><path d="M210.53,331.59a.66.66,0,0,1-.24-.52,1,1,0,0,1,.08-.34l3.84-8.82H209a.62.62,0,0,1-.47-.19.69.69,0,0,1,0-.88.58.58,0,0,1,.47-.19h6a1,1,0,0,1,.65.2.68.68,0,0,1,.23.54,1.75,1.75,0,0,1-.14.67l-4,9.3a.67.67,0,0,1-.67.44A.84.84,0,0,1,210.53,331.59Z" style="fill:#fff"></path><path d="M246.58,331.62a3.05,3.05,0,0,1-1.38-1.09,2.94,2.94,0,0,1-.51-1.73,2.91,2.91,0,0,1,.58-1.82,2.64,2.64,0,0,1,1.64-1,2.58,2.58,0,0,1-1.53-.92,2.66,2.66,0,0,1-.51-1.65,2.69,2.69,0,0,1,.5-1.65,3,3,0,0,1,1.32-1,5,5,0,0,1,1.86-.33,5.59,5.59,0,0,1,1.45.19,4,4,0,0,1,1.17.56,2.64,2.64,0,0,1,.8.95,2.92,2.92,0,0,1,.29,1.3,2.62,2.62,0,0,1-.53,1.66,2.56,2.56,0,0,1-1.5.91,3,3,0,0,1,1.65,1,3.14,3.14,0,0,1,0,3.52,3.16,3.16,0,0,1-1.38,1.09,5.78,5.78,0,0,1-4,0Zm3.63-1.33a1.74,1.74,0,0,0,.64-1.48,2,2,0,0,0-.65-1.58,2.43,2.43,0,0,0-1.64-.55,2.47,2.47,0,0,0-1.65.55,2,2,0,0,0-.65,1.58,1.83,1.83,0,0,0,.32,1.12,1.73,1.73,0,0,0,.82.65,3,3,0,0,0,1.16.2A2.63,2.63,0,0,0,250.21,330.29Zm0-5.5a1.71,1.71,0,0,0,.59-1.4,1.58,1.58,0,0,0-.63-1.38,2.63,2.63,0,0,0-1.57-.45,3.61,3.61,0,0,0-.82.1,2.58,2.58,0,0,0-.7.31,1.4,1.4,0,0,0-.49.58,1.86,1.86,0,0,0-.19.84,1.71,1.71,0,0,0,.59,1.4,2.49,2.49,0,0,0,1.61.48A2.45,2.45,0,0,0,250.17,324.79Z" style="fill:#fff"></path><path d="M280.83,331.39a.49.49,0,0,1-.29-.49.75.75,0,0,1,.17-.49.49.49,0,0,1,.4-.23.58.58,0,0,1,.2.05,4.54,4.54,0,0,0,2,.47,3.48,3.48,0,0,0,1-.12,2.34,2.34,0,0,0,.73-.33,1.92,1.92,0,0,0,.52-.54,3.91,3.91,0,0,0,.37-.7,5.5,5.5,0,0,0,.22-.87,8,8,0,0,0,.1-1c0-.32,0-.69,0-1.09a2.11,2.11,0,0,1-.94,1.13,3.28,3.28,0,0,1-1.78.49,3.47,3.47,0,0,1-2.58-1,3.51,3.51,0,0,1-1-2.57,3.67,3.67,0,0,1,1-2.67,3.71,3.71,0,0,1,2.75-1,4.66,4.66,0,0,1,1.64.28,3.37,3.37,0,0,1,1.19.75,4,4,0,0,1,.75,1.14,5.51,5.51,0,0,1,.42,1.38,9.43,9.43,0,0,1,.13,1.55c0,.46,0,.88,0,1.28a10.62,10.62,0,0,1-.17,1.27,8.41,8.41,0,0,1-.33,1.21,5,5,0,0,1-.57,1.06,3.42,3.42,0,0,1-.82.87,3.79,3.79,0,0,1-1.14.56,5.5,5.5,0,0,1-3.93-.38Zm4.62-5.49a2.82,2.82,0,0,0,0-3.54,2.09,2.09,0,0,0-1.69-.7,2.2,2.2,0,0,0-1.73.67,2.54,2.54,0,0,0-.6,1.78,2.73,2.73,0,0,0,.55,1.77,1.91,1.91,0,0,0,1.63.69A2.38,2.38,0,0,0,285.45,325.9Z" style="fill:#fff"></path><path d="M213.73,362.61a.65.65,0,0,1-.23-.52v-1.73H209a.74.74,0,0,1-.59-.25.8.8,0,0,1-.22-.57.91.91,0,0,1,.15-.49l4.28-6.73a1.45,1.45,0,0,1,1.28-.74,1.18,1.18,0,0,1,.79.27,1.06,1.06,0,0,1,.31.82v6.54h1.14a.54.54,0,0,1,.42.17.59.59,0,0,1,.15.4.59.59,0,0,1-.15.41.54.54,0,0,1-.42.17H215v1.73a.65.65,0,0,1-.23.52.81.81,0,0,1-.52.19A.89.89,0,0,1,213.73,362.61Zm-.23-3.4v-6l-3.75,6Z" style="fill:#fff"></path><path d="M246.88,362.65a5,5,0,0,1-1.5-.94.41.41,0,0,1-.16-.34.72.72,0,0,1,.21-.49.62.62,0,0,1,.46-.23.39.39,0,0,1,.27.1,3.67,3.67,0,0,0,2.5.94,2.28,2.28,0,0,0,1.75-.63,2.51,2.51,0,0,0,.6-1.78,2.41,2.41,0,0,0-.59-1.68,2,2,0,0,0-1.56-.64,2.92,2.92,0,0,0-1.24.29,2.75,2.75,0,0,0-1,.72.42.42,0,0,1-.31.1,1.39,1.39,0,0,1-.64-.17c-.21-.12-.32-.25-.32-.41v-5.12c0-.47.25-.71.76-.71h5.15a.52.52,0,0,1,.42.18.6.6,0,0,1,.16.42.64.64,0,0,1-.15.42.55.55,0,0,1-.43.17h-4.66v3.79l.09-.1a1.34,1.34,0,0,1,.29-.22,3.92,3.92,0,0,1,.47-.27,3.42,3.42,0,0,1,.7-.22,4.26,4.26,0,0,1,.89-.1,3.26,3.26,0,0,1,2.51,1,3.6,3.6,0,0,1,1,2.58,3.47,3.47,0,0,1-1.07,2.65,3.86,3.86,0,0,1-2.74,1A4.94,4.94,0,0,1,246.88,362.65Z" style="fill:#fff"></path><path d="M282.45,362.68a3.15,3.15,0,0,1-1.18-.75,3.8,3.8,0,0,1-.76-1.13,5.71,5.71,0,0,1-.42-1.39,9.38,9.38,0,0,1-.12-1.55c0-.45,0-.88,0-1.27a8.72,8.72,0,0,1,.17-1.27,6.54,6.54,0,0,1,.33-1.22,5.16,5.16,0,0,1,.56-1.06,3.57,3.57,0,0,1,2-1.42,5,5,0,0,1,1.5-.21A5.42,5.42,0,0,1,287,352a.52.52,0,0,1,.29.5.83.83,0,0,1-.17.49.49.49,0,0,1-.4.22.39.39,0,0,1-.2-.05,4.77,4.77,0,0,0-2-.47,3.53,3.53,0,0,0-.95.12,2.67,2.67,0,0,0-.72.34,2.1,2.1,0,0,0-.53.54,3.09,3.09,0,0,0-.36.7,5.1,5.1,0,0,0-.22.86c-.05.33-.09.66-.11,1s0,.68,0,1.09a2.08,2.08,0,0,1,.94-1.13,3.19,3.19,0,0,1,1.78-.49,3.43,3.43,0,0,1,2.58,1,3.48,3.48,0,0,1,1,2.57,3.65,3.65,0,0,1-1,2.66,3.73,3.73,0,0,1-2.76,1A4.41,4.41,0,0,1,282.45,362.68Zm-.09-5.2a2.82,2.82,0,0,0,0,3.55,2.13,2.13,0,0,0,1.69.69,2.22,2.22,0,0,0,1.73-.66,2.57,2.57,0,0,0,.6-1.79,2.79,2.79,0,0,0-.54-1.77,2,2,0,0,0-1.63-.69A2.41,2.41,0,0,0,282.36,357.48Z" style="fill:#fff"></path><path d="M212.29,395.09a.66.66,0,0,1-.24-.55v-8.81l-1.69,1.09a.59.59,0,0,1-.31.09.56.56,0,0,1-.4-.17.58.58,0,0,1-.17-.41.54.54,0,0,1,.27-.46l2.69-1.68a.81.81,0,0,1,.43-.11.72.72,0,0,1,.53.2.74.74,0,0,1,.22.57v9.69a.66.66,0,0,1-.23.55.85.85,0,0,1-.56.2A.8.8,0,0,1,212.29,395.09Z" style="fill:#fff"></path><path d="M251.69,388.87a6.79,6.79,0,0,1-1.43,1.73l-3.59,3.5h4.73a.61.61,0,0,1,.45.17.6.6,0,0,1,.16.42.57.57,0,0,1-.16.42.58.58,0,0,1-.45.18H246a1.18,1.18,0,0,1-.75-.23.72.72,0,0,1-.28-.58,1.08,1.08,0,0,1,.37-.77l4.08-4.13a6.12,6.12,0,0,0,.93-1.2,2.24,2.24,0,0,0,.3-1.09,2,2,0,0,0-.6-1.5,2.05,2.05,0,0,0-1.47-.57,4.1,4.1,0,0,0-1,.1,3.66,3.66,0,0,0-.63.17,5.28,5.28,0,0,0-.55.29L246,386a.59.59,0,0,1-.22,0,.57.57,0,0,1-.44-.2.61.61,0,0,1-.19-.45.54.54,0,0,1,.3-.48,7.47,7.47,0,0,1,1.49-.72,5.27,5.27,0,0,1,1.75-.25,3.45,3.45,0,0,1,2.45.92,3,3,0,0,1,1,2.24A3.71,3.71,0,0,1,251.69,388.87Z" style="fill:#fff"></path><path d="M281,394.87a.64.64,0,0,1-.41-.58.65.65,0,0,1,.18-.46.57.57,0,0,1,.43-.2.93.93,0,0,1,.19,0,5.09,5.09,0,0,0,2.16.52,2.69,2.69,0,0,0,1.69-.49,1.61,1.61,0,0,0,.65-1.37,2,2,0,0,0-.75-1.64,2.87,2.87,0,0,0-1.9-.61h-.57a.52.52,0,0,1-.41-.17.55.55,0,0,1-.15-.4.59.59,0,0,1,.15-.41.49.49,0,0,1,.41-.17h.51a2.87,2.87,0,0,0,1.76-.5,1.72,1.72,0,0,0,.67-1.45,1.61,1.61,0,0,0-.61-1.33,2.36,2.36,0,0,0-1.48-.47,5,5,0,0,0-2.29.54.58.58,0,0,1-.19,0,.53.53,0,0,1-.42-.23.76.76,0,0,1-.18-.49.49.49,0,0,1,.26-.45,4.62,4.62,0,0,1,1.21-.45,6.22,6.22,0,0,1,1.63-.23,5,5,0,0,1,1.84.32,3,3,0,0,1,1.31,1,2.86,2.86,0,0,1,.5,1.69,2.36,2.36,0,0,1-.52,1.57,3,3,0,0,1-1.38.92,2.7,2.7,0,0,1,1.59,1,3,3,0,0,1,.58,1.86,3.12,3.12,0,0,1-.32,1.42,2.67,2.67,0,0,1-.86,1,4.51,4.51,0,0,1-1.22.55,5.57,5.57,0,0,1-1.44.18A5.45,5.45,0,0,1,281,394.87Z" style="fill:#fff"></path><path d="M210.68,425.65a3.22,3.22,0,0,1-1.14-.85,4.68,4.68,0,0,1-.71-1.29,7.08,7.08,0,0,1-.39-1.57,13.34,13.34,0,0,1-.11-1.75q0-5.78,3.95-5.78c2.62,0,3.94,1.93,3.94,5.78a13.57,13.57,0,0,1-.11,1.75,7.72,7.72,0,0,1-.38,1.56,4.42,4.42,0,0,1-.72,1.29,3.15,3.15,0,0,1-1.13.85,4.22,4.22,0,0,1-3.2,0Zm2.38-1.11a1.92,1.92,0,0,0,.59-.4,2.16,2.16,0,0,0,.41-.62,4.16,4.16,0,0,0,.28-.74,6.14,6.14,0,0,0,.16-.85c0-.32.07-.61.08-.88s0-.55,0-.86,0-.62,0-.89,0-.57-.08-.89a5.8,5.8,0,0,0-.17-.85,4.11,4.11,0,0,0-.27-.74,2.28,2.28,0,0,0-.42-.6,1.64,1.64,0,0,0-.59-.39,1.86,1.86,0,0,0-.77-.15,1.94,1.94,0,0,0-.78.15,1.83,1.83,0,0,0-.58.38,2.26,2.26,0,0,0-.41.6,3,3,0,0,0-.28.74,6,6,0,0,0-.16.86c0,.32-.07.61-.09.89s0,.57,0,.89,0,.6,0,.87,0,.56.08.87a5.87,5.87,0,0,0,.16.85,4.25,4.25,0,0,0,.28.75,2.4,2.4,0,0,0,.41.61,1.81,1.81,0,0,0,.59.4,2.1,2.1,0,0,0,1.56,0Z" style="fill:#fff"></path><path d="M247.11,422a1.81,1.81,0,0,1-.55-1.3,1.76,1.76,0,0,1,.55-1.27,1.94,1.94,0,0,1,1.44-.55,2,2,0,0,1,1.43.54,1.74,1.74,0,0,1,.56,1.28A1.81,1.81,0,0,1,250,422a2.19,2.19,0,0,1-2.88,0Z" style="fill:#fff"></path><path d="M319.71,290.31a1.74,1.74,0,0,1,0-2.5,2.12,2.12,0,0,1,2.79,0,1.74,1.74,0,0,1,0,2.51,2.11,2.11,0,0,1-2.8,0Z" style="fill:#fff"></path><path d="M319.71,300.75a1.76,1.76,0,0,1-.53-1.27,1.69,1.69,0,0,1,.53-1.23,1.88,1.88,0,0,1,1.4-.53,1.9,1.9,0,0,1,1.39.52,1.67,1.67,0,0,1,.54,1.24,1.72,1.72,0,0,1-.53,1.27,2.11,2.11,0,0,1-2.8,0Z" style="fill:#fff"></path><path d="M278.57,419.82a.9.9,0,0,1-.28-.65.87.87,0,0,1,.3-.69,1.06,1.06,0,0,1,.73-.25h11.13a1.12,1.12,0,0,1,.73.25.87.87,0,0,1,.3.69.85.85,0,0,1-.3.66,1.12,1.12,0,0,1-.73.26H279.26A1,1,0,0,1,278.57,419.82Zm0,5.13a.84.84,0,0,1-.28-.64.87.87,0,0,1,.3-.68,1.07,1.07,0,0,1,.73-.26h11.17a1,1,0,0,1,.7.26.86.86,0,0,1,.29.68.82.82,0,0,1-.3.65,1,1,0,0,1-.72.26h-11.2A1,1,0,0,1,278.57,425Z" style="fill:#fff"></path><path d="M320.23,327.26l-3.13,4.2a.78.78,0,0,1-.63.36.69.69,0,0,1-.48-.2.64.64,0,0,1-.21-.47.66.66,0,0,1,.16-.43l3.48-4.56-3.28-4.47a.5.5,0,0,1-.12-.34.75.75,0,0,1,.25-.53.8.8,0,0,1,.56-.23.73.73,0,0,1,.61.34l3,4.07,3-4.06a.8.8,0,0,1,.65-.36.65.65,0,0,1,.46.18.56.56,0,0,1,.19.43.61.61,0,0,1-.14.4l-3.37,4.53,3.35,4.57a.75.75,0,0,1,.14.41.61.61,0,0,1-.25.49.85.85,0,0,1-.56.21.69.69,0,0,1-.59-.31Z" style="fill:#fff"></path><path d="M320,414.47a1.18,1.18,0,0,1-.31-.82v-5.19h-5.4a1.21,1.21,0,0,1-.83-.31,1,1,0,0,1-.35-.77,1,1,0,0,1,.34-.77,1.19,1.19,0,0,1,.84-.29h5.4v-5.24a1.17,1.17,0,0,1,.31-.81,1,1,0,0,1,.8-.34,1.06,1.06,0,0,1,.8.33,1.13,1.13,0,0,1,.31.82v5.24h5.41a1.26,1.26,0,0,1,.84.29,1,1,0,0,1,.35.77,1,1,0,0,1-.35.77,1.18,1.18,0,0,1-.84.31h-5.41v5.19a1.12,1.12,0,0,1-.31.8,1,1,0,0,1-.8.34A1.06,1.06,0,0,1,320,414.47Z" style="fill:#fff"></path><path d="M170.06,361.49a.8.8,0,0,1-.22-.59v-3.78h-3.93a.88.88,0,0,1-.61-.22.76.76,0,0,1,0-1.12.87.87,0,0,1,.62-.22h3.93v-3.8a.86.86,0,0,1,.22-.6.82.82,0,0,1,1.16,0,.85.85,0,0,1,.23.6v3.8h3.94a.87.87,0,0,1,.6.22.7.7,0,0,1,.26.56.72.72,0,0,1-.25.56.88.88,0,0,1-.61.22h-3.94v3.78a.83.83,0,0,1-.23.58.73.73,0,0,1-.58.25A.75.75,0,0,1,170.06,361.49Z" style="fill:#fff"></path><path d="M314.71,358.29a.5.5,0,0,1,0-.85,1.12,1.12,0,0,1,.68-.18h10.77a1.09,1.09,0,0,1,.67.18.55.55,0,0,1,.24.43.52.52,0,0,1-.24.42,1.09,1.09,0,0,1-.67.18H315.39A1.12,1.12,0,0,1,314.71,358.29Z" style="fill:#fff"></path><path d="M178,363.62a.58.58,0,0,1-.16-.42.6.6,0,0,1,.16-.43.58.58,0,0,1,.45-.18h7.28a.56.56,0,0,1,.46.19.6.6,0,0,1,.16.42.57.57,0,0,1-.16.42.59.59,0,0,1-.46.18h-7.28A.58.58,0,0,1,178,363.62Z" style="fill:#fff"></path><path d="M173.78,365.79a.52.52,0,0,1-.55.1c-.14-.08-.2-.26-.19-.52a2.26,2.26,0,0,1,.35-1l8-13.89a2,2,0,0,1,.66-.78c.23-.15.41-.18.55-.1s.2.26.18.52a2.13,2.13,0,0,1-.35,1l-8,13.89A2.31,2.31,0,0,1,173.78,365.79Z" style="fill:#fff"></path><path d="M314.71,294.79a.5.5,0,0,1,0-.85,1.12,1.12,0,0,1,.68-.18h10.77a1.09,1.09,0,0,1,.67.18.55.55,0,0,1,.24.43.52.52,0,0,1-.24.42,1.09,1.09,0,0,1-.67.18H315.39A1.12,1.12,0,0,1,314.71,294.79Z" style="fill:#fff"></path><path d="M206.54,300.28a1.24,1.24,0,0,1-.41-.51l-3.65-8.21v8.54a.5.5,0,0,1-.22.42.88.88,0,0,1-.51.15.85.85,0,0,1-.51-.15.47.47,0,0,1-.22-.42v-9.29a1,1,0,0,1,.35-.76A1.32,1.32,0,0,1,203,290a1.54,1.54,0,0,1,.56.7l3.56,7.91,3.57-7.91a1.47,1.47,0,0,1,.55-.7,1.32,1.32,0,0,1,1.58.07,1,1,0,0,1,.36.76v9.29a.47.47,0,0,1-.22.42.94.94,0,0,1-1,0,.47.47,0,0,1-.22-.42v-8.54L208,299.77a1.24,1.24,0,0,1-.41.51.89.89,0,0,1-1.07,0Z" style="fill:#fff"></path><path d="M216.19,300.55A.68.68,0,0,1,216,300v-9.68a.69.69,0,0,1,.23-.54.77.77,0,0,1,.56-.23h3.4a8.76,8.76,0,0,1,1.19.07,5.33,5.33,0,0,1,1.07.25,2.9,2.9,0,0,1,.91.49,2.35,2.35,0,0,1,.61.82,2.94,2.94,0,0,1,.23,1.19,2.4,2.4,0,0,1-.6,1.65,3,3,0,0,1-1.77.91v0a2.57,2.57,0,0,1,2.08,2.52l.29,2.46V300a.64.64,0,0,1-.22.51.75.75,0,0,1-.52.2.91.91,0,0,1-.57-.19.67.67,0,0,1-.29-.52l-.24-2.19a6.4,6.4,0,0,0-.19-1.11,1.59,1.59,0,0,0-.35-.67,1.26,1.26,0,0,0-.62-.36,4.43,4.43,0,0,0-1-.09h-2.62V300a.68.68,0,0,1-.24.56.85.85,0,0,1-.56.2A.83.83,0,0,1,216.19,300.55Zm3.64-6.14c.3,0,.58,0,.82,0a4.09,4.09,0,0,0,.74-.16,1.9,1.9,0,0,0,.62-.32,1.43,1.43,0,0,0,.4-.55,2,2,0,0,0,.16-.83,2.09,2.09,0,0,0-.1-.69,1.18,1.18,0,0,0-.31-.48,2.38,2.38,0,0,0-.43-.3,1.89,1.89,0,0,0-.55-.16l-.56-.07h-3.08v3.61Z" style="fill:#fff"></path><path d="M243.21,300.28a1.16,1.16,0,0,1-.41-.51l-3.66-8.21v8.54a.49.49,0,0,1-.21.42.91.91,0,0,1-.52.15.9.9,0,0,1-.51-.15.5.5,0,0,1-.22-.42v-9.29a1,1,0,0,1,.36-.76,1.27,1.27,0,0,1,.84-.3,1.29,1.29,0,0,1,.74.23,1.54,1.54,0,0,1,.56.7l3.56,7.91,3.56-7.91a1.48,1.48,0,0,1,.56-.7,1.32,1.32,0,0,1,1.58.07,1,1,0,0,1,.36.76v9.29a.47.47,0,0,1-.22.42.9.9,0,0,1-.51.15.91.91,0,0,1-.52-.15.49.49,0,0,1-.21-.42v-8.54l-3.66,8.21a1.16,1.16,0,0,1-.41.51.87.87,0,0,1-1.06,0Z" style="fill:#fff"></path><path d="M251.72,297a.46.46,0,0,1-.18-.38.51.51,0,0,1,.17-.4.65.65,0,0,1,.46-.16h3.49a.65.65,0,0,1,.46.16.51.51,0,0,1,.17.4.46.46,0,0,1-.18.38.68.68,0,0,1-.45.15h-3.49A.68.68,0,0,1,251.72,297Z" style="fill:#fff"></path><path d="M279.87,300.28a1.22,1.22,0,0,1-.4-.51l-3.66-8.21v8.54a.47.47,0,0,1-.22.42.85.85,0,0,1-.51.15.9.9,0,0,1-.51-.15.47.47,0,0,1-.22-.42v-9.29a1,1,0,0,1,.36-.76,1.25,1.25,0,0,1,.83-.3,1.27,1.27,0,0,1,.74.23,1.56,1.56,0,0,1,.57.7l3.56,7.91,3.56-7.91a1.53,1.53,0,0,1,.55-.7,1.33,1.33,0,0,1,1.59.07,1,1,0,0,1,.36.76v9.29a.5.5,0,0,1-.22.42.9.9,0,0,1-.51.15.91.91,0,0,1-.52-.15.49.49,0,0,1-.21-.42v-8.54l-3.66,8.21a1.24,1.24,0,0,1-.41.51.91.91,0,0,1-.53.18A1,1,0,0,1,279.87,300.28Z" style="fill:#fff"></path><path d="M292.71,300.55a.57.57,0,0,1-.16-.42v-2.72h-2.83a.62.62,0,0,1-.43-.16.5.5,0,0,1-.19-.4.51.51,0,0,1,.18-.41.65.65,0,0,1,.44-.15h2.83v-2.74a.6.6,0,0,1,.16-.43.57.57,0,0,1,.42-.17.52.52,0,0,1,.41.17.6.6,0,0,1,.17.43v2.74h2.83a.69.69,0,0,1,.44.15.51.51,0,0,1,.18.41.52.52,0,0,1-.18.4.63.63,0,0,1-.44.16h-2.83v2.72a.61.61,0,0,1-.17.42.55.55,0,0,1-.41.17A.54.54,0,0,1,292.71,300.55Z" style="fill:#fff"></path><polyline points="279.11 263.78 283.61 269.78 288.61 260.78 293.61 260.78" style="fill:none;stroke:#fff;stroke-miterlimit:10"></polyline></g><g id="freepik--Character--inject-54"><path d="M304.77,439.32s-4.45,6.77-8.08,9.63-12.13,7-14.5,8.89-1.33,3.62-.51,4.44,11.77,1.43,17.73,1.44,16.74-2.53,16.74-2.53,4.75.76,6,.16,2-2,2.16-4.07-.5-14-.5-14Z" style="fill:#fff;stroke:#263238;stroke-linecap:round;stroke-linejoin:round"></path><path d="M317.55,458c-4.64.75-5.55,1.8-14.52,3.14-7.38,1.11-18.32-.25-22.3-1a2.92,2.92,0,0,0,.95,2.08c.82.83,11.77,1.43,17.73,1.44s16.74-2.53,16.74-2.53,4.75.76,6,.16,1.95-1.94,2.15-4A61.67,61.67,0,0,0,317.55,458Z" style="fill:#263238;stroke:#263238;stroke-linecap:round;stroke-linejoin:round"></path><path d="M308.63,444.33s-5.14-2.3-8.6,1.56" style="fill:none;stroke:#263238;stroke-linecap:round;stroke-linejoin:round;stroke-width:2px"></path><path d="M302.77,442.39s4,3.09,3.43,6.38" style="fill:none;stroke:#263238;stroke-linecap:round;stroke-linejoin:round;stroke-width:2px"></path><path d="M304.79,447.9s-4-1.88-6.8,1.33" style="fill:none;stroke:#263238;stroke-linecap:round;stroke-linejoin:round;stroke-width:2px"></path><path d="M300.18,446.31s3.11,2.55,2.67,5.28" style="fill:none;stroke:#263238;stroke-linecap:round;stroke-linejoin:round;stroke-width:2px"></path><path d="M301.82,451.53s-3.74-1.77-9.63.31" style="fill:none;stroke:#263238;stroke-linecap:round;stroke-linejoin:round;stroke-width:2px"></path><path d="M297.14,449.92a2.65,2.65,0,0,1-.53,4.12" style="fill:none;stroke:#263238;stroke-linecap:round;stroke-linejoin:round;stroke-width:2px"></path><path d="M295.16,287.32s-.57,49.74.93,65.29,4.46,40.58,6.93,56.13,1,24.06,1,24.06-1.61-.5-1.48,1.63.69,6.38.69,6.38a46.57,46.57,0,0,0,9.49,3.45,61.16,61.16,0,0,0,11.47,1.17s.32-8.67.4-13.09,0-7.69,0-7.69l.89-49.25s7.77,53.68,8.2,56.79-1.38,5.23-1.1,7.36,1.18,6.71,1.18,6.71,4.75-3.43,9.9-1.94a56.74,56.74,0,0,1,10.6,4.59s.83-1,1.89-5.88,0-8.18-.11-11.78-1.91-56.13-1.56-57.44S357,324.07,357,324.07s1.81-19.3,1.44-25.69a112.36,112.36,0,0,0-1.71-13.09s-29.65,1.26-44.21,1.24-17.64-.52-17.64-.52Z" style="fill:#82C518;stroke:#263238;stroke-linecap:round;stroke-linejoin:round"></path><path d="M356.71,285.29s-29.65,1.26-44.21,1.24-17.64-.52-17.64-.52l.3,1.31s0,1.5,0,4.07c2.81.84,9.9,2.18,26.15,1.86,19.47-.38,32.43-2.82,36.17-3.62C357.06,287.06,356.71,285.29,356.71,285.29Z" style="fill:#263238;stroke:#263238;stroke-linecap:round;stroke-linejoin:round"></path><polygon points="318.83 294.06 310.72 294.05 310.8 289.52 318.91 289.54 318.83 294.06" style="fill:#fff;stroke:#263238;stroke-linecap:round;stroke-linejoin:round"></polygon><path d="M316.1,319.19l5.77,4.33s1.64,34.86,3.6,51.88" style="fill:none;stroke:#263238;stroke-linecap:round;stroke-linejoin:round"></path><line x1="311.81" y1="315.98" x2="313.72" y2="317.41" style="fill:none;stroke:#263238;stroke-linecap:round;stroke-linejoin:round"></line><path d="M353.26,413.89c.06,1.2.09,2.35.1,3.44" style="fill:none;stroke:#263238;stroke-linecap:round;stroke-linejoin:round"></path><path d="M353.43,339.53c-.83,14.31-1.8,30-2.38,35.58-.95,9,1.08,23.37,1.95,34.76" style="fill:none;stroke:#263238;stroke-linecap:round;stroke-linejoin:round"></path><path d="M354.93,312.29s-.6,11.41-1.36,24.66" style="fill:none;stroke:#263238;stroke-linecap:round;stroke-linejoin:round"></path><path d="M335.67,293.93s0,7.52.06,14.89" style="fill:none;stroke:#263238;stroke-linecap:round;stroke-linejoin:round"></path><line x1="337.45" y1="293.93" x2="339.56" y2="302.61" style="fill:none;stroke:#263238;stroke-linecap:round;stroke-linejoin:round"></line><line x1="299.9" y1="294.03" x2="297.92" y2="305.16" style="fill:none;stroke:#263238;stroke-linecap:round;stroke-linejoin:round"></line><line x1="301.84" y1="294.2" x2="301.41" y2="299.93" style="fill:none;stroke:#263238;stroke-linecap:round;stroke-linejoin:round"></line><path d="M313.48,294.71s-.92,15.54-.13,16.69a27.67,27.67,0,0,0,2.85,3.11" style="fill:none;stroke:#263238;stroke-linecap:round;stroke-linejoin:round"></path><path d="M351.08,307.91a17.55,17.55,0,0,0,3.23,2.57" style="fill:none;stroke:#263238;stroke-linecap:round;stroke-linejoin:round"></path><path d="M345.41,292.31a22,22,0,0,0,4.2,13.93" style="fill:none;stroke:#263238;stroke-linecap:round;stroke-linejoin:round"></path><path d="M308.72,204.79s-19.79,8.41-20.05,9.64-.9,50.17-.9,50.17-11.86-.27-13.18,5.6,1.75,10.29,6.8,12.5,11.4-1.21,11.4-1.21-1.52,3.91-.58,5.38,3.59,2.21,4.32,2.21,20.56.77,34.12.55S351,288,353.24,285.51s.21-11.51.21-11.51l9.2,0s-.37,7.1,8.32,8.58,13.93-7.57,9.87-23.73-18.82-44.08-21.19-47-20.94-10.33-20.94-10.33Z" style="fill:#fff;stroke:#263238;stroke-linecap:round;stroke-linejoin:round"></path><path d="M360,266.81s9.56-9.32,15.51-7.34" style="fill:none;stroke:#263238;stroke-linecap:round;stroke-linejoin:round"></path><path d="M361.47,263.37s5.13-6.21,9-6.69" style="fill:none;stroke:#263238;stroke-linecap:round;stroke-linejoin:round"></path><line x1="292.79" y1="281.49" x2="293.06" y2="266.21" style="fill:none;stroke:#263238;stroke-linecap:round;stroke-linejoin:round"></line><polygon points="313.01 209.62 316.07 216.05 310.17 279.12 315.25 287.95 321.15 277.69 318.75 216.69 322.55 209 317.58 202.25 313.01 209.62" style="fill:#263238;stroke:#263238;stroke-linecap:round;stroke-linejoin:round"></polygon><path d="M335.59,172.18l-.44,24.17-16.78,9.93L311,198.71l.14-7.57s2.13,3.14,8.74.75,8.84-4.23,9.47-9,.36-19.74.36-19.74h6.57Z" style="fill:#fff;stroke:#263238;stroke-linecap:round;stroke-linejoin:round"></path><polygon points="331.42 181.46 335.42 181.46 335.59 172.18 336.3 163.14 331.02 163.13 331.42 181.46" style="fill:#263238;stroke:#263238;stroke-linecap:round;stroke-linejoin:round"></polygon><path d="M337.75,164.27l-.16,9a3.36,3.36,0,0,1-2.4,1.84,5,5,0,0,1-3.27-1.3l.18-9.59Z" style="fill:#fff;stroke:#263238;stroke-linecap:round;stroke-linejoin:round"></path><path d="M318.14,197h0a13.28,13.28,0,0,1-13.23-13.64l.37-20.61,27,0-.37,20.61A13.81,13.81,0,0,1,318.14,197Z" style="fill:#fff;stroke:#263238;stroke-linecap:round;stroke-linejoin:round"></path><path d="M317.34,197h1.6a13,13,0,0,0,12.91-12.79l.38-21.42h-8.7l0,1.84a4.16,4.16,0,0,0,1.58,3.33c1.79,1.66,3.59,3.51,3.59,3.51s.39,8.67-1.13,12-4.78,1.65-4.78,1.65-4.31-5.21-9.76-5a10.73,10.73,0,0,0-8.11,4.07A12.51,12.51,0,0,0,317.34,197Z" style="fill:#263238;stroke:#263238;stroke-linecap:round;stroke-linejoin:round"></path><polyline points="311.72 170.11 310.8 180.63 316.49 178.97" style="fill:none;stroke:#263238;stroke-linecap:round;stroke-linejoin:round"></polyline><path d="M308.92,183.76s2.12,3.69,9.84.38" style="fill:none;stroke:#fff;stroke-linecap:round;stroke-linejoin:round"></path><path d="M318.81,171.69c0,.87-.48,1.57-1,1.57s-1-.71-1-1.57.48-1.57,1-1.57S318.82,170.82,318.81,171.69Z" style="fill:#263238"></path><path d="M309.52,171.67c0,.87-.48,1.57-1,1.57s-1-.7-1-1.57.48-1.57,1-1.57S309.53,170.81,309.52,171.67Z" style="fill:#263238"></path><path d="M315.6,167.35s4-1.84,6.55,1.3" style="fill:none;stroke:#263238;stroke-linecap:round;stroke-linejoin:round"></path><path d="M311,167.89s-3.43-2.21-4.21.37" style="fill:none;stroke:#263238;stroke-linecap:round;stroke-linejoin:round"></path><path d="M312,141.82s-5,2.09-6.52,5.85-1.95,16.71-1.95,16.71-9.34,1.87-7.9,2.08,47.56.08,47.56.08c-1.41-2.51-2.24-2.1-2.62-4.19s-.6-12.54-2.59-16.72S321,136.2,312,141.82Z" style="fill:#82C518;stroke:#263238;stroke-linecap:round;stroke-linejoin:round"></path><path d="M319.15,141.42a15,15,0,0,0-2.56,1.28,7,7,0,0,0-2.43,2.88s6.5.17,6.45,3.38-.27,14.93-.27,14.93" style="fill:none;stroke:#263238;stroke-linecap:round;stroke-linejoin:round"></path><polygon points="310.87 196.86 318.77 204.07 335.57 193.58 338.71 201.52 325.51 214.78 318.37 206.28 310.76 212.91 308.72 204.79 310.87 196.86" style="fill:#fff;stroke:#263238;stroke-linecap:round;stroke-linejoin:round"></polygon><path d="M298.61,248.87s5.16,9.66,8.65,13.59,5.11,4.1,5.11,4.1L303,268l-7.21-22.43Z" style="fill:none;stroke:#263238;stroke-linecap:round;stroke-linejoin:round"></path><polygon points="254.03 225.23 279.21 274.2 307.59 271.14 287.75 222.18 254.03 225.23" style="fill:#263238;stroke:#263238;stroke-linecap:round;stroke-linejoin:round"></polygon><path d="M268.15,262.06s-2,.89-1.93,2.29.18,2.07,1.32,1.82,6.86-3.68,8-4.69,2-2,.54-2S270.6,260.79,268.15,262.06Z" style="fill:#fff;stroke:#263238;stroke-linecap:round;stroke-linejoin:round"></path><path d="M267.85,266.16s.27,3.36,1,3.68,8.24-4.32,9.52-5.27,1.6-1.8.67-2.33-7.16,2.32-7.69,2.53Z" style="fill:#fff;stroke:#263238;stroke-linecap:round;stroke-linejoin:round"></path><path d="M268.84,269.84a14.49,14.49,0,0,0,2.26,2.54c.72.43,7.93-4.43,8.78-5.38s.88-2.22.26-2.43a4.72,4.72,0,0,0-1.78,0S270.74,268.89,268.84,269.84Z" style="fill:#fff;stroke:#263238;stroke-linecap:round;stroke-linejoin:round"></path><path d="M271.1,272.38a6.56,6.56,0,0,0,2.17,1.49c1,.32,5.26-1.69,6.76-3.38s-.9-2.33-.9-2.33S272.47,271.86,271.1,272.38Z" style="fill:#fff;stroke:#263238;stroke-linecap:round;stroke-linejoin:round"></path><path d="M268.16,228.64a1.39,1.39,0,0,1-.19,1.91,1.33,1.33,0,0,1-1.83-.5,1.39,1.39,0,0,1,.19-1.91A1.34,1.34,0,0,1,268.16,228.64Z" style="fill:#fff"></path><path d="M279.4,227.13a1.38,1.38,0,0,1-.19,1.91,1.33,1.33,0,0,1-1.82-.5,1.39,1.39,0,0,1,.19-1.91A1.32,1.32,0,0,1,279.4,227.13Z" style="fill:#fff"></path><path d="M352.08,226.38c-1.15,4.09-2.48,9.18-2.61,11.45-.24,4.09,10.48,29,10.48,29l2.7,7.21" style="fill:#fff;stroke:#263238;stroke-linecap:round;stroke-linejoin:round"></path><path d="M353.83,220.49s-.4,1.27-.95,3.14" style="fill:#fff;stroke:#263238;stroke-linecap:round;stroke-linejoin:round"></path><path d="M363.51,267s4.06-.64,5.79,2,1.34,6.87-.32,9.16-4.71.65-4.71.65A22.74,22.74,0,0,0,363.51,267Z" style="fill:#fff;stroke:#263238;stroke-linecap:round;stroke-linejoin:round"></path><path d="M336.4,244.35s-1.22-4.09,5-6.7,10.54-1.13,10.63,2.63a15.26,15.26,0,0,1-5.27,5.4C343.3,247.63,337.65,246.81,336.4,244.35Z" style="fill:#fff;stroke:#263238;stroke-linecap:round;stroke-linejoin:round"></path><polygon points="368.76 290.22 374.7 302.17 370.94 304.29 368.76 290.22" style="fill:#fff;stroke:#263238;stroke-linecap:round;stroke-linejoin:round"></polygon><path d="M331.58,242.21l25.33,68a9.2,9.2,0,0,0,7.72,3c2.94-.18,5.55-2.26,7.26-4a5.11,5.11,0,0,0,1.2-5.15L352,240.28S339.55,249.43,331.58,242.21Z" style="fill:#fff;stroke:#263238;stroke-linecap:round;stroke-linejoin:round"></path><path d="M364.64,267.3s-5.14-2.3-6.76-2.3-10.12,5.06-11.93,6.36-1.65,2-1,2.13,1.45.33,1.45.33-2.14,2.29-1.51,3.27,2.57.82,2.57.82-1.49,1.8.12,2.29a20.06,20.06,0,0,0,3.71.66s-2.77,1.47-.52,2.29,10.07-2.11,13-3.25,3-3.59,3-7.36S364.64,267.3,364.64,267.3Z" style="fill:#fff;stroke:#263238;stroke-linecap:round;stroke-linejoin:round"></path><path d="M346.39,273.82s8-4,9.69-4.35a14.73,14.73,0,0,1,2.64-.35" style="fill:none;stroke:#263238;stroke-miterlimit:10"></path><path d="M347.45,277.91s6.6-2.82,9.07-3.29,3.17-.59,3.17-.59" style="fill:none;stroke:#263238;stroke-miterlimit:10"></path><path d="M351.28,280.86s6.49-1.1,9.27-2.87" style="fill:none;stroke:#263238;stroke-miterlimit:10"></path><path d="M333.75,446.26s-2.12,7.57-2.88,8.62-5.8,7.37-5.84,9.63,1.57,3.92,5.58,4.83,10.26,1.23,15.22-1,7.2-3,8.46-6.47.42-15.07.42-15.07S339.2,435.39,333.75,446.26Z" style="fill:#fff;stroke:#263238;stroke-linecap:round;stroke-linejoin:round"></path><path d="M354.29,461.85a21.1,21.1,0,0,0,.67-5.74,39.6,39.6,0,0,1-3.48,4.68c-2.44,2.71-6.66,5.72-14.72,6.3a16,16,0,0,1-11.52-3.52,2.93,2.93,0,0,0-.21.94c0,2.26,1.57,3.92,5.58,4.83s10.26,1.23,15.22-1S353,465.31,354.29,461.85Z" style="fill:#263238;stroke:#263238;stroke-linecap:round;stroke-linejoin:round"></path><path d="M344.66,443.69s-6.78-.33-8.91,3.66" style="fill:none;stroke:#263238;stroke-linecap:round;stroke-linejoin:round;stroke-width:2px"></path><path d="M337.24,443.84s5.82,1.29,6.72,4" style="fill:none;stroke:#263238;stroke-linecap:round;stroke-linejoin:round;stroke-width:2px"></path><path d="M343.31,448.64s-6.79-.33-8.91,3.66" style="fill:none;stroke:#263238;stroke-linecap:round;stroke-linejoin:round;stroke-width:2px"></path><path d="M335.88,448.79s5.82,1.29,6.72,4" style="fill:none;stroke:#263238;stroke-linecap:round;stroke-linejoin:round;stroke-width:2px"></path><path d="M342,453.59s-6.79-.33-8.91,3.66" style="fill:none;stroke:#263238;stroke-linecap:round;stroke-linejoin:round;stroke-width:2px"></path><path d="M334.53,453.74s5.82,1.28,6.72,4" style="fill:none;stroke:#263238;stroke-linecap:round;stroke-linejoin:round;stroke-width:2px"></path></g></svg>
