<svg xmlns="http://www.w3.org/2000/svg" viewBox="0 0 500 500"><g id="freepik--background-simple--inject-88"><path d="M437.29,380q-2.35,3.9-4.88,7.64c-22.58,33.18-60.17,55.89-96.7,66.17a207.44,207.44,0,0,1-48.83,7.48c-107.58,3.91-147.1-84.79-181.76-107.66s-87.86-61.94-81.18-144C29,147.21,64.5,87.55,129.32,60.4a184.27,184.27,0,0,1,22.5-7.76,214.17,214.17,0,0,1,47.51-7.3c49-2.19,88.81,9.63,127.74,39.38,9,6.91,18,14.71,29.79,15.57,8.53.62,16.62-2.45,7.7-10.7-10.48-9.69,1.62-28.76,28.23-15.51,44.46,22.12,62.75,69.86,71.36,118.4C474.73,252.07,469.6,326.16,437.29,380Z" style="fill:#92E3A9"></path><path d="M437.29,380q-2.35,3.9-4.88,7.64c-22.58,33.18-60.17,55.89-96.7,66.17a207.44,207.44,0,0,1-48.83,7.48c-107.58,3.91-147.1-84.79-181.76-107.66s-87.86-61.94-81.18-144C29,147.21,64.5,87.55,129.32,60.4a184.27,184.27,0,0,1,22.5-7.76,214.17,214.17,0,0,1,47.51-7.3c49-2.19,88.81,9.63,127.74,39.38,9,6.91,18,14.71,29.79,15.57,8.53.62,16.62-2.45,7.7-10.7-10.48-9.69,1.62-28.76,28.23-15.51,44.46,22.12,62.75,69.86,71.36,118.4C474.73,252.07,469.6,326.16,437.29,380Z" style="fill:#fff;opacity:0.7000000000000001"></path></g><g id="freepik--Floor--inject-88"><path d="M476.72,459.47h-443a.5.5,0,0,1-.5-.5.5.5,0,0,1,.5-.5h443a.5.5,0,0,1,.5.5A.51.51,0,0,1,476.72,459.47Z" style="fill:#263238"></path></g><g id="freepik--Graphics--inject-88"><path d="M75.7,95.45a.51.51,0,0,1-.36-.15L63.77,83.73a.5.5,0,1,1,.71-.71L76.05,94.6a.5.5,0,0,1-.35.85Z" style="fill:#263238"></path><path d="M64.13,95.45a.51.51,0,0,1-.36-.15.5.5,0,0,1,0-.7L75.34,83a.51.51,0,0,1,.71,0,.5.5,0,0,1,0,.71L64.48,95.3A.5.5,0,0,1,64.13,95.45Z" style="fill:#263238"></path><path d="M234.52,325.8a.47.47,0,0,1-.35-.15l-11.58-11.57a.5.5,0,0,1,.71-.71L234.87,325a.5.5,0,0,1-.35.85Z" style="fill:#263238"></path><path d="M223,325.8a.51.51,0,0,1-.36-.15.5.5,0,0,1,0-.7l11.58-11.58a.5.5,0,0,1,.7,0,.5.5,0,0,1,0,.71L223.3,325.65A.5.5,0,0,1,223,325.8Z" style="fill:#263238"></path><path d="M339.39,140.91a.46.46,0,0,1-.35-.14l-11.58-11.58a.5.5,0,0,1,0-.7.5.5,0,0,1,.71,0l11.57,11.57a.5.5,0,0,1,0,.71A.47.47,0,0,1,339.39,140.91Z" style="fill:#263238"></path><path d="M327.82,140.91a.5.5,0,0,1-.36-.14.51.51,0,0,1,0-.71L339,128.49a.49.49,0,0,1,.7.7l-11.57,11.58A.49.49,0,0,1,327.82,140.91Z" style="fill:#263238"></path><path d="M275.13,65.75a.5.5,0,0,1-.35-.15L263.21,54a.5.5,0,0,1,0-.71.5.5,0,0,1,.7,0l11.58,11.57a.51.51,0,0,1,0,.71A.51.51,0,0,1,275.13,65.75Z" style="fill:#263238"></path><path d="M263.56,65.75a.47.47,0,0,1-.35-.15.5.5,0,0,1,0-.71l11.57-11.57a.5.5,0,1,1,.71.71L263.91,65.6A.47.47,0,0,1,263.56,65.75Z" style="fill:#263238"></path><path d="M466.69,231.84a.54.54,0,0,1-.36-.14l-11.57-11.58a.5.5,0,0,1,0-.7.5.5,0,0,1,.71,0L467,231a.5.5,0,0,1,0,.71A.52.52,0,0,1,466.69,231.84Z" style="fill:#263238"></path><path d="M455.11,231.84a.54.54,0,0,1-.35-.14.51.51,0,0,1,0-.71l11.57-11.57a.5.5,0,0,1,.71,0,.48.48,0,0,1,0,.7L455.47,231.7A.54.54,0,0,1,455.11,231.84Z" style="fill:#263238"></path><path d="M429.71,362.17a.5.5,0,0,1-.35-.14l-11.58-11.58a.5.5,0,0,1,0-.7.5.5,0,0,1,.71,0l11.57,11.57a.5.5,0,0,1-.35.85Z" style="fill:#263238"></path><path d="M418.14,362.17a.54.54,0,0,1-.36-.14.51.51,0,0,1,0-.71l11.58-11.57a.49.49,0,0,1,.7.7L418.49,362A.54.54,0,0,1,418.14,362.17Z" style="fill:#263238"></path><path d="M253.92,380.36a.51.51,0,0,1-.36-.15L242,368.64a.5.5,0,0,1,0-.71.51.51,0,0,1,.71,0l11.57,11.57a.5.5,0,0,1,0,.71A.5.5,0,0,1,253.92,380.36Z" style="fill:#263238"></path><path d="M242.34,380.36a.5.5,0,0,1-.35-.15.5.5,0,0,1,0-.71l11.57-11.57a.51.51,0,0,1,.71,0,.5.5,0,0,1,0,.71L242.7,380.21A.51.51,0,0,1,242.34,380.36Z" style="fill:#263238"></path><path d="M120.22,93a5.35,5.35,0,1,1,5.35-5.35A5.35,5.35,0,0,1,120.22,93Zm0-9.7a4.35,4.35,0,1,0,4.35,4.35A4.35,4.35,0,0,0,120.22,83.3Z" style="fill:#263238"></path><path d="M45.66,225.75A5.35,5.35,0,1,1,51,220.4,5.36,5.36,0,0,1,45.66,225.75Zm0-9.7A4.35,4.35,0,1,0,50,220.4,4.36,4.36,0,0,0,45.66,216.05Z" style="fill:#263238"></path><path d="M301.87,347.87a5.35,5.35,0,1,1,5.35-5.34A5.35,5.35,0,0,1,301.87,347.87Zm0-9.69a4.35,4.35,0,1,0,4.35,4.35A4.35,4.35,0,0,0,301.87,338.18Z" style="fill:#263238"></path><path d="M351.79,70.57a5.35,5.35,0,1,1,5.35-5.35A5.36,5.36,0,0,1,351.79,70.57Zm0-9.7a4.35,4.35,0,1,0,4.35,4.35A4.35,4.35,0,0,0,351.79,60.87Z" style="fill:#263238"></path><path d="M443.58,154.35a5.35,5.35,0,1,1,5.35-5.35A5.36,5.36,0,0,1,443.58,154.35Zm0-9.7a4.35,4.35,0,1,0,4.35,4.35A4.35,4.35,0,0,0,443.58,144.65Z" style="fill:#263238"></path><path d="M447,327.59a5.35,5.35,0,1,1,5.35-5.35A5.36,5.36,0,0,1,447,327.59Zm0-9.7a4.35,4.35,0,1,0,4.35,4.35A4.35,4.35,0,0,0,447,317.89Z" style="fill:#263238"></path><path d="M471.81,311.83a5.35,5.35,0,1,1,5.35-5.35A5.36,5.36,0,0,1,471.81,311.83Zm0-9.7a4.35,4.35,0,1,0,4.35,4.35A4.35,4.35,0,0,0,471.81,302.13Z" style="fill:#263238"></path></g><g id="freepik--Plant--inject-88"><path d="M51.72,313.06s-2.42,6.67-7.58,7.58-14.25-9.09-8.49-14.25S49.3,309.42,51.72,313.06Z" style="fill:#92E3A9"></path><path d="M43.46,321.2c-3.37,0-7.5-3.51-9.21-7C32.7,311,33.09,308,35.32,306a6.67,6.67,0,0,1,5.45-1.73c4.58.59,9.31,5.4,11.37,8.49a.48.48,0,0,1,0,.45c-.1.29-2.58,7-8,7.9A3.94,3.94,0,0,1,43.46,321.2Zm-3.61-16A5.67,5.67,0,0,0,36,306.76c-2.57,2.3-1.63,5.36-.84,7,1.83,3.78,6.17,6.89,8.91,6.41,4.28-.76,6.62-5.87,7.1-7-2-2.94-6.37-7.31-10.52-7.83A5.35,5.35,0,0,0,39.85,305.23Z" style="fill:#263238"></path><path d="M59.61,280.31s-7.58,18.5-4.55,27.6,21.83,15.76,27.29,3.94-6.67-28.5-11.22-32.14S61.12,277.28,59.61,280.31Z" style="fill:#92E3A9"></path><path d="M71.85,318.7l-1,0c-7.17-.39-14.49-5.15-16.3-10.6-3.06-9.17,4.24-27.18,4.56-27.95v0a5.89,5.89,0,0,1,4.14-2.94,9.78,9.78,0,0,1,8.14,2.17C76.1,283.05,88.38,300,82.8,312.06,80.82,316.37,77,318.7,71.85,318.7ZM60.06,280.52c-.26.66-7.42,18.53-4.53,27.23,1.67,5,8.73,9.56,15.42,9.93,3,.16,8.34-.4,11-6,5.34-11.58-6.57-27.93-11.08-31.54a8.78,8.78,0,0,0-7.3-2A4.94,4.94,0,0,0,60.06,280.52Z" style="fill:#263238"></path><path d="M103.88,288.2s-13,11.82-14.56,23.65,7.28,16.07,16.38,14.55,13.64-24.56,10.91-35.17S103.88,288.2,103.88,288.2Z" style="fill:#92E3A9"></path><path d="M102.19,327.2a14.19,14.19,0,0,1-10-3.57c-2.84-2.73-4-6.82-3.35-11.84,1.52-11.88,14.17-23.47,14.71-24l0,0c.2-.16,5.1-3.82,9.18-2.4,2.09.73,3.55,2.65,4.34,5.71,2,7.67.21,22.84-5,30.88-1.87,2.87-4,4.52-6.29,4.91A22.39,22.39,0,0,1,102.19,327.2Zm2-38.62c-.54.5-12.93,12-14.38,23.33-.6,4.7.45,8.5,3.05,11,2.88,2.78,7.52,3.87,12.74,3,2-.34,3.91-1.84,5.62-4.47,5.1-7.83,6.82-22.61,4.9-30.08-.7-2.72-1.94-4.4-3.7-5C109,285.14,104.51,288.35,104.2,288.58Z" style="fill:#263238"></path><path d="M106.3,353.69s-14.55.61-15.16,7.58,6.37,8.49,13.34,2.43S112.37,354,106.3,353.69Z" style="fill:#92E3A9"></path><path d="M96.18,368a6.05,6.05,0,0,1-2.76-.63c-2-1-3-3.22-2.78-6.14.64-7.33,15-8,15.64-8h0c2.48.13,4,.82,4.38,2.06.66,1.91-1.27,4.8-5.9,8.83C101.88,366.63,98.79,368,96.18,368Zm10.12-13.81c-.63,0-14.11.79-14.66,7.13-.22,2.48.58,4.32,2.23,5.16,2.55,1.3,6.59.06,10.29-3.16,5.54-4.82,5.89-6.92,5.61-7.74C109.42,354.56,107.69,354.27,106.3,354.19Z" style="fill:#263238"></path><path d="M91.59,363.39l-.41-.91c.47-.22,11.58-5.28,16.75-6.2l.18,1C103.06,358.16,91.71,363.34,91.59,363.39Z" style="fill:#263238"></path><path d="M109.55,399.33s-10.69-9.9-16.07-5.41-1.53,10.5,7.69,11.17S113.61,403.84,109.55,399.33Z" style="fill:#92E3A9"></path><path d="M104.47,405.72c-1,0-2.12,0-3.34-.13-5.38-.39-9.35-2.6-10.37-5.76-.7-2.18.15-4.42,2.4-6.3,5.65-4.71,16.28,5,16.73,5.43l0,0c1.66,1.85,2.21,3.38,1.63,4.56C110.84,405,108.51,405.72,104.47,405.72Zm-7.55-12.47a4.72,4.72,0,0,0-3.12,1.05c-1.91,1.6-2.65,3.46-2.08,5.23.87,2.72,4.6,4.71,9.48,5.06,7.33.53,9.07-.7,9.45-1.48.47-1-.53-2.39-1.46-3.43C108.81,399.33,102.05,393.25,96.92,393.25Z" style="fill:#263238"></path><path d="M108.28,403.12c-4.18-2.94-15.86-7.35-16-7.39l.35-.94c.49.18,11.92,4.49,16.21,7.52Z" style="fill:#263238"></path><path d="M53.16,396.41S67.89,382.77,75.3,389s2.11,14.47-10.59,15.4S47.56,402.64,53.16,396.41Z" style="fill:#92E3A9"></path><path d="M60.12,405c-5.47,0-8.61-1-9.56-2.89-.76-1.55,0-3.59,2.22-6.07l0,0c.61-.56,15.14-13.86,22.8-7.47,3,2.54,4.19,5.55,3.25,8.48-1.38,4.28-6.79,7.27-14.13,7.81Q62.21,405,60.12,405Zm-6.61-8.28c-1.32,1.48-2.74,3.53-2,4.95.55,1.12,3,2.89,13.21,2.15,6.82-.5,12-3.29,13.25-7.11.81-2.52-.24-5.15-2.94-7.41C68.1,383.6,54.07,396.25,53.51,396.76Z" style="fill:#263238"></path><path d="M54.79,401.5l-.58-.82c5.9-4.16,21.64-10.09,22.3-10.34l.36.94C76.7,391.34,60.58,397.42,54.79,401.5Z" style="fill:#263238"></path><path d="M70.22,368.25s-1.52,7.27-7,10-15.16-3-10-11.82S67.49,364.61,70.22,368.25Z" style="fill:#92E3A9"></path><path d="M60.2,379.43a9.61,9.61,0,0,1-6.83-2.94c-2.58-2.76-2.78-6.52-.56-10.32,1.66-2.83,3.85-4.34,6.52-4.49,4.59-.24,9.37,3.71,11.29,6.27a.48.48,0,0,1,.09.4c-.06.31-1.63,7.55-7.24,10.35A7.33,7.33,0,0,1,60.2,379.43Zm-.44-16.76h-.37c-2.32.13-4.24,1.48-5.72,4-2,3.39-1.83,6.71.43,9.13s6.23,3.34,8.92,2c4.66-2.33,6.36-8.24,6.66-9.45C67.74,365.89,63.56,362.67,59.76,362.67Z" style="fill:#263238"></path><path d="M57.49,345.51s-2.73-6.07-13.35-2.13-14.85,10-8.18,12.13S57.49,345.51,57.49,345.51Z" style="fill:#92E3A9"></path><path d="M37.7,356.26a6.35,6.35,0,0,1-1.89-.27c-2.89-.92-3.53-2.44-3.55-3.55-.08-3.12,4.52-6.86,11.71-9.52,10.92-4.07,13.94,2.31,14,2.38a.49.49,0,0,1-.14.59C57.24,346.35,45,356.26,37.7,356.26Zm12.94-13.72a18.34,18.34,0,0,0-6.32,1.31c-7.67,2.85-11.11,6.44-11.06,8.57,0,1.42,1.57,2.21,2.85,2.62,5.8,1.85,18.53-7.92,20.73-9.66C56.32,344.56,54.62,342.54,50.64,342.54Z" style="fill:#263238"></path><path d="M38.46,352l-.65-.76c6.12-5.21,17.12-6.45,17.59-6.5l.11,1C55.4,345.74,44.35,347,38.46,352Z" style="fill:#263238"></path><path d="M87.81,272.73s1.82,4.25,5.46,3.34,4.54-6.37,10.3-4.85,10.62,8.19,10.62,5.15-7.28-10.91-15.47-10.91S88.11,268.79,87.81,272.73Z" style="fill:#92E3A9"></path><path d="M113.73,277.66c-.69,0-1.61-.7-3.06-1.82-1.89-1.44-4.47-3.41-7.22-4.14-3.29-.86-4.82.69-6.44,2.34a8,8,0,0,1-3.62,2.51c-3.21.8-5.36-2-6-3.62a.45.45,0,0,1,0-.23c.39-5.14,4.23-7.74,11.41-7.74,8.25,0,16,7.85,16,11.41a1.25,1.25,0,0,1-.55,1.19A.83.83,0,0,1,113.73,277.66Zm-12-7.21a7.74,7.74,0,0,1,2,.29c2.94.77,5.62,2.82,7.58,4.31a11.52,11.52,0,0,0,2.38,1.6,1.28,1.28,0,0,0,0-.28c0-2.55-6.74-10.41-15-10.41-6.59,0-10,2.19-10.4,6.69.3.63,1.91,3.66,4.82,2.93a7.16,7.16,0,0,0,3.16-2.24C97.64,272,99.13,270.45,101.68,270.45Z" style="fill:#263238"></path><path d="M76.86,362.05a41,41,0,0,0-1.35-4.38C70.29,343.76,58.1,345.9,57.58,346l-.19-1c.14,0,13.54-2.41,19.06,12.31a42.41,42.41,0,0,1,1.38,4.49Z" style="fill:#263238"></path><path d="M112,331.46s2.72-6.06,13.34-2.12,14.85,10,8.18,12.13S112,331.46,112,331.46Z" style="fill:#92E3A9"></path><path d="M131.77,342.21c-7.32,0-19.55-9.9-20.11-10.36a.51.51,0,0,1-.14-.6c0-.06,3-6.44,14-2.38,7.19,2.67,11.79,6.41,11.71,9.52,0,1.12-.66,2.64-3.55,3.55A6,6,0,0,1,131.77,342.21Zm-19.15-10.87c2.22,1.75,14.93,11.49,20.73,9.65,1.28-.41,2.82-1.19,2.85-2.62.05-2.13-3.39-5.71-11.06-8.56C116.55,326.62,113.38,330.19,112.62,331.34Z" style="fill:#263238"></path><path d="M130.12,338c-5-6.11-15.59-5.6-15.69-5.59l-.06-1c.46,0,11.26-.55,16.52,6Z" style="fill:#263238"></path><path d="M103.14,333.15l-.4-.92a17.09,17.09,0,0,1,9.33-1.26l-.19,1A16.45,16.45,0,0,0,103.14,333.15Z" style="fill:#263238"></path><path d="M64.09,320.93c-6.2-6.32-12.38-7.36-12.44-7.37s-9.17-2.38-12.57.74l-.68-.73c3.81-3.49,13.06-1.1,13.45-1,.22,0,6.51,1.08,12.95,7.65Z" style="fill:#263238"></path><rect x="64.96" y="284.43" width="1" height="2.6" transform="translate(-60.89 21.23) rotate(-12.63)" style="fill:#263238"></rect><path d="M81,421.05l-1,0c0-.52,1.34-52.37,0-68s-7.61-34.13-7.68-34.32l-6.47-28.9,1-.22,6.47,28.85c0,.14,6.36,18.77,7.71,34.5S81,420.53,81,421.05Z" style="fill:#263238"></path><rect x="106.66" y="296.45" width="2.76" height="1" transform="translate(-206.72 269.02) rotate(-64.94)" style="fill:#263238"></rect><path d="M84.18,421h-1c0-.48.48-47.82,2.27-61.28s9-34.77,9.09-35l11.14-23.88.91.43L95.46,325.09c0,.16-7.23,21.35-9,34.74S84.19,420.51,84.18,421Z" style="fill:#263238"></path><path d="M86.9,421.08l-1-.06c1.79-30.47,5-57.87,5-58.14l1,.11C91.85,363.27,88.69,390.64,86.9,421.08Z" style="fill:#263238"></path><path d="M76.48,421l-1,0c0-.43.88-43.53-.89-49.28-.6-2-1.42-3.17-2.36-3.45a2,2,0,0,0-1.69.39l-.11.09-.15,0c-.08,0-8.19,1-11.06,5.62l-.85-.53c3-4.72,10.5-5.91,11.66-6.06a2.93,2.93,0,0,1,2.47-.49c1.3.38,2.33,1.76,3,4.12C77.37,377.3,76.52,419.21,76.48,421Z" style="fill:#263238"></path><path d="M78.74,421.06l-1-.06c0-.42,2.16-42.51-.17-55.58l1-.18C80.91,378.43,78.77,420.63,78.74,421.06Z" style="fill:#263238"></path><path d="M88.17,421.06c0-2.58-.56-63.36,4.84-77.78a19.56,19.56,0,0,1,7.08-9.58l.56.83a18.57,18.57,0,0,0-6.7,9.1c-5.34,14.24-4.79,76.79-4.78,77.42Z" style="fill:#263238"></path><path d="M82.82,421.05l-1-.13c1.27-9.36-1.31-63.63-8.59-84.55a42.46,42.46,0,0,0-7.6-13.73l.76-.65A43.59,43.59,0,0,1,74.19,336C81.5,357.08,84.1,411.65,82.82,421.05Z" style="fill:#263238"></path><path d="M84.18,421h-1c0-.53.32-53.17.75-79.17l1,0C84.5,367.82,84.18,420.46,84.18,421Z" style="fill:#263238"></path><path d="M85,338.55l-1,0c.36-21,.7-35.65,1-43.58.79-20.37,1.94-22.32,2.44-22.63.49-1.13,2.91-5.33,11.51-4.77l-.07,1c-8.87-.58-10.52,4.14-10.59,4.34l-.24.74-.18-.17c-.39,1.08-1.24,5.28-1.87,21.53C85.69,302.91,85.35,317.57,85,338.55Z" style="fill:#263238"></path><path d="M72.89,358.41s-7.58-6.76-4.55-10.09,21.83-5.76,27.29-1.44S89,357.3,84.41,358.63,74.4,359.51,72.89,358.41Z" style="fill:#92E3A9"></path><path d="M78.35,360c-2.58,0-4.79-.44-5.76-1.15l0,0c-.21-.19-5.23-4.71-5.42-8.35A3.25,3.25,0,0,1,68,348c3.29-3.6,22.27-6,28-1.49a3.41,3.41,0,0,1,1.51,3.45c-.79,4.08-9.43,8.15-12.9,9.17A22.65,22.65,0,0,1,78.35,360ZM73.2,358c1.37,1,6.58,1.44,11.07.13,3.8-1.11,11.55-5.09,12.2-8.4a2.48,2.48,0,0,0-1.15-2.48c-5.16-4.08-23.72-1.78-26.61,1.39a2.23,2.23,0,0,0-.58,1.72C68.29,353.5,72.87,357.72,73.2,358Z" style="fill:#263238"></path><path d="M80.22,354.89h-1a14.68,14.68,0,0,1,.17-2.1l1,.16A12.45,12.45,0,0,0,80.22,354.89Z" style="fill:#263238"></path><path d="M81,350.14l-1-.28a33.38,33.38,0,0,1,2-5.1l.89.44A34.82,34.82,0,0,0,81,350.14Z" style="fill:#263238"></path><path d="M72.89,402.6s-7.58-6.76-4.55-10.08,21.83-5.76,27.29-1.44S89,401.5,84.41,402.83,74.4,403.71,72.89,402.6Z" style="fill:#92E3A9"></path><path d="M78.35,404.15c-2.58,0-4.79-.43-5.76-1.14l0,0c-.21-.19-5.23-4.71-5.42-8.35a3.25,3.25,0,0,1,.84-2.45c3.29-3.6,22.27-6,28-1.49a3.41,3.41,0,0,1,1.51,3.45c-.79,4.07-9.43,8.15-12.9,9.16A22.27,22.27,0,0,1,78.35,404.15Zm-5.15-1.94c1.37,1,6.58,1.45,11.07.14,3.8-1.12,11.55-5.09,12.2-8.4a2.48,2.48,0,0,0-1.15-2.48c-5.16-4.09-23.72-1.78-26.61,1.39a2.21,2.21,0,0,0-.58,1.72C68.29,397.7,72.87,401.91,73.2,402.21Z" style="fill:#263238"></path><path d="M80.22,399.09h-1c0-4.43,2.71-9.91,2.83-10.14l.89.45C82.91,389.46,80.22,394.9,80.22,399.09Z" style="fill:#263238"></path><path d="M78.53,383.91s-5.15-4.59-3.09-6.85,14.83-3.91,18.53-1-4.53,7.07-7.62,8S79.56,384.66,78.53,383.91Z" style="fill:#92E3A9"></path><path d="M82.26,385.12a7.76,7.76,0,0,1-4-.81l0,0c-.15-.13-3.61-3.24-3.74-5.77a2.34,2.34,0,0,1,.61-1.78c2.26-2.48,15.3-4.13,19.21-1a2.49,2.49,0,0,1,1.09,2.5c-.59,3-6.8,5.75-8.88,6.35A15.46,15.46,0,0,1,82.26,385.12Zm-3.42-1.6c.89.62,4.42.93,7.37.06,2.55-.74,7.75-3.39,8.17-5.58a1.51,1.51,0,0,0-.72-1.52c-3.46-2.74-15.91-1.2-17.85.92a1.4,1.4,0,0,0-.35,1.06C75.55,380.2,77.91,382.68,78.84,383.52Z" style="fill:#263238"></path><path d="M83.67,381.52h-1c0-3,1.86-6.79,1.94-6.95l.89.45S83.67,378.72,83.67,381.52Z" style="fill:#263238"></path><rect x="71.41" y="413.47" width="20.52" height="45.5" style="fill:#263238"></rect><path d="M91.93,459.47H71.41a.5.5,0,0,1-.5-.5v-45.5a.5.5,0,0,1,.5-.5H91.93a.5.5,0,0,1,.5.5V459A.5.5,0,0,1,91.93,459.47Zm-20-1H91.43V414H71.91Z" style="fill:#263238"></path></g><g id="freepik--character-2--inject-88"><path d="M362.55,221.54l-.56.94-15.68,11.88L318,206.2,313.91,221s30.94,31.92,33,33.76,5.66,3,7.09,2.83,6.15-2.91,6.15-2.91Z" style="fill:#263238"></path><path d="M353.78,258.07a13.38,13.38,0,0,1-7.16-3c-2.09-1.82-31.8-32.48-33.07-33.79a.49.49,0,0,1-.12-.48l4.1-14.77a.51.51,0,0,1,.36-.35.54.54,0,0,1,.48.13l28,27.86,15.26-11.56.51-.85a.51.51,0,0,1,.58-.23.52.52,0,0,1,.35.52l-2.37,33.11a.52.52,0,0,1-.24.4c-.49.28-4.85,2.81-6.35,3Zm-39.31-37.25c2.66,2.75,30.83,31.81,32.81,33.53s5.4,2.83,6.71,2.71c.93-.09,3.84-1.62,5.72-2.7l2.22-31.21-15.32,11.61a.5.5,0,0,1-.65,0l-27.69-27.56Z" style="fill:#263238"></path><path d="M361.07,153.79s-4.41,9.71-4.24,10.92a20.52,20.52,0,0,0,.93,3.22s-7.33,5.84-6.76,7.26,3.54,3.08,3.54,3.08-.32,14.6,1.07,15,11.45-2,11.45-2L369.21,203l19-8.39-1.32-12.84s8.1-13.84,8.63-19.63.37-8.2-6.34-12.35-18.3-5.4-24.95-3.34S361.07,153.79,361.07,153.79Z" style="fill:#fff"></path><path d="M369.21,203.5a.59.59,0,0,1-.23-.05.53.53,0,0,1-.26-.36L366.67,192c-2.48.57-9.88,2.23-11.21,1.82s-1.57-8.45-1.43-15.23c-.79-.47-3-1.85-3.49-3.17-.6-1.49,3.77-5.32,6.63-7.62a17.73,17.73,0,0,1-.83-3c-.18-1.21,3-8.4,4.17-11a5.73,5.73,0,0,1-.61-4.51c.55-1.52,2-2.65,4.18-3.34,7.17-2.22,18.79-.66,25.36,3.4,7,4.34,7.1,7.07,6.57,12.82-.5,5.58-7.7,18.13-8.61,19.69l1.31,12.68a.51.51,0,0,1-.3.51l-19,8.39A.45.45,0,0,1,369.21,203.5Zm-2.15-12.65a.57.57,0,0,1,.28.08.47.47,0,0,1,.21.33l2,11,18.08-8-1.28-12.48a.51.51,0,0,1,.06-.3c.08-.14,8.06-13.81,8.57-19.42s.37-7.88-6.1-11.88c-6.26-3.86-17.72-5.4-24.54-3.29-1.91.59-3.1,1.5-3.53,2.71a4.91,4.91,0,0,0,.64,3.87.53.53,0,0,1,0,.49c-2.12,4.65-4.27,9.9-4.2,10.64a19.88,19.88,0,0,0,.9,3.11.5.5,0,0,1-.16.57c-3.66,2.92-6.69,6-6.6,6.7.41,1,2.53,2.37,3.31,2.81a.51.51,0,0,1,.26.45c-.15,6.61.11,13.87.8,14.59.8.22,7-1,11.11-2Z" style="fill:#263238"></path><path d="M375.18,186.12c1.47-3.17,3.14-15.54,4-17.13s4.1-4.91,7-2.25-2,10.77-3.65,11.33,1.93,3.45,4.33,3.7c0,0,8.1-13.84,8.63-19.63s.37-8.2-6.34-12.35-18.3-5.4-24.95-3.34-3.16,7.34-3.16,7.34,12.84-1.52,12.61.07-3.49,3.93-2.12,5.56,4.5,4.7,4.5,4.7-3.06,11.94-4.34,15.32-3.09,4.34-5.28,3.49-6.71-4.15-9.31-4.41l-2.59-.25s-.32,14.6,1.07,15,11.45-2,11.45-2S373.71,189.29,375.18,186.12Z" style="fill:#263238"></path><path d="M356.1,193.84a2.66,2.66,0,0,1-.64-.06c-1.44-.45-1.57-8.69-1.42-15.52a.52.52,0,0,1,.16-.37.54.54,0,0,1,.38-.12l2.6.26c1.76.17,4.23,1.58,6.4,2.83a27.59,27.59,0,0,0,3.05,1.6,2.75,2.75,0,0,0,2.21,0c1-.42,1.76-1.51,2.42-3.25,1.14-3,3.77-13.17,4.24-15-.72-.72-3.15-3.13-4.33-4.54s0-2.88,1-4.13a6.51,6.51,0,0,0,1-1.7c-1-.54-6.89-.23-12,.38a.52.52,0,0,1-.48-.23,5.91,5.91,0,0,1-.75-4.75c.55-1.52,2-2.65,4.18-3.34,7.17-2.22,18.79-.66,25.36,3.4,7,4.34,7.1,7.07,6.57,12.82s-8.36,19.26-8.69,19.83a.52.52,0,0,1-.49.25c-2.07-.22-5-2.26-5.17-3.58a1,1,0,0,1,.74-1.09c.77-.27,3.4-3.79,4.08-7.15.22-1.07.29-2.53-.61-3.34a2.94,2.94,0,0,0-2.57-.82,6.07,6.07,0,0,0-3.7,2.94,49.52,49.52,0,0,0-1.45,6.5c-.78,4.11-1.67,8.77-2.51,10.6h0c-1.55,3.33-8.15,5.41-8.43,5.5C365.65,192.2,358.56,193.84,356.1,193.84Zm-1.08-15c-.11,6.46.15,13.35.82,14.05.8.22,7-1,11.11-2,0,0,6.42-2,7.78-5,.8-1.72,1.71-6.51,2.44-10.36s1.16-6.07,1.54-6.79a7.15,7.15,0,0,1,4.42-3.46,3.9,3.9,0,0,1,3.42,1.07c1,.89,1.3,2.37.91,4.28-.65,3.24-3.34,7.41-4.73,7.89-.12.51,2,2.32,3.89,2.69,1.16-2,7.93-14,8.4-19.13.52-5.71.37-7.88-6.1-11.88-6.26-3.86-17.72-5.4-24.54-3.29-1.91.59-3.1,1.5-3.53,2.71a4.66,4.66,0,0,0,.49,3.61c3.05-.35,11.43-1.19,12.61,0a.78.78,0,0,1,.22.67,5.68,5.68,0,0,1-1.23,2.27c-1,1.32-1.56,2.23-1,2.9,1.33,1.59,4.44,4.63,4.47,4.66a.49.49,0,0,1,.13.49c-.12.48-3.08,12-4.35,15.37-.75,2-1.74,3.27-2.94,3.81a3.79,3.79,0,0,1-3,0,27.07,27.07,0,0,1-3.17-1.66c-2.09-1.2-4.46-2.56-6-2.71Zm20.16,7.3h0Z" style="fill:#263238"></path><path d="M365.45,165.29a1,1,0,0,1-.85-.46,2.76,2.76,0,0,0-1.81-1.42,3.37,3.37,0,0,0-2.29.73,1,1,0,0,1-1.4-.13,1,1,0,0,1,.12-1.41,5.39,5.39,0,0,1,3.87-1.16,4.6,4.6,0,0,1,3.2,2.32,1,1,0,0,1-.31,1.38A1,1,0,0,1,365.45,165.29Z" style="fill:#263238"></path><path d="M363.57,168c0,1.05-.49,1.9-1.05,1.88s-1-.87-.95-1.92.48-1.89,1-1.88S363.59,166.9,363.57,168Z" style="fill:#263238"></path><path d="M356.69,185.22h-.1a.5.5,0,0,1-.49-.51.51.51,0,0,1,.51-.49s4,.06,5.66-1.9a.5.5,0,0,1,.76.65C361.19,185.12,357.38,185.22,356.69,185.22Z" style="fill:#fff"></path><polygon points="386.21 194.37 362.81 202.87 365.8 212.74 386.21 194.37" style="fill:#fff"></polygon><path d="M365.8,213.24l-.14,0a.5.5,0,0,1-.34-.34l-3-9.87a.49.49,0,0,1,.31-.61l23.4-8.5a.48.48,0,0,1,.6.21.52.52,0,0,1-.09.63l-20.42,18.37A.51.51,0,0,1,365.8,213.24Zm-2.37-10.07,2.62,8.67L384,195.71Z" style="fill:#263238"></path><path d="M402.71,457.68s-4.09,4.89-6.37,6.33-13.79,4.93-12.6,7.2,12.64,2.76,19.61,2.91,15.75-3.39,18.26-4.33,5.8-3.36,4.87-6.12S402.71,457.68,402.71,457.68Z" style="fill:#fff"></path><path d="M403.78,474.63h-.45c-16.64-.36-19.4-2-20-3.18a1.23,1.23,0,0,1-.06-1c.57-1.58,4.21-3.16,8.91-5.07a34.24,34.24,0,0,0,3.93-1.75c2.18-1.38,6.2-6.18,6.24-6.23a.5.5,0,0,1,.46-.18c3.86.55,23.18,3.43,24.17,6.33,1.06,3.13-2.51,5.75-5.16,6.75l-.58.21C418.2,471.62,410.3,474.63,403.78,474.63Zm-.87-16.42c-.83,1-4.24,4.91-6.3,6.23a32.87,32.87,0,0,1-4.09,1.82c-3.13,1.28-7.87,3.2-8.34,4.49a.26.26,0,0,0,0,.23c.45.84,3.53,2.3,19.18,2.64,6.43.14,14.46-2.93,17.5-4.08l.58-.22c2.2-.83,5.39-3.05,4.56-5.49C425.48,462.3,413.9,459.78,402.91,458.21Z" style="fill:#263238"></path><path d="M403.78,474.63h-.45c-16.64-.36-19.4-2-20-3.18-.36-.68-.07-1.42.87-2.19a.52.52,0,0,1,.48-.09,42,42,0,0,0,12.41,2c8.88.2,19.67-2.57,20.61-2.82l8.55-5.11a.5.5,0,0,1,.43,0,.51.51,0,0,1,.3.31c1.06,3.13-2.51,5.75-5.16,6.75l-.58.21C418.2,471.62,410.3,474.63,403.78,474.63Zm-19.17-4.43c-.25.23-.54.56-.43.78.45.84,3.53,2.3,19.18,2.64,6.43.14,14.46-2.93,17.5-4.08l.58-.22c2-.75,4.85-2.67,4.69-4.86l-8,4.78a.38.38,0,0,1-.13.06c-.12,0-11.58,3.07-21,2.87A43.46,43.46,0,0,1,384.61,470.2Z" style="fill:#263238"></path><path d="M357.69,455.46A87.72,87.72,0,0,1,346.85,462c-5,2.38-9.78,3-5.84,5.35s19.36,2.66,27.1,1.58,11.7,0,12.25-2.47a61.81,61.81,0,0,0,.67-8.2Z" style="fill:#fff"></path><path d="M357.87,470c-7,0-14.5-.68-17.12-2.23-.83-.49-1.77-1.17-1.7-2.05.09-1.13,1.7-1.77,4.14-2.73,1.05-.42,2.25-.89,3.44-1.46a86.64,86.64,0,0,0,10.77-6.44.54.54,0,0,1,.35-.09l23.34,2.75a.51.51,0,0,1,.45.51,63,63,0,0,1-.69,8.29c-.45,2-2.56,2.11-6.05,2.29-1.77.09-4,.21-6.62.58A81.66,81.66,0,0,1,357.87,470Zm-.05-14a88.12,88.12,0,0,1-10.76,6.42c-1.23.58-2.43,1.06-3.5,1.48-1.63.64-3.47,1.37-3.51,1.88,0,.06,0,.41,1.21,1.11,3.82,2.26,19.39,2.55,26.78,1.51,2.69-.37,4.92-.48,6.71-.58,3.44-.18,4.85-.3,5.12-1.5a54.91,54.91,0,0,0,.65-7.65Z" style="fill:#263238"></path><path d="M357.87,470c-7,0-14.5-.68-17.12-2.23-1.18-.7-1.7-1.3-1.7-2s.7-1.23,1.22-1.53a.5.5,0,0,1,.38-.05,63.09,63.09,0,0,0,18.5,2.38,203.46,203.46,0,0,0,21.4-2.37.52.52,0,0,1,.43.13.5.5,0,0,1,.15.42c-.09.71-.18,1.31-.28,1.76-.45,2-2.56,2.11-6.05,2.29-1.77.09-4,.21-6.62.58A81.66,81.66,0,0,1,357.87,470Zm-17.28-4.75c-.49.32-.54.51-.54.56s.06.42,1.21,1.1c3.82,2.26,19.39,2.55,26.78,1.51,2.69-.37,4.92-.48,6.71-.58,3.44-.18,4.85-.3,5.12-1.5.06-.28.12-.62.18-1a198.29,198.29,0,0,1-20.86,2.28h0A64.22,64.22,0,0,1,340.59,465.21Zm18.58,1.86h0Z" style="fill:#263238"></path><path d="M359.58,310.86s-3,47.73-3.77,59.17,4.07,76.51,4.07,76.51-4.55,2.89-4.31,3.65,2.12,5.27,2.12,5.27,7.9,3.16,13.61,3.78,9.94,1,9.94,1a22.29,22.29,0,0,0,1.37-5.94,48.37,48.37,0,0,0-1.05-8.74c-.45-2.25-.62-29.14-.35-41.58s1.41-41.8,1.67-42.54,3.68,36.93,8.14,49.47S402.6,451.2,402.6,451.2s-3.25.43-3.28,1.92,2.08,7.27,2.08,7.27S414,464.65,419.23,465s9.69.95,9.69.95-2.05-9-3.23-12-2.39-4.78-2.83-7.28-8-54-8.26-55.44-4.7-59.11-4.67-60.35.25-22.9.25-22.9Z" style="fill:#263238"></path><path d="M428.92,466.46h-.07c-.05,0-4.51-.6-9.66-.95s-17.43-4.47-17.95-4.65a.54.54,0,0,1-.31-.3c-.22-.6-2.14-5.9-2.11-7.45s2.11-2.09,3.16-2.31c-1-3.89-7.37-28.33-11.43-39.76-3.34-9.39-6.07-32.54-7.38-43.67,0-.34-.08-.68-.12-1-.43,8.9-1.13,27.89-1.34,37.58-.26,12.36-.11,39.23.34,41.47a51.09,51.09,0,0,1,1.06,8.85,22.64,22.64,0,0,1-1.4,6.11.48.48,0,0,1-.51.32s-4.3-.35-9.95-1-13.42-3.69-13.74-3.82a.47.47,0,0,1-.28-.27c-.08-.18-1.9-4.55-2.14-5.32-.09-.3-.34-1.08,4.27-4.05-.36-4.8-4.76-65.34-4.05-76.28.74-11.44,3.77-59.17,3.77-59.17a.49.49,0,0,1,.47-.47l50.6-2.89a.44.44,0,0,1,.37.14.5.5,0,0,1,.16.36c0,.22-.22,21.68-.25,22.91s4.43,58.63,4.67,60.27c.06.47,7.79,52.8,8.25,55.43a17.71,17.71,0,0,0,1.57,4.34c.38.82.81,1.76,1.24,2.84,1.18,3,3.16,11.72,3.24,12.09a.49.49,0,0,1-.12.45A.46.46,0,0,1,428.92,466.46ZM401.79,460c1.72.57,12.76,4.19,17.47,4.52,4,.27,7.53.69,9,.87-.51-2.17-2.08-8.8-3-11.25-.41-1.06-.82-1.94-1.21-2.79a18.25,18.25,0,0,1-1.64-4.59c-.47-2.63-8.2-55-8.26-55.46-.25-1.69-4.7-59.29-4.68-60.43s.21-19,.24-22.36l-49.62,2.83c-.31,4.84-3,47.94-3.74,58.73-.74,11.27,4,75.8,4.07,76.45a.53.53,0,0,1-.23.46,19.12,19.12,0,0,0-4.08,3.16c.25.72,1.36,3.41,2,4.94,1.25.48,8.2,3.12,13.29,3.67,4.67.51,8.38.83,9.54.93a20.4,20.4,0,0,0,1.21-5.42,47.15,47.15,0,0,0-1-8.63c-.46-2.29-.62-29.29-.36-41.69.25-11.41,1.38-41.81,1.7-42.7a.55.55,0,0,1,.54-.34c.47.06.47.06,1.22,6.36,1.3,11.09,4,34.17,7.32,43.45,4.42,12.43,11.52,40.1,11.59,40.38a.47.47,0,0,1-.07.4.51.51,0,0,1-.35.22c-1.14.15-2.83.71-2.84,1.43C399.8,454.23,401.16,458.26,401.79,460Z" style="fill:#263238"></path><path d="M358.93,297,358,316s22.16,3.71,34.95,1.56,24.53-5.38,24.53-5.38l-2.32-18.33Z" style="fill:#fff"></path><path d="M383.32,318.76a181.58,181.58,0,0,1-25.43-2.23.5.5,0,0,1-.42-.52l1-19.06a.5.5,0,0,1,.47-.48l56.2-3.08a.48.48,0,0,1,.53.43l2.31,18.34a.5.5,0,0,1-.36.54c-.12,0-11.9,3.27-24.57,5.4A60.49,60.49,0,0,1,383.32,318.76Zm-24.83-3.14c3.18.5,22.77,3.43,34.35,1.49,11.28-1.89,21.85-4.67,24.05-5.26l-2.2-17.44-55.29,3Z" style="fill:#263238"></path><path d="M389.3,190.23s-18.11,13.82-22,19.34-6.89,13.06-8.45,20.23-2,36.59-2,37.39-1.76,35.38-1.76,35.38a241,241,0,0,0,33.19,1.72A109.18,109.18,0,0,0,418.78,299s-2-19.26-5.64-35.55-12-47.9-12.94-49.32S389.3,190.23,389.3,190.23Z" style="fill:#bdbdbd"></path><path d="M383.67,304.85A250,250,0,0,1,355,303.07a.49.49,0,0,1-.43-.52c0-.35,1.75-34.59,1.76-35.38v-.25c.12-7.12.62-30.82,2-37.23a57.68,57.68,0,0,1,8.52-20.41c3.92-5.52,21.4-18.88,22.14-19.45a.54.54,0,0,1,.43-.09.5.5,0,0,1,.33.29c2.76,6.22,10.08,22.64,10.85,23.77,1.13,1.65,9.61,34.29,13,49.49,3.61,16.13,5.62,35.42,5.64,35.61a.49.49,0,0,1-.33.52,110.63,110.63,0,0,1-30.69,5.37C386.72,304.83,385.19,304.85,383.67,304.85Zm-28.1-2.71a243.75,243.75,0,0,0,32.65,1.65,110.82,110.82,0,0,0,30-5.18c-.31-2.84-2.27-20.3-5.59-35.1-3.73-16.66-12-47.75-12.87-49.15S390.7,194.62,389.1,191c-3,2.28-18,14-21.42,18.85a56.66,56.66,0,0,0-8.37,20c-1.37,6.32-1.87,29.93-2,37v.27C357.3,268,355.79,297.85,355.57,302.14Z" style="fill:#263238"></path><path d="M385,292.26a.63.63,0,0,1-.19,0l-21.61-8.83a.51.51,0,0,1-.28-.63l1.59-4.45a.5.5,0,0,1,.64-.3.49.49,0,0,1,.3.64l-1.42,4,20.62,8.43,1.08-4.66L370.4,280a.52.52,0,0,1-.27-.66.5.5,0,0,1,.66-.26l15.68,6.61a.48.48,0,0,1,.29.57l-1.31,5.65a.51.51,0,0,1-.26.33A.59.59,0,0,1,385,292.26Z" style="fill:#263238"></path><path d="M389.3,190.23s-18.11,13.82-22,19.34-6.89,13.06-8.45,20.23a116,116,0,0,0-1.28,14.09l.18.1A73.11,73.11,0,0,1,367,222.77c7-11.06,15-16.89,19.67-21a29.49,29.49,0,0,0,5.12-6Z" style="fill:#bdbdbd"></path><path d="M357.72,244.49a.48.48,0,0,1-.24-.06l-.18-.1a.49.49,0,0,1-.26-.46,109.35,109.35,0,0,1,1.3-14.18,57.68,57.68,0,0,1,8.52-20.41c3.92-5.52,21.4-18.88,22.14-19.45a.54.54,0,0,1,.43-.09.5.5,0,0,1,.33.29l2.47,5.55a.48.48,0,0,1,0,.48,29.82,29.82,0,0,1-5.21,6.1q-1,.89-2.22,1.89c-4.79,4-11.36,9.59-17.36,19a73.07,73.07,0,0,0-9.19,21.05.49.49,0,0,1-.29.35A.46.46,0,0,1,357.72,244.49ZM389.1,191c-3,2.28-18,14-21.42,18.85a56.66,56.66,0,0,0-8.37,20,83.66,83.66,0,0,0-1.06,10.36,77.64,77.64,0,0,1,8.31-17.77c6.07-9.53,12.71-15.13,17.56-19.22.79-.67,1.53-1.29,2.2-1.88a28.92,28.92,0,0,0,4.89-5.66Z" style="fill:#263238"></path><path d="M412,296.25a.5.5,0,0,1-.48-.37.49.49,0,0,1,.35-.62c1.63-.44,3.2-.92,4.69-1.43a.51.51,0,0,1,.64.31.5.5,0,0,1-.31.63c-1.51.52-3.11,1-4.76,1.46Z" style="fill:#263238"></path><path d="M377.27,300.12a194.77,194.77,0,0,1-20.39-1,.5.5,0,0,1-.44-.56.49.49,0,0,1,.55-.43c.28,0,27.55,3.17,50.54-1.81a.5.5,0,0,1,.21,1A147.93,147.93,0,0,1,377.27,300.12Z" style="fill:#263238"></path><path d="M308.55,187.6s6.32-6.33,8.33-6.29,16.62,9.85,15.59,11-10.36,6.68-11.37,7-4.68-9.88-4.68-9.88l-3,.52,0,6.09h0a31,31,0,0,0,9,10.75c3.29,2.48,7,6.27,7.25,11,.53,8.64-.81,10.48-3,12.45s-5.49,2-14.3,3.26-12.1.34-16.12-6.51a15.44,15.44,0,0,1,3.29-19.2c5.27-4.35,5.71-4.92,7.24-8.91S308.55,187.6,308.55,187.6Z" style="fill:#92E3A9"></path><path d="M306.8,234.39c-5,0-7.84-1.79-11-7.24a15.86,15.86,0,0,1,3.4-19.85c5.33-4.39,5.62-4.87,7.1-8.7s1.79-10.95,1.79-11a.52.52,0,0,1,.14-.33c1.08-1.08,6.54-6.44,8.68-6.44h0c1.93,0,15,8.57,16,10.94a.77.77,0,0,1-.09.88c-1.08,1.18-10.48,6.79-11.62,7.09-.43.12-1.42.38-5.13-9.8l-2.2.38,0,5.55a30.58,30.58,0,0,0,8.83,10.47c3.22,2.44,7.13,6.38,7.44,11.34.54,8.84-.91,10.83-3.17,12.85-1.87,1.67-4.37,2-9.85,2.73-1.37.18-2.93.39-4.72.65A39.84,39.84,0,0,1,306.8,234.39ZM309,187.82c-.06,1.21-.43,7.45-1.85,11.14-1.58,4.1-2.13,4.78-7.39,9.11a15,15,0,0,0-3.18,18.57c4,6.77,7.23,7.48,15.62,6.26,1.79-.26,3.35-.47,4.73-.65,5.27-.7,7.67-1,9.31-2.48,2.11-1.89,3.35-3.64,2.84-12.05-.28-4.58-4-8.29-7.05-10.6a31.52,31.52,0,0,1-9.16-10.93.46.46,0,0,1-.06-.23l0-6.08a.5.5,0,0,1,.41-.49l3-.53a.5.5,0,0,1,.55.33c1.5,4.14,3.48,8.83,4.21,9.52A91.44,91.44,0,0,0,332,192.07c-.86-1.78-13.24-10.22-15.11-10.26h0C315.56,181.81,311.44,185.43,309,187.82Z" style="fill:#263238"></path><path d="M320.19,216.88a8.8,8.8,0,1,0-9,8.61A8.8,8.8,0,0,0,320.19,216.88Z"></path><path d="M311.51,223.14l0-1a2.38,2.38,0,0,1-1.83-.84,3.62,3.62,0,0,1-.62-2.16l1.55-.27a4.25,4.25,0,0,0,.11,1,1.36,1.36,0,0,0,.32.67.88.88,0,0,0,.62.25.72.72,0,0,0,.62-.24,1,1,0,0,0,.2-.65,1.71,1.71,0,0,0-.27-1,5.06,5.06,0,0,0-.74-.84l-1.22-1.1a4.28,4.28,0,0,1-.57-.65,2.65,2.65,0,0,1-.38-.75,2.9,2.9,0,0,1-.12-1,2.25,2.25,0,0,1,.66-1.69,2.43,2.43,0,0,1,1.69-.64l0-1h.52l0,1a2.23,2.23,0,0,1,1,.3,1.81,1.81,0,0,1,.62.61,2.77,2.77,0,0,1,.33.83,4.85,4.85,0,0,1,.11.95l-1.51.23a6.33,6.33,0,0,0-.08-.82,1.08,1.08,0,0,0-.26-.58.68.68,0,0,0-.58-.2.76.76,0,0,0-.62.25.93.93,0,0,0-.22.63,1.38,1.38,0,0,0,.21.84,3.92,3.92,0,0,0,.55.64l1.2,1.09a6.41,6.41,0,0,1,.69.78,3.06,3.06,0,0,1,.51.92,3,3,0,0,1,.17,1.15,2.43,2.43,0,0,1-.28,1.16,2.19,2.19,0,0,1-.74.8,2.51,2.51,0,0,1-1.13.36l0,1Z" style="fill:#fff"></path><path d="M312.29,197s1.5,5.22,2.51,7.92" style="fill:#fff"></path><path d="M314.8,205.45a.48.48,0,0,1-.46-.32c-1-2.7-2.51-7.91-2.53-8a.5.5,0,0,1,.35-.62.49.49,0,0,1,.61.34c0,.05,1.51,5.23,2.5,7.89a.5.5,0,0,1-.29.64A.57.57,0,0,1,314.8,205.45Z" style="fill:#263238"></path><path d="M309.61,205.7h-.05a.5.5,0,0,1-.44-.55l.66-5.71a.5.5,0,1,1,1,.12l-.66,5.7A.51.51,0,0,1,309.61,205.7Z" style="fill:#263238"></path><path d="M320.15,189.65a.47.47,0,0,1-.28-.09c-1.18-.82-4.8-.7-6.1-.59a.5.5,0,0,1-.27-.94l4.7-2.4a.51.51,0,0,1,.68.22.5.5,0,0,1-.22.67L316,187.89c1.56,0,3.49.17,4.46.85a.5.5,0,0,1,.12.7A.48.48,0,0,1,320.15,189.65Z" style="fill:#263238"></path><path d="M332.6,239.24l-7.12-3.76s-3.3-4.87-3.88-5.69-3-1.06-5.56-2.32-5.37-1.51-4.61.3,3.36,2.08,4.15,2.69a8.24,8.24,0,0,1,1.55,2,26.89,26.89,0,0,1-12.42.53c-2.79-.66-5.58-1.12-5.58-1.12s.35,2.41,1.33,3.23a29.65,29.65,0,0,0,4.76,2.31,29.06,29.06,0,0,0,7.33,3.56c3.38.87,8.61-.22,8.61-.22l7.29,5.37Z" style="fill:#fff"></path><path d="M328.45,246.66a.54.54,0,0,1-.3-.1L321,241.33c-1.05.2-5.52,1-8.62.16a28.76,28.76,0,0,1-7.44-3.6,27.09,27.09,0,0,1-4.84-2.36c-1.1-.92-1.46-3.28-1.5-3.55a.49.49,0,0,1,.57-.56s2.84.47,5.62,1.13a18.92,18.92,0,0,0,7.43.35,24.5,24.5,0,0,0,4.12-.69,6.21,6.21,0,0,0-1.11-1.35,4.59,4.59,0,0,0-1-.46c-1.12-.42-2.65-1-3.26-2.43a1.3,1.3,0,0,1,.19-1.58c.89-.85,3.2-.29,5.1.63a22.62,22.62,0,0,0,3.17,1.21c1.25.4,2.16.69,2.57,1.27.54.76,3.33,4.87,3.82,5.6l7,3.7a.5.5,0,0,1,.2.7l-4.15,6.91a.56.56,0,0,1-.33.24Zm-7.29-6.37a.51.51,0,0,1,.29.1l6.85,5,3.6-6-6.66-3.51a.58.58,0,0,1-.18-.17s-3.3-4.88-3.87-5.67a5.43,5.43,0,0,0-2.06-.91,23.33,23.33,0,0,1-3.31-1.26c-2-1-3.65-1.12-4-.81-.09.1,0,.38.05.47.44,1,1.69,1.51,2.69,1.88a5.11,5.11,0,0,1,1.3.61,8.55,8.55,0,0,1,1.69,2.19.49.49,0,0,1,0,.41.47.47,0,0,1-.28.29,19.46,19.46,0,0,1-5,.93,19.67,19.67,0,0,1-7.76-.37c-1.91-.45-3.83-.81-4.84-1a4.66,4.66,0,0,0,1,2.23A27.06,27.06,0,0,0,305.4,237l.1.05a28.37,28.37,0,0,0,7.17,3.49c3.23.84,8.34-.21,8.39-.22Z" style="fill:#263238"></path><path d="M377.19,213.78s-7,6.86-7.85,11-4,28.14-4,28.14L330,237.38l-4.67,12.11S374,276.36,375.62,276.8s5.84-1.68,5.84-1.68l14.9-50.31a27.78,27.78,0,0,0-1.23-7.63" style="fill:#bdbdbd"></path><path d="M376.11,277.36a2.33,2.33,0,0,1-.62-.08c-1.6-.44-45.37-24.6-50.36-27.35a.5.5,0,0,1-.22-.62l4.66-12.11a.51.51,0,0,1,.28-.28.48.48,0,0,1,.39,0l34.68,15.3c.52-4,3.12-23.7,3.93-27.51.91-4.28,7.7-11,8-11.29a.5.5,0,0,1,.71,0,.51.51,0,0,1,0,.71c-.07.07-6.86,6.8-7.71,10.79s-4,27.85-4,28.09a.47.47,0,0,1-.25.37.49.49,0,0,1-.44,0l-34.81-15.37L326,249.26c13.72,7.58,48.3,26.61,49.76,27.06,1,.27,3.68-.77,5.29-1.55l14.81-50a28.22,28.22,0,0,0-1.21-7.41.49.49,0,0,1,.33-.62.51.51,0,0,1,.63.33,28.07,28.07,0,0,1,1.25,7.79.59.59,0,0,1,0,.13l-14.9,50.32a.48.48,0,0,1-.26.3C381.28,275.77,378,277.35,376.11,277.36Z" style="fill:#263238"></path><path d="M366.76,261.1a.51.51,0,0,1-.49-.41l-1.43-7.64a.5.5,0,0,1,.28-.55.51.51,0,0,1,.6.15l6,7.53a.5.5,0,0,1-.78.63l-4.79-6,1.07,5.67a.51.51,0,0,1-.4.59Z" style="fill:#263238"></path><path d="M301.84,187.71s-.07,3.28.69,4.07,6.56.33,7.16-.62,1-2.49.06-2.89S302.25,186.75,301.84,187.71Z" style="fill:#fff"></path><path d="M304.75,192.69a4.23,4.23,0,0,1-2.59-.56c-.85-.9-.83-3.85-.82-4.43a.58.58,0,0,1,0-.19c.14-.32.42-1,4.27-.53a22.76,22.76,0,0,1,4.3.83,1.36,1.36,0,0,1,.78.87,3.7,3.7,0,0,1-.62,2.75c-.45.71-2.19,1-3.57,1.16A16.75,16.75,0,0,1,304.75,192.69Zm-2.41-4.76c0,1.44.19,3.13.55,3.5a8.11,8.11,0,0,0,3.56.17,6,6,0,0,0,2.82-.71,2.82,2.82,0,0,0,.51-1.91.34.34,0,0,0-.23-.25C308.6,188.32,303.33,187.52,302.34,187.93Z" style="fill:#263238"></path><path d="M302.53,191.78s-.65,3.27.11,3.87,3.67-.31,5.62-.85,1.43-3.64,1.43-3.64Z" style="fill:#fff"></path><path d="M303.48,196.34a1.85,1.85,0,0,1-1.15-.3c-.91-.71-.51-3.28-.29-4.36a.49.49,0,0,1,.44-.4l7.16-.62a.49.49,0,0,1,.54.42c0,.15.56,3.55-1.79,4.2l-.56.16A19,19,0,0,1,303.48,196.34Zm-.53-4.09c-.24,1.41-.25,2.78,0,3,.5.39,3.28-.4,4.62-.77l.56-.16c1.11-.3,1.16-1.84,1.12-2.62Z" style="fill:#263238"></path><path d="M302.64,195.65s-.46,1.88.67,2.76,5.34-.74,5.92-1.2-.13-2.67-.13-2.67S304.09,195.87,302.64,195.65Z" style="fill:#fff"></path><path d="M304.36,199.16a2.22,2.22,0,0,1-1.36-.35c-1.36-1.07-.87-3.19-.85-3.28a.5.5,0,0,1,.56-.38c1.1.17,4.9-.73,6.26-1.09a.51.51,0,0,1,.61.33c.24.76.73,2.6,0,3.21A12.3,12.3,0,0,1,304.36,199.16Zm-1.3-3a2.09,2.09,0,0,0,.56,1.85c.81.64,4.73-.74,5.3-1.2a3.63,3.63,0,0,0-.16-1.67A32.22,32.22,0,0,1,303.06,196.17Z" style="fill:#263238"></path><path d="M303.31,198.41a4.76,4.76,0,0,0,1.19,1.93c.75.59,3.9,0,4.41-1.23a3.29,3.29,0,0,0,.32-1.9A29.28,29.28,0,0,1,303.31,198.41Z" style="fill:#fff"></path><path d="M305.51,201.07a2.21,2.21,0,0,1-1.32-.33,5.17,5.17,0,0,1-1.36-2.17.52.52,0,0,1,.07-.45.56.56,0,0,1,.42-.2h.08a29.92,29.92,0,0,0,5.69-1.19.5.5,0,0,1,.63.35,3.78,3.78,0,0,1-.35,2.22c-.39,1-1.76,1.41-2.32,1.56A6.43,6.43,0,0,1,305.51,201.07ZM304,198.88a3.16,3.16,0,0,0,.77,1.07,3.23,3.23,0,0,0,2-.06,2.5,2.5,0,0,0,1.65-1,4.53,4.53,0,0,0,.3-1A33.29,33.29,0,0,1,304,198.88Z" style="fill:#263238"></path><path d="M313.39,189.88s-.41,5.89,0,6.09,1.7.89,2.38.24,2.59-5.27,1.94-6.43S313.8,188.65,313.39,189.88Z" style="fill:#fff"></path><path d="M315,197a4.18,4.18,0,0,1-1.86-.57c-.31-.16-.66-.35-.23-6.57a.27.27,0,0,1,0-.12c.23-.7,1-1.16,2.15-1.26s2.55.19,3,1.08c.83,1.49-1.35,6.38-2,7A1.52,1.52,0,0,1,315,197Zm-1.24-1.37c1.08.53,1.49.38,1.64.24.61-.58,2.34-4.95,1.86-5.83a2.42,2.42,0,0,0-2.08-.57,1.72,1.72,0,0,0-1.28.54A43.88,43.88,0,0,0,313.74,195.61Zm0,.1h0Z" style="fill:#263238"></path></g><g id="freepik--character-1--inject-88"><polygon points="153.26 225.56 166.08 244.12 191.89 224.55 192.9 232.94 163 265.19 153.26 225.56" style="fill:#263238"></polygon><path d="M163,265.69a.32.32,0,0,1-.13,0,.5.5,0,0,1-.36-.36l-9.74-39.64a.5.5,0,0,1,.9-.4l12.53,18.14,25.38-19.26a.5.5,0,0,1,.5-.06.48.48,0,0,1,.3.4l1,8.4a.47.47,0,0,1-.13.39l-29.89,32.25A.52.52,0,0,1,163,265.69Zm-8.61-37.61,8.87,36.09,29.11-31.4-.88-7.3-25.1,19.05a.49.49,0,0,1-.39.09.5.5,0,0,1-.33-.2Z" style="fill:#263238"></path><path d="M254.6,174.51a43.92,43.92,0,1,0-77.66,28.1,43.11,43.11,0,0,1,10,27.63v6h47.47v-6a43,43,0,0,1,10-27.61A43.74,43.74,0,0,0,254.6,174.51Z" style="fill:#fff"></path><path d="M234.42,236.75H187a.5.5,0,0,1-.5-.5v-6a42.73,42.73,0,0,0-9.89-27.31,44.42,44.42,0,1,1,68.23,0,42.6,42.6,0,0,0-9.87,27.29v6A.5.5,0,0,1,234.42,236.75Zm-47-1h46.47v-5.51A43.62,43.62,0,0,1,244,202.31a43.42,43.42,0,1,0-66.69,0,43.76,43.76,0,0,1,10.12,28Z" style="fill:#263238"></path><path d="M203.63,238.81a.5.5,0,0,1-.5-.48c0-.29-.86-19.72-2.16-35.23a21,21,0,0,1-6.7-12.51c-.89-6-.26-10.36,1.57-10.75,1.37-.3,2.74,1.65,3.84,5.48.84,2.94,1.61,9.63,2.26,17.29a14,14,0,0,0,2.66,1.78c2.77,1.45,5.49,1.64,7.67.56a16.84,16.84,0,0,0,3.38-2.33,66.26,66.26,0,0,1,1.42-11.27c2.81-11.51,4.5-13,5.67-13h0c1.13,0,1.92,1.52,2.55,4.85,1.33,6.91-3.51,15.24-8.69,19.92-.82,14.9.46,34.63.47,34.89a.5.5,0,0,1-.46.53.51.51,0,0,1-.53-.47c-.07-1-1.26-19.44-.54-34.05a16,16,0,0,1-2.86,1.87c-2.47,1.24-5.51,1-8.57-.56a14.86,14.86,0,0,1-2.09-1.31c1.24,15,2,33.15,2.08,34.32a.5.5,0,0,1-.48.52Zm19.11-59.51c-.29,0-1.86.62-4.7,12.29a62.61,62.61,0,0,0-1.32,10c4.68-4.55,8.83-12,7.62-18.31-.75-3.9-1.51-4-1.59-4Zm-26.64,1.51h0c-.75.16-1.74,3.15-.79,9.63a20.06,20.06,0,0,0,5.58,11.17c-.62-7.17-1.35-13.31-2.12-16C197.59,181.64,196.49,180.81,196.1,180.81Z" style="fill:#263238"></path><rect x="186.95" y="236.27" width="47.47" height="11.74" style="fill:#263238"></rect><path d="M234.42,248.51H187a.5.5,0,0,1-.5-.5V236.27a.5.5,0,0,1,.5-.5h47.47a.5.5,0,0,1,.5.5V248A.51.51,0,0,1,234.42,248.51Zm-47-1h46.47V236.77H187.45Z" style="fill:#263238"></path><path d="M186.95,248h47.47a0,0,0,0,1,0,0v9.23a2.51,2.51,0,0,1-2.51,2.51H189.45a2.51,2.51,0,0,1-2.51-2.51V248A0,0,0,0,1,186.95,248Z" style="fill:#263238"></path><path d="M231.91,260.28H189.45a3,3,0,0,1-3-3V248a.5.5,0,0,1,.5-.5h47.47a.5.5,0,0,1,.5.5v9.23A3,3,0,0,1,231.91,260.28Zm-44.46-11.74v8.73a2,2,0,0,0,2,2h42.46a2,2,0,0,0,2-2v-8.73Z" style="fill:#263238"></path><path d="M192.94,259.77h35.49a0,0,0,0,1,0,0V269a2.51,2.51,0,0,1-2.51,2.51H195.44a2.51,2.51,0,0,1-2.51-2.51v-9.23A0,0,0,0,1,192.94,259.77Z" style="fill:#263238"></path><path d="M225.92,272H195.44a3,3,0,0,1-3-3v-9.23a.5.5,0,0,1,.5-.5h35.49a.5.5,0,0,1,.5.5V269A3,3,0,0,1,225.92,272Zm-32.48-11.74V269a2,2,0,0,0,2,2h30.48a2,2,0,0,0,2-2v-8.73Z" style="fill:#263238"></path><path d="M280.94,175.24h-4.78a.5.5,0,0,1-.5-.5.5.5,0,0,1,.5-.5h4.78a.5.5,0,0,1,.5.5A.5.5,0,0,1,280.94,175.24Z" style="fill:#263238"></path><path d="M271.44,175.24H260.83a.5.5,0,0,1-.5-.5.5.5,0,0,1,.5-.5h10.61a.5.5,0,0,1,.5.5A.5.5,0,0,1,271.44,175.24Z" style="fill:#263238"></path><path d="M158.91,175.24H138.54a.5.5,0,0,1-.5-.5.5.5,0,0,1,.5-.5h20.37a.5.5,0,0,1,.5.5A.5.5,0,0,1,158.91,175.24Z" style="fill:#263238"></path><path d="M209.74,124.21a.5.5,0,0,1-.5-.5V103.54a.5.5,0,0,1,1,0v20.17A.5.5,0,0,1,209.74,124.21Z" style="fill:#263238"></path><path d="M250,135a.51.51,0,0,1-.36-.15.51.51,0,0,1,0-.71l10.05-10a.51.51,0,0,1,.71,0,.5.5,0,0,1,0,.71L250.39,134.8A.5.5,0,0,1,250,135Z" style="fill:#263238"></path><path d="M246.2,138.78a.5.5,0,0,1-.35-.85l1.61-1.61a.5.5,0,0,1,.7,0,.5.5,0,0,1,0,.71l-1.6,1.6A.51.51,0,0,1,246.2,138.78Z" style="fill:#263238"></path><path d="M163.16,221.82a.5.5,0,0,1-.35-.85l10.32-10.32a.48.48,0,0,1,.7,0,.5.5,0,0,1,0,.71l-10.32,10.32A.52.52,0,0,1,163.16,221.82Z" style="fill:#263238"></path><path d="M159.39,225.59a.5.5,0,0,1-.35-.85l1.92-1.93a.51.51,0,0,1,.71,0,.5.5,0,0,1,0,.71l-1.93,1.92A.47.47,0,0,1,159.39,225.59Z" style="fill:#263238"></path><path d="M168.89,134.4a.5.5,0,0,1-.35-.15l-9.5-9.5a.5.5,0,0,1,0-.71.5.5,0,0,1,.7,0l9.51,9.5a.51.51,0,0,1,0,.71A.51.51,0,0,1,168.89,134.4Z" style="fill:#263238"></path><path d="M172.88,138.38a.51.51,0,0,1-.36-.15L170.24,136a.5.5,0,0,1,0-.7.5.5,0,0,1,.71,0l2.28,2.28a.5.5,0,0,1-.35.85Z" style="fill:#263238"></path><path d="M257.22,222.73a.49.49,0,0,1-.35-.15L246.31,212a.5.5,0,0,1,0-.71.48.48,0,0,1,.7,0l10.57,10.56a.51.51,0,0,1,0,.71A.51.51,0,0,1,257.22,222.73Z" style="fill:#263238"></path><path d="M260.09,225.59a.51.51,0,0,1-.36-.15l-1.16-1.16a.5.5,0,0,1,0-.7.5.5,0,0,1,.71,0l1.16,1.16a.5.5,0,0,1-.35.85Z" style="fill:#263238"></path><path d="M127.26,285.59s-1,18.88-1,24,3.52,17.61,3.52,17.61l-1,65.3-5.13,68.18s-3.2,9.28-1.92,10.24,15.69,1.92,19.85,2.24,13.12,1.92,14.08,0-9.6-6.72-11.84-9.28-4.16-5.12-4.16-5.12l3.2-5.44s-.32-7.37-.32-8.65,11.2-83.22,11.2-83.22l7.05,84.18L159.58,453l2.89,6.4s-1.6,8.32-.32,9,9.92-.64,11.2-.32,6.72,2.56,9.28,2.56,10.88-.64,13.45-1.92-1.61-2.56-3.85-3.84-12.48-7.68-12.48-7.68l.32-4.16s-1.28-1.6-2.24-7.05,1.6-24.64,1.28-34.25-.32-57-1.28-78.1-6.72-47.69-6.72-47.69Z" style="fill:#263238"></path><path d="M152.19,474.59a70.18,70.18,0,0,1-7.3-.59c-1.23-.14-2.36-.27-3.27-.34l-1.68-.13c-10.3-.76-17.38-1.43-18.43-2.21-1.36-1,.49-7.14,1.73-10.74l5.12-68.12,1-65.19c-.32-1.12-3.52-12.69-3.52-17.68s1-23.84,1-24a.5.5,0,0,1,.5-.47l43.85.32a.49.49,0,0,1,.49.39c.05.27,5.78,26.85,6.73,47.78.62,13.63.84,38.37,1,56.44.09,10.2.17,18.26.28,21.67.15,4.48-.32,11-.78,17.29-.52,7.21-1,14-.51,16.89.92,5.18,2.13,6.8,2.14,6.82a.47.47,0,0,1,.11.34l-.3,3.86c1.6,1,10.2,6.37,12.21,7.51.48.28,1.08.57,1.65.84,1.74.84,3.24,1.56,3.25,2.58,0,.76-.81,1.17-1.08,1.31-2.76,1.38-11.33,2-13.67,2-1.94,0-5.35-1.19-7.6-2-.79-.27-1.47-.51-1.8-.59a29.6,29.6,0,0,0-4.41.2c-3.65.31-6.1.47-6.9.08-1.38-.7-.6-6.09,0-9.35l-2.81-6.26a.57.57,0,0,1,0-.29l1.27-7.3L153.7,366c-4,29-10.54,77.42-10.58,78.66s.32,8.54.32,8.61a.53.53,0,0,1-.07.28l-3,5.15c.55.72,2.15,2.79,3.94,4.83a30.68,30.68,0,0,0,5.41,3.79c4.51,2.79,7.24,4.57,6.5,6C155.75,474.27,154.32,474.59,152.19,474.59Zm-24.46-188.5c-.15,3-.93,18.91-.93,23.5,0,5,3.46,17.35,3.5,17.47a.77.77,0,0,1,0,.15l-1,65.3-5.13,68.2a.51.51,0,0,1,0,.13c-1.62,4.7-2.58,9.13-2.09,9.69,1,.76,13.73,1.7,17.9,2l1.68.12c.91.07,2.06.21,3.3.35,3.39.39,9.7,1.11,10.3-.07.36-.73-4-3.44-6.14-4.75-2.4-1.48-4.68-2.88-5.64-4-2.22-2.55-4.16-5.13-4.18-5.15a.52.52,0,0,1,0-.56l3.12-5.31c0-1.08-.31-7.33-.31-8.52s10.75-79.94,11.21-83.29a.5.5,0,0,1,1,0l7,84.18a.29.29,0,0,1,0,.13l-1.26,7.21,2.82,6.26a.52.52,0,0,1,0,.3c-.79,4.12-1.05,8-.57,8.43s4.05,0,6.34-.18a25,25,0,0,1,4.74-.19c.37.1,1,.33,1.89.63,2.19.76,5.5,1.92,7.27,1.92,2.44,0,10.77-.64,13.22-1.87.49-.24.53-.4.53-.4,0-.4-1.81-1.27-2.68-1.69-.59-.28-1.2-.57-1.71-.87-2.23-1.27-12.09-7.43-12.5-7.69a.51.51,0,0,1-.24-.46l.31-4c-.36-.55-1.41-2.49-2.22-7.09-.53-3,0-9.86.5-17.14.45-6.27.92-12.75.77-17.18-.11-3.42-.19-11.48-.28-21.69-.16-18.06-.38-42.8-1-56.41-.88-19.45-5.92-43.84-6.63-47.21Z" style="fill:#263238"></path><path d="M149.31,202.92l7.2,2.12.64,9.12-4.88-1.91s10.82,34.78,15.48,46.44,7.21,28.62,6.36,29.47,1.06,2.76-11,2.76-36-.85-37.74-1.91-1.06-20.57-.64-24-2.33-26.72-4-34.14,5.51-28.41,5.51-28.41Z" style="fill:#fff"></path><path d="M163.09,291.42c-10.64,0-36-.75-38-2-2.19-1.37-1.1-22.57-.87-24.44.42-3.37-2.32-26.54-4-34s5.23-27.82,5.53-28.68a.47.47,0,0,1,.48-.34l23.11.42.14,0,7.21,2.12a.49.49,0,0,1,.35.45l.64,9.12a.51.51,0,0,1-.2.43.49.49,0,0,1-.48.07l-3.91-1.53c1.81,5.77,11,35,15.16,45.4,4.34,10.85,7.5,28.76,6.25,30a.87.87,0,0,0-.17.35C173.9,290,173.4,291.42,163.09,291.42ZM126.55,203c-.92,2.74-6.91,21.11-5.38,27.79,1.71,7.48,4.46,30.89,4,34.31-.54,4.31-.87,22.3.41,23.48,1.38.86,23.51,1.83,37.47,1.83,9.6,0,10-1.19,10.27-1.9a1.77,1.77,0,0,1,.4-.71c.53-1.3-1.89-17.49-6.47-28.94S151.9,212.75,151.8,212.4a.49.49,0,0,1,.13-.51.51.51,0,0,1,.53-.1l4.14,1.62-.56-8-6.81-2Z" style="fill:#263238"></path><path d="M135.1,146.1s-14.84-2.55-17.39.21,0,9.12,0,9.12-2.54-3.18-2.33,0,4.88,17.39,4.88,17.39l5.93,8.9c.43.64,1.7,15.69,1.7,15.69l19.51,5.51-1.91-12.29s10,.42,10.81-.85.21-12.3.21-12.3,2.55-1.7,2.55-2.54-5.51-8.7-5.73-9.33.64-2.12,1.06-3.61-2.75-12.3-2.75-12.3a3.57,3.57,0,0,0,1.27-3.39c-.42-2.12-9.33-7.63-8.69-5.94s1.06,3.18,1.06,3.18-9.33-4.45-11-2.12S135.1,146.1,135.1,146.1Z" style="fill:#fff"></path><path d="M147.4,203.42a.34.34,0,0,1-.14,0l-19.51-5.51a.49.49,0,0,1-.36-.44c-.47-5.59-1.33-14.74-1.64-15.5l-5.91-8.86-.06-.12c-.19-.58-4.69-14.3-4.9-17.51,0-.68,0-1.61.68-1.88a1.26,1.26,0,0,1,1.09.18c-.59-2.19-1.15-5.78.69-7.79,2.28-2.47,12.68-1.16,16.54-.57a3.66,3.66,0,0,1,0-4.26c1.59-2.19,7.87.27,10.62,1.49-.18-.56-.43-1.3-.72-2.08a.72.72,0,0,1,.1-.77,1,1,0,0,1,1-.15c1.86.52,8.09,4.5,8.51,6.58a4,4,0,0,1-1.19,3.66c.69,2.37,3.09,10.8,2.66,12.27a16.52,16.52,0,0,1-.58,1.64,5.06,5.06,0,0,0-.48,1.67c.09.23,1,1.67,1.87,2.93,2.86,4.34,3.88,6,3.88,6.56,0,.92-1.62,2.16-2.53,2.79.13,2.39.55,11-.31,12.33s-7.31,1.21-10.64,1.09l1.81,11.7a.48.48,0,0,1-.16.45A.5.5,0,0,1,147.4,203.42Zm-19-6.4,18.42,5.21L145,190.7a.51.51,0,0,1,.13-.41.45.45,0,0,1,.39-.16c4.57.19,9.84,0,10.38-.63s.43-6.65.13-12a.5.5,0,0,1,.22-.45,7.06,7.06,0,0,0,2.32-2.13,61,61,0,0,0-3.71-6,29.61,29.61,0,0,1-2-3.17,4,4,0,0,1,.5-2.34c.2-.51.4-1,.55-1.56.27-.92-1.45-7.58-2.75-12a.49.49,0,0,1,.18-.54,3.05,3.05,0,0,0,1.08-2.89c-.29-1.45-5.77-5.09-7.57-5.75.55,1.5.89,2.7.91,2.76a.51.51,0,0,1-.16.52.53.53,0,0,1-.54.07c-3.72-1.78-9.4-3.66-10.41-2.28-1.4,1.94.7,3.92.79,4a.52.52,0,0,1,.11.59.5.5,0,0,1-.54.27c-4-.69-15-2-16.93.06-2.3,2.49.07,8.53.1,8.59a.5.5,0,0,1-.22.62.51.51,0,0,1-.64-.12,3.84,3.84,0,0,0-1.41-1.22,3.81,3.81,0,0,0,0,.88c.2,3,4.49,16.15,4.83,17.19l5.9,8.85C127,182.08,127.87,191.32,128.36,197Z" style="fill:#263238"></path><polygon points="145.49 190.63 137.23 189.44 146.19 196.49 145.49 190.63" style="fill:#263238"></polygon><path d="M146.19,197a.51.51,0,0,1-.31-.11l-9-7a.49.49,0,0,1,.38-.88l8.26,1.18a.49.49,0,0,1,.42.44l.7,5.86a.49.49,0,0,1-.25.5A.5.5,0,0,1,146.19,197ZM139,190.2l6.55,5.15-.51-4.28Z" style="fill:#263238"></path><path d="M152.91,146.31c-.42-2.12-9.33-7.63-8.69-5.94s1.06,3.18,1.06,3.18-9.33-4.45-11-2.12.85,4.67.85,4.67-14.84-2.55-17.39.21,0,9.12,0,9.12-2.54-3.18-2.33,0,4.88,17.39,4.88,17.39l3.47,5.2,4.16-4.57s2.33-.85,2.76-1.48-2.34-5.09-2.34-5.09a21.64,21.64,0,0,0,6.79-4.24c2.76-2.76-3.82-6.36-3.82-6.36l11.45-1.91-2.54-2.76L148,151l-2.12-1.28h5.73A3.57,3.57,0,0,0,152.91,146.31Z" style="fill:#92E3A9"></path><path d="M123.73,178.52h0a.5.5,0,0,1-.38-.22l-3.47-5.21-.06-.12c-.19-.58-4.69-14.3-4.9-17.51,0-.68,0-1.61.68-1.88a1.26,1.26,0,0,1,1.09.18c-.59-2.19-1.15-5.78.69-7.79,2.28-2.47,12.68-1.16,16.54-.57a3.66,3.66,0,0,1,0-4.26c1.59-2.19,7.87.27,10.62,1.49-.18-.56-.43-1.3-.72-2.08a.72.72,0,0,1,.1-.77,1,1,0,0,1,1-.15c1.86.52,8.09,4.5,8.51,6.58h0a4,4,0,0,1-1.46,3.89.47.47,0,0,1-.3.1h-3.92l.57.35a.49.49,0,0,1-.22.92l-6.82.56,1.85,2a.53.53,0,0,1,.11.5.51.51,0,0,1-.4.33l-10.14,1.69c1.32.9,3.33,2.52,3.58,4.24a2.5,2.5,0,0,1-.8,2.2,21.1,21.1,0,0,1-6.4,4.13c2.58,4.27,2.16,4.91,2,5.12-.45.68-2.19,1.38-2.88,1.64l-4.08,4.48A.52.52,0,0,1,123.73,178.52Zm-3-5.93,3.08,4.62,3.73-4.1a.46.46,0,0,1,.2-.13,9.06,9.06,0,0,0,2.47-1.24,19.73,19.73,0,0,0-2.3-4.6.48.48,0,0,1,0-.42.49.49,0,0,1,.3-.31,21.22,21.22,0,0,0,6.61-4.13,1.53,1.53,0,0,0,.51-1.35c-.24-1.69-3.13-3.62-4.22-4.22a.5.5,0,0,1-.25-.52.51.51,0,0,1,.41-.41L141.74,154,139.82,152a.5.5,0,0,1-.1-.52.52.52,0,0,1,.43-.32l6.29-.51-.78-.47a.49.49,0,0,1-.23-.56.5.5,0,0,1,.48-.37h5.54a3,3,0,0,0,1-2.79c-.29-1.45-5.77-5.09-7.57-5.75.55,1.5.89,2.7.91,2.76a.51.51,0,0,1-.16.52.53.53,0,0,1-.54.07c-3.72-1.78-9.4-3.66-10.41-2.28-1.4,1.94.7,3.92.79,4a.52.52,0,0,1,.11.59.5.5,0,0,1-.54.27c-4-.69-15-2-16.93.06-2.3,2.49.07,8.53.1,8.59a.5.5,0,0,1-.22.62.51.51,0,0,1-.64-.12,3.84,3.84,0,0,0-1.41-1.22,3.81,3.81,0,0,0,0,.88C116.08,158.37,120.37,171.55,120.71,172.59Z" style="fill:#263238"></path><path d="M129.8,176.63s-8.48-7.21-9.54-3.81-1.91,7.42,2.54,9.54,7.42.21,7.85-.43" style="fill:#fff"></path><path d="M126.78,183.83a9.71,9.71,0,0,1-4.19-1c-5.21-2.48-3.65-7.47-2.81-10.14a1.67,1.67,0,0,1,1.16-1.18c2.6-.75,8.52,4.19,9.18,4.76a.5.5,0,1,1-.65.76c-2.36-2-6.69-5-8.26-4.56a.7.7,0,0,0-.48.51c-1,3.31-1.79,7,2.29,8.94,4.28,2,7,.1,7.21-.24a.5.5,0,0,1,.83.55A5.49,5.49,0,0,1,126.78,183.83Z" style="fill:#263238"></path><path d="M144.43,165.68a.45.45,0,0,1-.25-.07.49.49,0,0,1-.18-.68c2.54-4.4,7.2-1.91,7.24-1.88a.5.5,0,0,1,.2.68.49.49,0,0,1-.68.19c-.15-.08-3.84-2-5.9,1.51A.5.5,0,0,1,144.43,165.68Z" style="fill:#263238"></path><path d="M149.73,168.15c0,1-.48,1.91-1.06,1.91s-1.06-.86-1.06-1.91.47-1.91,1.06-1.91S149.73,167.1,149.73,168.15Z" style="fill:#263238"></path><path d="M151.59,181.35c-1.15,0-2.79-.49-4.76-2.46a.5.5,0,0,1,0-.7.5.5,0,0,1,.71,0c3.22,3.22,5.21,1.91,5.29,1.85a.51.51,0,0,1,.7.12.5.5,0,0,1-.11.69A3.29,3.29,0,0,1,151.59,181.35Z" style="fill:#263238"></path><polygon points="124.07 195.72 151 202.08 152.27 212.25 123.86 203.56 124.07 195.72" style="fill:#fff"></polygon><path d="M152.27,212.75a.34.34,0,0,1-.14,0L123.71,204a.52.52,0,0,1-.35-.49l.21-7.85a.51.51,0,0,1,.2-.38.49.49,0,0,1,.42-.09l26.93,6.36a.51.51,0,0,1,.38.42l1.27,10.18a.51.51,0,0,1-.17.45A.57.57,0,0,1,152.27,212.75Zm-27.9-9.56,27.31,8.36-1.13-9.07-26-6.14Z" style="fill:#263238"></path><path d="M144.22,220.31l16.32,26.93,36.9-19.93.63-7.85s4.88-5.09,5.52-6.36,1.14-1.32,1.9.21c.64,1.28-.9,3.58-1.54,4s-1.64,4.06-1.64,4.06L215,212.89s2.75,0,1.48,1.7l-7.85,7.2,11.88-4.66s2.54-.42,1.27,1.91l-10,6.15,8.91-2.34s2.12-.42,1.7,1.49-10.18,4.45-10.18,4.45l7-.21a1,1,0,0,1-.22,1.91c-1.69.85-9.54,1.27-9.54,1.27l-8.05,1.91s-49.62,37.32-51.53,37.1-22.69-36.68-22.69-36.68" style="fill:#fff"></path><path d="M149.91,271.27h0c-1.95-.22-16.79-25.9-23.07-36.93a.5.5,0,1,1,.87-.49c7.67,13.46,20.39,35,22.32,36.4,2.66-.9,31.91-22.5,51.15-37a.66.66,0,0,1,.19-.09l8.06-1.91c2.24-.13,8.12-.57,9.43-1.23.32-.16.52-.34.54-.48a.78.78,0,0,0-.28-.48l-6.81.21a.52.52,0,0,1-.51-.43.51.51,0,0,1,.37-.55c4.55-1.19,9.6-3.09,9.82-4.08a.9.9,0,0,0-.07-.73c-.22-.23-.8-.2-1-.15L212,225.67a.5.5,0,0,1-.39-.91l9.85-6.08c.26-.5.27-.79.2-.9s-.63-.21-1-.16l-11.82,4.64a.51.51,0,0,1-.61-.2.49.49,0,0,1,.09-.63l7.84-7.21c.17-.25.19-.42.17-.47s-.67-.33-1.17-.36l-12.59,8.4a.5.5,0,0,1-.76-.55c.32-1.15,1.13-3.87,1.84-4.34.52-.34,1.85-2.42,1.38-3.36-.36-.71-.56-.86-.6-.88a3,3,0,0,0-.42.66c-.61,1.23-4.6,5.44-5.47,6.36l-.62,7.67a.52.52,0,0,1-.27.4l-36.89,19.93a.5.5,0,0,1-.67-.18l-16.32-26.93a.5.5,0,0,1,.17-.69.49.49,0,0,1,.68.17l16.08,26.52L197,227l.61-7.58a.49.49,0,0,1,.14-.3c1.34-1.4,4.93-5.25,5.43-6.24.3-.61.69-1.22,1.32-1.22h0c.67,0,1.13.72,1.48,1.43.8,1.59-.93,4.12-1.71,4.64a9.35,9.35,0,0,0-1,2.45l11.57-7.71a.54.54,0,0,1,.28-.08c.29,0,1.76,0,2.2.91a1.49,1.49,0,0,1-.32,1.59L211,220.35l9.39-3.69.1,0c.14,0,1.43-.22,2,.56.36.5.29,1.2-.19,2.08a.45.45,0,0,1-.18.18l-7.12,4.4,5.67-1.49a2.36,2.36,0,0,1,2,.43,1.69,1.69,0,0,1,.33,1.65c-.3,1.35-3.76,2.75-6.76,3.72l3.08-.09a.54.54,0,0,1,.31.09,1.84,1.84,0,0,1,.8,1.46,1.66,1.66,0,0,1-1.08,1.31c-1.74.87-8.93,1.28-9.74,1.32l-7.87,1.87C190,243,152.12,271.27,149.91,271.27Z" style="fill:#263238"></path><path d="M157.69,247h-.08c-11.24-1.83-24.16-9.42-24.29-9.5a.5.5,0,0,1-.18-.68.51.51,0,0,1,.69-.18c.13.08,12.89,7.58,23.94,9.37a.51.51,0,0,1,.41.58A.5.5,0,0,1,157.69,247Z" style="fill:#263238"></path><path d="M145.89,249.4a.33.33,0,0,1-.17,0,16,16,0,0,1-2.26-1.21.5.5,0,0,1-.17-.69.49.49,0,0,1,.68-.17,16.67,16.67,0,0,0,2.1,1.14.49.49,0,0,1,.29.64A.51.51,0,0,1,145.89,249.4Z" style="fill:#263238"></path><path d="M140,245.84a.53.53,0,0,1-.27-.08c-3.47-2.28-7.15-4.81-7.19-4.84a.5.5,0,0,1-.12-.69.49.49,0,0,1,.69-.13s3.71,2.55,7.17,4.82a.5.5,0,0,1,.14.69A.48.48,0,0,1,140,245.84Z" style="fill:#263238"></path><path d="M220.76,222.85l-8.91,2.34,10-6.15c1.27-2.33-1.27-1.91-1.27-1.91l-11.88,4.66,7.85-7.2c1.27-1.7-1.48-1.7-1.48-1.7l-12.73,8.48s1-3.63,1.64-4.06,2.18-2.72,1.54-4c-.76-1.53-1.27-1.48-1.9-.21s-5.52,6.36-5.52,6.36l-.63,7.85-25.74,13.9,5.79,10.3c12.26-9,24-17.84,24-17.84l8.05-1.91s7.85-.42,9.54-1.27a1,1,0,0,0,.22-1.91l-7,.21s9.75-2.54,10.18-4.45S220.76,222.85,220.76,222.85Z" style="fill:#fff"></path><path d="M177.49,252h-.1a.49.49,0,0,1-.33-.25l-5.8-10.29a.51.51,0,0,1,0-.38.55.55,0,0,1,.25-.31L197,227l.61-7.58a.49.49,0,0,1,.14-.3c1.34-1.4,4.93-5.25,5.43-6.24.3-.61.69-1.22,1.32-1.22h0c.67,0,1.13.72,1.48,1.43.8,1.59-.93,4.12-1.71,4.64a9.35,9.35,0,0,0-1,2.45l11.57-7.71a.54.54,0,0,1,.28-.08c.29,0,1.76,0,2.2.91a1.49,1.49,0,0,1-.32,1.59L211,220.35l9.39-3.69.1,0c.14,0,1.43-.22,2,.56.36.5.29,1.2-.19,2.08a.45.45,0,0,1-.18.18l-7.12,4.4,5.67-1.49h0a2.36,2.36,0,0,1,2,.44,1.69,1.69,0,0,1,.33,1.65c-.3,1.35-3.76,2.75-6.76,3.72l3.08-.09a.54.54,0,0,1,.31.09,1.84,1.84,0,0,1,.8,1.46,1.66,1.66,0,0,1-1.08,1.31c-1.74.87-8.93,1.28-9.74,1.32l-7.87,1.87c-1.08.81-12.31,9.25-23.89,17.78A.47.47,0,0,1,177.49,252Zm-5.11-10.6,5.27,9.36c12-8.81,23.4-17.41,23.51-17.5a.66.66,0,0,1,.19-.09l8.06-1.91c2.24-.13,8.12-.57,9.43-1.23.32-.16.52-.34.54-.48a.78.78,0,0,0-.28-.48l-6.81.21a.52.52,0,0,1-.51-.43.51.51,0,0,1,.37-.55c4.55-1.19,9.6-3.09,9.82-4.08a.9.9,0,0,0-.07-.73,1.43,1.43,0,0,0-1-.16L212,225.67a.5.5,0,0,1-.39-.91l9.85-6.08c.26-.5.27-.79.2-.9s-.63-.21-1-.16l-11.82,4.64a.51.51,0,0,1-.61-.2.49.49,0,0,1,.09-.63l7.84-7.21c.17-.25.19-.42.17-.47s-.67-.33-1.17-.36l-12.59,8.4a.5.5,0,0,1-.76-.55c.32-1.15,1.13-3.87,1.84-4.34.52-.34,1.85-2.42,1.38-3.36-.36-.71-.56-.86-.6-.88a3,3,0,0,0-.42.66c-.61,1.23-4.6,5.44-5.47,6.36l-.62,7.67a.52.52,0,0,1-.27.4Z" style="fill:#263238"></path><polygon points="166.08 244.12 173.28 256.38 179.68 252.39 171.69 241.21 166.08 244.12" style="fill:#fff"></polygon><path d="M173.28,256.89l-.12,0a.52.52,0,0,1-.31-.23l-7.2-12.27a.53.53,0,0,1-.05-.39.5.5,0,0,1,.25-.3l5.62-2.91a.49.49,0,0,1,.63.15l8,11.17a.5.5,0,0,1,.08.39.52.52,0,0,1-.22.33l-6.4,4A.53.53,0,0,1,173.28,256.89Zm-6.5-12.57,6.67,11.37,5.51-3.45-7.42-10.38Z" style="fill:#263238"></path><path d="M127.94,267.77a.54.54,0,0,1-.21,0,.5.5,0,0,1-.25-.66l8.12-17.82a.5.5,0,1,1,.91.42l-8.12,17.81A.49.49,0,0,1,127.94,267.77Z" style="fill:#263238"></path><path d="M132.22,281.08a.45.45,0,0,1-.16,0,.51.51,0,0,1-.31-.64c.3-.86.62-2,1-3.29a.5.5,0,0,1,1,.25c-.36,1.35-.69,2.48-1,3.37A.49.49,0,0,1,132.22,281.08Z" style="fill:#263238"></path><path d="M134.11,274l-.11,0a.5.5,0,0,1-.38-.6c2-8.74,3.95-20.55,4-20.67a.5.5,0,0,1,1,.16c0,.12-2,12-4,20.74A.49.49,0,0,1,134.11,274Z" style="fill:#263238"></path></g></svg>