<svg xmlns="http://www.w3.org/2000/svg" xmlns:xlink="http://www.w3.org/1999/xlink" viewBox="0 0 500 500"><defs><clipPath id="freepik--clip-path--inject-27"><polygon points="235.19 309.64 246.57 312 250.45 316.03 255.51 316.81 257.12 321.61 255.94 324.86 252.49 326.44 244.04 325.06 243.81 324.02 247.81 321.23 245.05 316.14 237.49 315.11 233.46 311.66 235.19 309.64" style="fill:#fff;stroke:#263238;stroke-linecap:round;stroke-linejoin:round"></polygon></clipPath><clipPath id="freepik--clip-path-2--inject-27"><path d="M326.94,414.7l-9-1.52L307,411.8l-8,1.78-7.85.11-7.87,3.65-4.6,1.3-2.85.63-4.74,4.31-4.72,3.22-8-2.85.2-7.65-4.8-.83-5.17,1.15-1.3-2.16-.51-4.77-2.39-2.18-3.51,1.32-.46,2.82-4.34,1.23-4.92-3.79-2.93-5.87,2.28-8.11,7.61-1.15,2.48,1.36,3.1-.69,3.37-3.19,3.59.28,6.44,7,1.75-.66-1.84-5.84-2.24-2.76-.57-5,8.65-6.26-.83-9.86,3.39-4.29,2-6.7,2.48-1.09,5.08-5.2-.2-2.13-4.08,1.18-1.23-1.9-2.85.63-4.17,2,1.32-3.83,8.48-4.6,1.56-2.78,4.88,4.88,2.85,1.82,3.39-1.84-2.3-3-6.29-2.68-7.76-5.6-7.45-3-6.44.35L251,328.13,246.6,328l-.29,1.15,1.15,7.62,1.61,2.35-.49,8.8-6.1-3,0-3.8-6-1.38-3-2.33-.15-6.75,6.3-7.1-.86-6.33-2.79.89-2.33-1.92L232,312.52l-1.87.14L230,317l-2.73,1.15L224,309.41l-2.35-.83-4-.75-3.68,3,6.27,3.77,2,4.17-10.87-4.92-8-5.55-2.07-6.87-7.19-.58-4.42,4.51a43.17,43.17,0,0,1-3.42,2.94,44.89,44.89,0,0,1-6,2.41l-.06,4.63-5.9,1.58,1.15,2.73,9.92-.57,6.12,4.34,2,9.06-1.07,8.65,2.41,8.42-4.43,14.29,2.65,19.23,4.74,10.35,5.2,7.54,4-.35-2.22-3.85-2.75-2.65-2.56-5.4,2.21-1,5.69,8.51,4.43,7.71,1.49,6.73,6.24,4.86L229.82,420l14.26.63,5,3,4,3.45,5.29,1.81,6,.29,5.63-1.53s.32,2.65.6,3.94-2.36,6.5-2.36,6.5l-1.69,5.81,3.33,5.23,6.21,1.06,9.86,6.5,4,.75.86,3.88.85,1.71a111.19,111.19,0,0,0,48.6-37.6l-.28-1.91,4.17-14.23-3.88-1.58Z" style="fill:#fff;stroke:#263238;stroke-linecap:round;stroke-linejoin:round;clip-path:url(#freepik--clip-path--inject-27)"></path></clipPath><clipPath id="freepik--clip-path-3--inject-27"><path d="M331.15,306.52l-3.94-4.28-4.89-4.89-2.75-7.53,4.83-.26-.32-2.64-3.42.49,2.56-1.93,2.7-2.5-.57-2.59-4-3.45-1.9-5.42a111.73,111.73,0,0,0-134.83-2.59l6.9,2.9-2.58,5.47-4.69,2.12,1,7.1-1.89,1.24-2,3.42,1.29,4.6,4.52-.46-.84,4.8,4.4-1,5.38-11.24-.14-4.32,7.13-2.12,1.12-3.51,7.33-2.44-.2-4.57,5.37-1.47s3.43-2.93,4.2-3.1a31.44,31.44,0,0,1,4.69.31l4.57,2.25,5.43-1.21,4-3.88,6.06-.8a6.55,6.55,0,0,0,3.08.4c1.29-.29,4.77-3,4.77-3l8.54,3,3.62,1.64.86,3.88,4-.35.78-2.61,3.71.8.2,2.13-7.31,3.8,5.67,4.71,10.46,3.11,5,4.31,5.81-.75.72-2.87,1.95-1-7.87-3.68-4.26.4,3.13-1.78-4.08-3.71,4.34-1.23,6.39,1.84,2.67,5.92,3.59,2.73,4,7,6.61,2.87,1.89,8.54,6.82,2.56.37,2.9,0,3.54,2.59,4.31,1,2.22,4.57-.2,1.1-4.86Z" style="fill:#fff;stroke:#263238;stroke-linecap:round;stroke-linejoin:round;clip-path:url(#freepik--clip-path-2--inject-27)"></path></clipPath><clipPath id="freepik--clip-path-4--inject-27"><path d="M328.72,279.71l.33,1.49-.37,4.42,1.58,3.45,3.08.41,1.09,4.91-3.39-.6,2.32,14.14-1.84,6.39,3.68,6.78,4.05,2.36,3.11,14,5.77,10.12,5.46,7.48,6.3.23.92-5.64.7-.84A113.46,113.46,0,0,0,359.34,335,111.17,111.17,0,0,0,328.72,279.71Z" style="fill:#fff;stroke:#263238;stroke-linecap:round;stroke-linejoin:round;clip-path:url(#freepik--clip-path-3--inject-27)"></path></clipPath><clipPath id="freepik--clip-path-5--inject-27"><polygon points="268.6 291.37 249.85 287.65 242.41 289.58 241.69 294.9 237.83 292.22 232.43 294.78 233.81 303.44 239.21 305.76 241.48 300.1 246.23 303.12 255.8 308.32 259.02 315.48 267.64 322.53 278.11 318.3 276.99 314.48 273.68 310.6 270.86 300.36 272.48 295.39 268.6 291.37" style="fill:#fff;stroke:#263238;stroke-linecap:round;stroke-linejoin:round;clip-path:url(#freepik--clip-path-4--inject-27)"></polygon></clipPath><clipPath id="freepik--clip-path-6--inject-27"><polygon points="283.83 293.95 279.72 293.78 276.99 297.38 280.47 304.48 283.83 303.73 283.83 293.95" style="fill:#fff;stroke:#263238;stroke-linecap:round;stroke-linejoin:round;clip-path:url(#freepik--clip-path-5--inject-27)"></polygon></clipPath><clipPath id="freepik--clip-path-7--inject-27"><polygon points="308.99 293.53 299.15 290.82 296.65 288.12 294.76 289.36 297.72 294.13 300.76 300.51 304.99 301.2 305.54 300 302.34 296.63 309.65 297.73 308.99 293.53" style="fill:#fff;stroke:#263238;stroke-linecap:round;stroke-linejoin:round;clip-path:url(#freepik--clip-path-6--inject-27)"></polygon></clipPath></defs><g id="freepik--background-simple--inject-27"><path d="M451.69,276.52c-4.34,36.69-21.09,79.36-54.56,99-50.56,29.63-46.33,75.19-145,95a203.37,203.37,0,0,1-43.76,4.14,169,169,0,0,1-21.48-1.76c-62.72-9.16-104.94-52.76-120.42-105.39-20.38-69.22,20.31-114.53,47.28-141.84S160.46,113.25,257.33,93a196.43,196.43,0,0,1,45-4.27c34.46.85,72.05,12.16,98.07,35.79q2.92,2.66,5.7,5.51C442.24,167.15,457.6,226.49,451.69,276.52Z" style="fill:#92E3A9"></path><path d="M451.69,276.52c-4.34,36.69-21.09,79.36-54.56,99-50.56,29.63-46.33,75.19-145,95a203.37,203.37,0,0,1-43.76,4.14,169,169,0,0,1-21.48-1.76c-62.72-9.16-104.94-52.76-120.42-105.39-20.38-69.22,20.31-114.53,47.28-141.84S160.46,113.25,257.33,93a196.43,196.43,0,0,1,45-4.27c34.46.85,72.05,12.16,98.07,35.79q2.92,2.66,5.7,5.51C442.24,167.15,457.6,226.49,451.69,276.52Z" style="fill:#fff;opacity:0.7000000000000001"></path></g><g id="freepik--Plants--inject-27"><g style="opacity:0.15"><path d="M322.09,98c-4.74,3.29-17.48,5.5-17.49,5.5s1.09-8.84,1.23-9.39c1.64-6.37,8.54-17.72,15.9-18.17,5.29-.32,9.18,4.28,9,9.37S326.13,95.17,322.09,98Z"></path><path d="M287,258.31c0,.3,0,.58,0,.88L282.6,262c0-1.2,0-2.41,0-3.67,0-3.54.07-7.33.17-11.22a93.71,93.71,0,0,1-10.8-2.69c-2.91,4.73-11.46,11.29-12.57,12.13,1.91,2.92,3.81,5.73,5.63,8.37,1.26,1.81,2.48,3.54,3.66,5.21l-4.79.94c-.82-1.2-1.64-2.43-2.48-3.71-2-2.95-4-6.15-6.05-9.45-1.3.55-12,5-17.4,4.85-4.91-.13-11.13-1.67-14.15-5.9s-2.22-10.12,2.39-12.75c6.4-3.66,18.39,2.06,23.24,6.5.29.26,3.08,3.45,4.81,5.49-.83-1.35-1.66-2.66-2.5-4.06-1.68-2.77-3.27-5.58-5-8.59l-2.38-4.5c-.82-1.49-1.5-3.16-2.27-4.76-1.71-3.73-3.25-7.59-4.72-11.51-2.42,1.47-11.11,6.55-16,7.16s-11.25,0-14.88-3.69-3.73-9.67.43-13c5.77-4.58,18.49-.74,24,2.91.35.22,4,3.29,5.94,5-.87-2.37-1.74-4.73-2.54-7.15-2.3-7-4.41-14.14-6.55-21.26q-1-3.27-2-6.52c-.85.53-11,6.8-16.53,7.48-4.88.62-11.26,0-14.88-3.69s-3.73-9.67.43-13c5.77-4.58,18.49-.74,24,2.91.41.28,5.63,4.69,6.9,5.88-1.48-4.79-3-9.54-4.68-14.16A152.77,152.77,0,0,0,213,153.38c-.4.24-11,6.83-16.62,7.53-4.88.61-11.26,0-14.89-3.69s-3.73-9.67.43-13c5.77-4.58,18.49-.74,24,2.91.42.29,6,5,7,6-.17-.34-.32-.71-.5-1a112.92,112.92,0,0,0-11.13-16.57c-2.27-2.9-4.61-5.53-7-8-1.85,1.43-10.37,7.87-15.36,9.06-4.78,1.14-11.19,1.27-15.2-2s-4.77-9.2-1-12.93c5.24-5.19,18.3-2.77,24.14.26.32.16,3.36,2.19,5.56,3.7-1.07-1.12-2.16-2.29-3.2-3.34-3.93-4-7.76-7.34-11.18-10.31-2-1.67-3.76-3.14-5.47-4.5-2.54.45-12.83,2.16-17.72.94s-10.51-4-12.55-8.81,0-10.36,5.08-11.94c7-2.19,17.51,6,21.3,11.35.33.47,4.61,8.32,4.48,8.35l-.15,0c1.66,1.27,3.43,2.66,5.34,4.22,3.49,2.9,7.41,6.2,11.43,10.09a153.12,153.12,0,0,1,12.38,13.16,112.65,112.65,0,0,1,11.63,16.53l.11.22c-.46-2.11-1.53-8.05-1.56-8.52-.43-6.56,2.59-19.5,9.44-22.22,4.93-2,10.06,1.2,11.45,6.1S232,137.68,229,141.6c-3.34,4.43-13.9,10.15-14.74,10.61a154.15,154.15,0,0,1,8.62,18.69c1.45,3.73,2.8,7.54,4.1,11.37-.33-1.84-.62-3.49-.63-3.72-.43-6.56,2.59-19.5,9.44-22.22,4.93-2,10.06,1.2,11.45,6.1S246,173.25,243,177.17s-11.91,9-14.29,10.35c.49,1.48,1,2.94,1.47,4.42,2.29,7.08,4.55,14.16,7,21,.85,2.42,1.78,4.77,2.71,7.13-.3-1.63-.53-3-.55-3.22-.43-6.56,2.59-19.5,9.44-22.22,4.93-1.95,10.06,1.2,11.45,6.1S259,211.59,256,215.51s-11,8.55-13.86,10.11c1,2.39,2,4.78,3.13,7,.78,1.53,1.43,3.06,2.3,4.56s1.66,3,2.47,4.45c1.68,2.77,3.39,5.64,5.09,8.3,1.17,1.86,2.32,3.61,3.47,5.38-.88-2.41-2.51-7.14-2.6-7.56a33.94,33.94,0,0,1,1.27-17,10.3,10.3,0,0,1-.25-1.92c-.18-5.08,3.73-9.66,9-9.31,7.35.48,14.19,11.87,15.79,18.25.1.37.67,4.57,1,7.22.06-1.58.09-3.13.16-4.76.13-3.23.34-6.46.56-9.93.17-1.67.34-3.36.51-5.06s.49-3.47.72-5.22c.64-4,1.48-8.12,2.42-12.21-2.83-.11-12.88-.66-17.3-2.85s-9.41-6.19-10.38-11.29,2.23-10.13,7.51-10.58c7.34-.64,15.84,9.58,18.39,15.64.16.38,1.5,4.94,2.19,7.45.58-2.45,1.15-4.9,1.82-7.35,1.94-7.11,4.12-14.23,6.26-21.35.66-2.18,1.29-4.36,1.93-6.55-1,0-13-.42-17.92-2.88-4.4-2.18-9.41-6.18-10.38-11.29s2.23-10.12,7.52-10.58c7.33-.63,15.83,9.58,18.38,15.65.19.45,2.11,7,2.52,8.71,1.4-4.81,2.76-9.61,3.9-14.39a152.35,152.35,0,0,0,3.46-19.61c-.47,0-13-.37-18-2.89-4.41-2.18-9.41-6.18-10.38-11.29s2.22-10.12,7.51-10.58c7.34-.63,15.83,9.58,18.38,15.65.21.47,2.27,7.53,2.55,8.84,0-.38.12-.78.16-1.16a112.34,112.34,0,0,0-.14-20c-.3-3.67-.8-7.16-1.36-10.54-2.33.17-13,.84-17.81-.92-4.62-1.68-10-5.11-11.55-10.08s1.1-10.31,6.3-11.34c7.23-1.44,16.79,7.78,20,13.53.17.31,1.59,3.68,2.59,6.16-.28-1.53-.53-3.11-.82-4.56-1.09-5.46-2.42-10.4-3.64-14.76-.71-2.48-1.4-4.7-2.07-6.78-2.38-1-11.9-5.27-15.3-9s-6.55-9.16-5.61-14.28S281.6,44,286.7,45.46c7.08,2.06,11.31,14.65,11.51,21.23,0,.56-.75,9.48-.87,9.43l-.15-.06c.69,2,1.4,4.11,2.13,6.46,1.31,4.34,2.75,9.26,4,14.73a154.85,154.85,0,0,1,3.08,17.8,114,114,0,0,1,.57,20.21l0,.24c.79-2,3.17-7.56,3.4-8,3.26-5.71,12.92-14.83,20.13-13.32,5.19,1.09,7.73,6.55,6.19,11.41s-7,8.32-11.66,10c-5.23,1.84-17.2.79-18.15.7a154.24,154.24,0,0,1-3.12,20.36c-.85,3.91-1.82,7.83-2.85,11.74.74-1.72,1.41-3.25,1.52-3.45,3.26-5.71,12.92-14.84,20.13-13.32,5.2,1.09,7.73,6.55,6.19,11.4s-7,8.33-11.66,10-14.92,1-17.63.75c-.4,1.5-.8,3-1.21,4.49-2,7.18-4,14.33-5.78,21.41-.62,2.49-1.14,5-1.67,7.44.65-1.52,1.21-2.8,1.32-3,3.26-5.71,12.92-14.83,20.13-13.32,5.19,1.09,7.73,6.55,6.19,11.41s-7,8.32-11.66,10-13.93,1-17.14.78c-.47,2.56-.94,5.12-1.28,7.61-.19,1.71-.5,3.34-.59,5.07s-.27,3.4-.4,5.07c-.13,3.24-.29,6.57-.34,9.73,0,2.2-.06,4.29-.07,6.4.59-2.49,1.85-7.34,2-7.73,2.36-6.14,10.53-16.62,17.88-16.22,5.3.29,8.63,5.31,7.84,10.34s-5.68,9.29-10,11.61c-4.77,2.55-16.29,3.35-17.73,3.44C286.86,251.71,286.88,255.11,287,258.31Z"></path><path d="M194.32,126.06c-.1.09-4-8-4.16-8.52-2.15-6.21-2.65-19.49,3.24-23.92,4.24-3.19,10-1.5,12.66,2.86s1.63,10.77-.19,15.34C203.73,117.17,194.33,126.05,194.32,126.06Z"></path></g><g style="opacity:0.15"><path d="M127.93,283.27c-.82,2.86-5.18,7.91-5.18,7.92s-2.45-3.89-2.58-4.15c-1.43-3.08-2.38-9.86.4-12.45a4.51,4.51,0,0,1,6.65.81C128.83,277.54,128.62,280.83,127.93,283.27Z"></path><path d="M166.33,358.71l.29.34-.82,2.56-1.2-1.46c-1.16-1.41-2.37-2.94-3.6-4.53a49.29,49.29,0,0,1-5.19,2.46c.39,2.84-.88,8.25-1.05,8.94,1.72.54,3.39,1.05,5,1.5,1.1.32,2.15.61,3.17.88l-1.61,2-2.2-.67c-1.75-.54-3.6-1.15-5.5-1.8-.34.65-3.15,5.92-5.35,7.63-2,1.55-5,3-7.58,2.27a4.5,4.5,0,0,1-3.21-5.87c1.35-3.55,8-5.19,11.39-5,.2,0,2.36.37,3.71.62-.77-.27-1.53-.52-2.32-.81-1.57-.55-3.13-1.15-4.8-1.79l-2.42-1c-.82-.32-1.64-.76-2.46-1.15-1.9-.93-3.78-2-5.65-3.05-.49,1.38-2.29,6.24-4,8.09s-4.48,3.69-7.14,3.39a4.5,4.5,0,0,1-4.07-5.31c.8-3.71,7.13-6.34,10.51-6.67.21,0,2.66,0,4,.05-1.12-.66-2.24-1.31-3.35-2-3.2-2-6.38-4.19-9.56-6.33-1-.66-2-1.3-2.93-2-.17.49-2.19,6.32-4.15,8.39-1.74,1.84-4.48,3.69-7.14,3.39a4.5,4.5,0,0,1-4.07-5.31c.8-3.71,7.13-6.34,10.51-6.67.25,0,3.78,0,4.67.08-2.15-1.42-4.31-2.82-6.49-4.11a78.32,78.32,0,0,0-9.14-4.7c-.07.23-2.15,6.33-4.16,8.44-1.75,1.84-4.48,3.7-7.15,3.4a4.5,4.5,0,0,1-4.06-5.32c.8-3.71,7.13-6.34,10.5-6.67.27,0,4.06,0,4.75.09-.18-.07-.37-.17-.55-.25a56.8,56.8,0,0,0-9.85-3c-1.86-.41-3.65-.7-5.4-.94-.27,1.17-1.57,6.53-3.17,8.63s-4.05,4.17-6.73,4.16a4.49,4.49,0,0,1-4.62-4.83c.39-3.78,6.39-7.09,9.71-7.79.18,0,2.06-.22,3.43-.34-.8-.09-1.61-.21-2.37-.29-2.86-.29-5.5-.39-7.83-.45-1.33,0-2.53,0-3.65,0-.87,1-4.42,5.05-6.76,6.16s-5.51,1.83-7.89.59a4.49,4.49,0,0,1-1.88-6.42c2.09-3.17,8.94-3.34,12.21-2.43.28.07,4.56,1.81,4.52,1.86l-.06.06c1.08,0,2.24-.06,3.51-.06,2.34,0,5,.05,7.86.29a80.89,80.89,0,0,1,9.24,1.2,59.1,59.1,0,0,1,10,2.79l.12.05c-.87-.69-3.24-2.71-3.41-2.88-2.32-2.48-5.34-8.63-3.5-12a4.51,4.51,0,0,1,6.57-1.31c2.2,1.53,3,4.73,3.13,7.26.11,2.86-2.23,8.59-2.42,9a77.61,77.61,0,0,1,9.55,4.64c1.8,1,3.58,2.09,5.35,3.19-.73-.62-1.38-1.19-1.46-1.28-2.32-2.47-5.35-8.62-3.5-11.94a4.49,4.49,0,0,1,6.56-1.31c2.2,1.53,3,4.73,3.13,7.26s-1.79,7.5-2.31,8.8l2,1.28c3.23,2.07,6.45,4.16,9.67,6.11,1.13.68,2.27,1.32,3.41,2-.65-.56-1.19-1-1.27-1.11-2.32-2.48-5.34-8.63-3.5-11.95a4.5,4.5,0,0,1,6.56-1.31c2.2,1.53,3,4.73,3.14,7.26s-1.62,7-2.23,8.57c1.19.62,2.38,1.24,3.55,1.79.82.35,1.57.75,2.41,1.06l2.44,1c1.57.56,3.19,1.14,4.74,1.65,1.08.36,2.11.68,3.14,1-1.13-.67-3.33-2-3.5-2.17a17.4,17.4,0,0,1-5.06-7.21,4.71,4.71,0,0,1-.73-.68,4.48,4.48,0,0,1,.56-6.66c3.08-2.21,9.54.09,12.26,2.11.16.12,1.76,1.61,2.76,2.56-.5-.65-1-1.27-1.5-1.95-1-1.33-2-2.69-3-4.14l-1.45-2.19c-.5-.71-.94-1.54-1.42-2.31-1.07-1.83-2.07-3.73-3-5.66-1.16.88-5.35,3.94-7.83,4.51s-5.77.61-7.83-1.11a4.49,4.49,0,0,1-.46-6.67c2.72-2.66,9.44-1.36,12.44.23.19.1,2.22,1.48,3.31,2.25-.56-1.16-1.14-2.33-1.67-3.53-1.55-3.46-3-7-4.49-10.56-.45-1.08-.91-2.16-1.37-3.24-.41.32-5.31,4.07-8.08,4.71-2.47.57-5.78.61-7.83-1.11a4.51,4.51,0,0,1-.47-6.68c2.72-2.65,9.45-1.35,12.45.23.23.12,3.14,2.11,3.85,2.65-1-2.37-2-4.73-3.15-7a78.69,78.69,0,0,0-5-8.95c-.2.15-5.29,4.08-8.14,4.74-2.47.57-5.77.61-7.83-1.11a4.5,4.5,0,0,1-.46-6.68c2.72-2.65,9.45-1.35,12.45.23.23.13,3.36,2.27,3.9,2.7-.11-.17-.2-.35-.31-.52a58.38,58.38,0,0,0-6.58-7.91c-1.32-1.37-2.66-2.6-4-3.76-.87.83-4.91,4.58-7.4,5.45s-5.67,1.24-7.91-.24a4.51,4.51,0,0,1-1.19-6.59c2.41-2.93,9.24-2.38,12.4-1.13.17.06,1.84,1,3,1.61-.61-.52-1.22-1.07-1.82-1.55-2.22-1.82-4.36-3.36-6.27-4.7-1.09-.76-2.1-1.42-3-2-1.29.36-6.47,1.78-9,1.41s-5.61-1.51-6.9-3.86a4.48,4.48,0,0,1,2-6.39c3.49-1.49,9.3,2.14,11.53,4.7.19.22,2.8,4,2.73,4l-.07,0c.92.57,1.9,1.19,3,1.89,1.94,1.3,4.12,2.79,6.39,4.57a81.11,81.11,0,0,1,7,6.1,58.86,58.86,0,0,1,6.83,7.87l.07.11c-.35-1.06-1.21-4-1.25-4.29-.57-3.35.3-10.14,3.67-11.89a4.49,4.49,0,0,1,6.2,2.52c1,2.49-.08,5.62-1.39,7.79-1.49,2.44-6.6,5.93-7,6.21a80.26,80.26,0,0,1,5.41,9.14c.94,1.84,1.83,3.72,2.7,5.61-.27-.92-.5-1.75-.52-1.87-.57-3.35.3-10.14,3.67-11.89a4.49,4.49,0,0,1,6.2,2.52c1,2.49-.08,5.62-1.4,7.79s-5.63,5.26-6.78,6.06c.32.73.66,1.45,1,2.19,1.55,3.51,3.08,7,4.69,10.42.57,1.2,1.17,2.36,1.77,3.52-.24-.82-.43-1.52-.45-1.63-.57-3.34.3-10.14,3.67-11.89a4.5,4.5,0,0,1,6.2,2.53c1,2.49-.08,5.61-1.4,7.78s-5.21,5-6.57,5.92c.64,1.17,1.29,2.34,2,3.45.48.74.9,1.49,1.42,2.21s1,1.44,1.5,2.16c1,1.33,2,2.71,3.05,4,.7.89,1.38,1.73,2.06,2.57-.58-1.18-1.66-3.53-1.73-3.74-1.06-3.21-1.23-10.06,1.83-12.31a4.51,4.51,0,0,1,6.51,1.56c1.36,2.31.77,5.57-.2,7.91-1.07,2.57-5.4,6.66-5.94,7.16C164.13,356.11,165.25,357.46,166.33,358.71Z"></path><path d="M86.15,336.24c0,.07-4.19-1.88-4.44-2-2.89-1.77-7.43-6.91-6.53-10.6a4.49,4.49,0,0,1,6-3c2.53.89,4.18,3.76,4.94,6.17C87,329.62,86.15,336.24,86.15,336.24Z"></path></g><g style="opacity:0.15"><path d="M371.91,283.27c.81,2.86,5.17,7.91,5.18,7.92s2.45-3.89,2.58-4.15c1.43-3.08,2.38-9.86-.41-12.45a4.5,4.5,0,0,0-6.64.81C371,277.54,371.21,280.83,371.91,283.27Z"></path><path d="M333.51,358.71l-.29.34.82,2.56,1.2-1.46c1.16-1.41,2.37-2.94,3.6-4.53a48.26,48.26,0,0,0,5.19,2.46c-.39,2.84.88,8.25,1.05,8.94-1.72.54-3.4,1.05-5,1.5-1.09.32-2.14.61-3.16.88l1.61,2,2.2-.67c1.74-.54,3.6-1.15,5.5-1.8.34.65,3.14,5.92,5.35,7.63,2,1.55,5,3,7.58,2.27a4.5,4.5,0,0,0,3.21-5.87c-1.36-3.55-8-5.19-11.4-5-.2,0-2.35.37-3.71.62.78-.27,1.53-.52,2.33-.81,1.57-.55,3.13-1.15,4.8-1.79l2.42-1c.81-.32,1.63-.76,2.46-1.15,1.9-.93,3.78-2,5.64-3.05.49,1.38,2.3,6.24,4.05,8.09s4.48,3.69,7.14,3.39a4.5,4.5,0,0,0,4.07-5.31c-.81-3.71-7.13-6.34-10.51-6.67-.21,0-2.66,0-4,.05,1.11-.66,2.23-1.31,3.34-2,3.21-2,6.39-4.19,9.57-6.33,1-.66,1.95-1.3,2.93-2,.17.49,2.18,6.32,4.15,8.39,1.74,1.84,4.48,3.69,7.14,3.39a4.5,4.5,0,0,0,4.07-5.31c-.81-3.71-7.13-6.34-10.51-6.67-.25,0-3.78,0-4.67.08,2.15-1.42,4.31-2.82,6.49-4.11a79,79,0,0,1,9.13-4.7c.08.23,2.16,6.33,4.17,8.44,1.75,1.84,4.48,3.7,7.14,3.4a4.5,4.5,0,0,0,4.07-5.32c-.8-3.71-7.13-6.34-10.51-6.67-.26,0-4.05,0-4.74.09.18-.07.36-.17.55-.25a56.8,56.8,0,0,1,9.85-3c1.85-.41,3.65-.7,5.4-.94.27,1.17,1.57,6.53,3.17,8.63s4,4.17,6.73,4.16a4.5,4.5,0,0,0,4.62-4.83c-.39-3.78-6.39-7.09-9.71-7.79-.18,0-2.06-.22-3.43-.34.8-.09,1.61-.21,2.37-.29,2.86-.29,5.49-.39,7.83-.45,1.33,0,2.53,0,3.65,0,.87,1,4.41,5.05,6.76,6.16s5.51,1.83,7.89.59a4.49,4.49,0,0,0,1.87-6.42c-2.08-3.17-8.93-3.34-12.2-2.43-.29.07-4.56,1.81-4.52,1.86l.05.06c-1.08,0-2.24-.06-3.5-.06-2.34,0-5,.05-7.86.29a80.6,80.6,0,0,0-9.24,1.2,59.45,59.45,0,0,0-10.05,2.79l-.11.05c.87-.69,3.24-2.71,3.41-2.88,2.31-2.48,5.34-8.63,3.49-12a4.49,4.49,0,0,0-6.56-1.31c-2.2,1.53-3,4.73-3.13,7.26-.11,2.86,2.23,8.59,2.42,9a78.44,78.44,0,0,0-9.56,4.64c-1.79,1-3.57,2.09-5.35,3.19.74-.62,1.39-1.19,1.47-1.28,2.32-2.47,5.34-8.62,3.5-11.94a4.49,4.49,0,0,0-6.56-1.31c-2.2,1.53-3,4.73-3.13,7.26s1.79,7.5,2.31,8.8l-2,1.28c-3.23,2.07-6.44,4.16-9.66,6.11-1.13.68-2.27,1.32-3.41,2,.65-.56,1.19-1,1.27-1.11,2.32-2.48,5.34-8.63,3.5-11.95a4.51,4.51,0,0,0-6.57-1.31c-2.2,1.53-3,4.73-3.13,7.26s1.62,7,2.23,8.57c-1.19.62-2.38,1.24-3.56,1.79-.81.35-1.57.75-2.4,1.06l-2.44,1c-1.58.56-3.19,1.14-4.74,1.65-1.08.36-2.11.68-3.14,1,1.13-.67,3.33-2,3.5-2.17a17.4,17.4,0,0,0,5.06-7.21,5.21,5.21,0,0,0,.73-.68,4.49,4.49,0,0,0-.56-6.66c-3.09-2.21-9.54.09-12.26,2.11-.17.12-1.76,1.61-2.76,2.56.5-.65,1-1.27,1.5-1.95,1-1.33,2-2.69,3-4.14l1.45-2.19c.5-.71.94-1.54,1.42-2.31,1.07-1.83,2.06-3.73,3-5.66,1.17.88,5.36,3.94,7.84,4.51s5.77.61,7.83-1.11a4.49,4.49,0,0,0,.46-6.67c-2.72-2.66-9.45-1.36-12.45.23-.18.1-2.21,1.48-3.31,2.25.57-1.16,1.15-2.33,1.68-3.53,1.55-3.46,3-7,4.48-10.56.45-1.08.91-2.16,1.37-3.24.42.32,5.31,4.07,8.09,4.71,2.47.57,5.77.61,7.83-1.11a4.5,4.5,0,0,0,.46-6.68c-2.72-2.65-9.44-1.35-12.44.23-.23.12-3.14,2.11-3.85,2.65,1-2.37,2-4.73,3.14-7a80.3,80.3,0,0,1,5-8.95c.19.15,5.29,4.08,8.13,4.74,2.47.57,5.78.61,7.83-1.11a4.5,4.5,0,0,0,.46-6.68c-2.71-2.65-9.44-1.35-12.44.23-.24.13-3.37,2.27-3.9,2.7.1-.17.2-.35.31-.52a58.38,58.38,0,0,1,6.58-7.91c1.32-1.37,2.66-2.6,4-3.76.87.83,4.91,4.58,7.4,5.45s5.67,1.24,7.91-.24a4.51,4.51,0,0,0,1.19-6.59c-2.41-2.93-9.24-2.38-12.4-1.13-.17.06-1.84,1-3,1.61.6-.52,1.22-1.07,1.81-1.55,2.22-1.82,4.37-3.36,6.28-4.7,1.09-.76,2.1-1.42,3-2,1.28.36,6.47,1.78,9,1.41s5.6-1.51,6.9-3.86a4.5,4.5,0,0,0-2-6.39c-3.5-1.49-9.3,2.14-11.53,4.7-.19.22-2.8,4-2.74,4l.08,0c-.92.57-1.9,1.19-3,1.89-1.94,1.3-4.13,2.79-6.39,4.57a81.11,81.11,0,0,0-7,6.1,58.86,58.86,0,0,0-6.83,7.87l-.07.11c.34-1.06,1.21-4,1.25-4.29.56-3.35-.31-10.14-3.68-11.89a4.48,4.48,0,0,0-6.19,2.52c-1,2.49.08,5.62,1.39,7.79,1.48,2.44,6.6,5.93,7,6.21a78.82,78.82,0,0,0-5.41,9.14c-.94,1.84-1.83,3.72-2.7,5.61.27-.92.5-1.75.52-1.87.57-3.35-.3-10.14-3.67-11.89a4.49,4.49,0,0,0-6.2,2.52c-1,2.49.08,5.62,1.39,7.79s5.64,5.26,6.79,6.06c-.33.73-.66,1.45-1,2.19-1.55,3.51-3.09,7-4.69,10.42-.57,1.2-1.17,2.36-1.77,3.52.24-.82.43-1.52.45-1.63.57-3.34-.3-10.14-3.68-11.89a4.5,4.5,0,0,0-6.19,2.53c-1,2.49.08,5.61,1.39,7.78s5.22,5,6.58,5.92c-.65,1.17-1.29,2.34-2,3.45-.49.74-.9,1.49-1.42,2.21l-1.51,2.16c-1,1.33-2,2.71-3,4-.7.89-1.38,1.73-2.06,2.57.57-1.18,1.66-3.53,1.72-3.74,1.07-3.21,1.24-10.06-1.82-12.31a4.51,4.51,0,0,0-6.51,1.56c-1.36,2.31-.77,5.57.2,7.91,1.06,2.57,5.4,6.66,5.94,7.16C335.71,356.11,334.59,357.46,333.51,358.71Z"></path><path d="M413.69,336.24c0,.07,4.19-1.88,4.44-2,2.89-1.77,7.43-6.91,6.53-10.6a4.49,4.49,0,0,0-6-3c-2.53.89-4.18,3.76-4.94,6.17C412.84,329.62,413.69,336.24,413.69,336.24Z"></path></g></g><g id="freepik--Banknotes--inject-27"><polygon points="327.3 301.02 261.05 273.25 316.94 138.97 383.19 166.74 327.3 301.02" style="fill:#d1d1d1;stroke:#263238;stroke-linecap:round;stroke-linejoin:round"></polygon><path d="M369.89,180.45a8.63,8.63,0,0,1-4.16-12.31l-38-15.94a9.28,9.28,0,0,1-.35,1A8.66,8.66,0,0,1,316,157.86c-.17-.07-.33-.16-.49-.24L273.35,259.16c.17.06.34.11.5.18A8.57,8.57,0,0,1,278,271.65l38.05,15.94a8.13,8.13,0,0,1,.34-1,8.67,8.67,0,0,1,11.35-4.64c.33.14.65.31,1,.48l42.2-101.62A7.18,7.18,0,0,1,369.89,180.45ZM316,233.19a14.2,14.2,0,1,1,18.59-7.61A14.19,14.19,0,0,1,316,233.19Z" style="fill:#fff;stroke:#263238;stroke-linecap:round;stroke-linejoin:round"></path><polygon points="326.43 301.36 263.57 266.59 333.67 139.14 396.53 173.92 326.43 301.36" style="fill:#d1d1d1;stroke:#263238;stroke-linecap:round;stroke-linejoin:round"></polygon><path d="M381.82,186.1a8.66,8.66,0,0,1-3.39-11.78,10.71,10.71,0,0,1,.59-.9l-36.1-20a9.57,9.57,0,0,1-.45,1,8.67,8.67,0,0,1-11.78,3.38,4.34,4.34,0,0,1-.46-.28l-52.9,96.38a5.24,5.24,0,0,1,.48.23,8.67,8.67,0,0,1,3.39,11.78,8.22,8.22,0,0,1-.59.9l36.09,20a9.51,9.51,0,0,1,.46-1,8.66,8.66,0,0,1,11.78-3.39,9.3,9.3,0,0,1,.9.59l53-96.46A7.78,7.78,0,0,1,381.82,186.1Zm-59.26,46.61a14.21,14.21,0,1,1,19.31-5.55A14.21,14.21,0,0,1,322.56,232.71Z" style="fill:#fff;stroke:#263238;stroke-linecap:round;stroke-linejoin:round"></path><polygon points="325.27 301.66 267.83 258.52 354.89 142 412.33 185.14 325.27 301.66" style="fill:#d1d1d1;stroke:#263238;stroke-linecap:round;stroke-linejoin:round"></polygon><path d="M396.08,195.17A8.66,8.66,0,0,1,394.35,183a7.91,7.91,0,0,1,.71-.81l-33-24.78a10.06,10.06,0,0,1-.59.91,8.67,8.67,0,0,1-12.13,1.72c-.15-.11-.28-.23-.42-.34l-65.73,88.12c.15.1.3.19.44.3a8.68,8.68,0,0,1,1.73,12.14,7.91,7.91,0,0,1-.71.81l33,24.77a7.24,7.24,0,0,1,.58-.9,8.67,8.67,0,0,1,12.14-1.72,7.67,7.67,0,0,1,.81.7L397,195.76A8.7,8.7,0,0,1,396.08,195.17Zm-65.14,38a14.21,14.21,0,1,1,19.9-2.83A14.2,14.2,0,0,1,330.94,233.13Z" style="fill:#fff;stroke:#263238;stroke-linecap:round;stroke-linejoin:round"></path><polygon points="324.12 301.79 272.96 251.35 374.82 147.52 425.98 197.96 324.12 301.79" style="fill:#d1d1d1;stroke:#263238;stroke-linecap:round;stroke-linejoin:round"></polygon><path d="M408.53,205.73a8.67,8.67,0,0,1-.09-12.26,9,9,0,0,1,.81-.71l-29.37-29a10.69,10.69,0,0,1-.7.81,8.67,8.67,0,0,1-12.26.09,4.48,4.48,0,0,1-.36-.4l-76.93,78.55c.13.12.27.23.4.36a8.67,8.67,0,0,1,.09,12.26c-.26.25-.53.49-.81.71l29.37,29a7.87,7.87,0,0,1,.71-.82,8.66,8.66,0,0,1,12.25-.09,9,9,0,0,1,.71.81l77-78.61A9.17,9.17,0,0,1,408.53,205.73Zm-69.62,28.9a14.2,14.2,0,1,1,20.09-.14A14.2,14.2,0,0,1,338.91,234.63Z" style="fill:#fff;stroke:#263238;stroke-linecap:round;stroke-linejoin:round"></path></g><g id="freepik--Passport--inject-27"><path d="M259.07,290.54l-92,58.46L69.24,194.48l92-58.46a7.19,7.19,0,0,1,9.92,2.21l90.16,142.39A7.19,7.19,0,0,1,259.07,290.54Z" style="fill:#a8a8a8;stroke:#263238;stroke-linecap:round;stroke-linejoin:round"></path><path d="M256.48,290.64l-92,58.46L66.66,194.58l92-58.46a7.19,7.19,0,0,1,9.92,2.21l90.15,142.39A7.19,7.19,0,0,1,256.48,290.64Z" style="fill:#fff;stroke:#263238;stroke-linecap:round;stroke-linejoin:round"></path><path d="M253.48,292.68l-92,58.46L63.65,196.62l92-58.46a7.2,7.2,0,0,1,9.93,2.21l90.15,142.39A7.19,7.19,0,0,1,253.48,292.68Z" style="fill:#a8a8a8;stroke:#263238;stroke-linecap:round;stroke-linejoin:round"></path><path d="M112.81,215.83l-7.07-11.12L108.5,203a3.66,3.66,0,0,1,1.83-.65,2.43,2.43,0,0,1,1.54.5,5.11,5.11,0,0,1,1.33,1.48,4,4,0,0,1,.66,1.72,2.61,2.61,0,0,1-.28,1.58,3.53,3.53,0,0,1-1.28,1.31l-1.23.77,3.29,5.18Zm-2.44-7.28.71-.45a3.61,3.61,0,0,0,1-.82,1.12,1.12,0,0,0,.22-.88,3.16,3.16,0,0,0-.52-1.17,5.68,5.68,0,0,0-.89-1.15,1,1,0,0,0-.86-.28,3.63,3.63,0,0,0-1.26.57l-.73.46Z" style="fill:#fff"></path><path d="M118.28,212.35l-4.71-12.62,1.5-.95,9.44,9.61-1.47.93-2.29-2.47-2.26,1.44,1.24,3.14ZM118,207l1.85-1.17-4.12-4.42Z" style="fill:#fff"></path><path d="M128.34,206.13a3.44,3.44,0,0,1-1.86.61,3.12,3.12,0,0,1-1.7-.53,5.67,5.67,0,0,1-1.46-1.44l1.14-1.24a8.08,8.08,0,0,0,.91,1,2.55,2.55,0,0,0,1,.6,1.44,1.44,0,0,0,1.14-.24,1.4,1.4,0,0,0,.7-.92,1.64,1.64,0,0,0-.31-1.16,2.38,2.38,0,0,0-1.11-1,7.77,7.77,0,0,0-1.46-.37l-2.91-.46a3.79,3.79,0,0,1-1.48-.54,4,4,0,0,1-1.15-1.24,3,3,0,0,1-.51-2.34,3.16,3.16,0,0,1,1.48-1.89,4.22,4.22,0,0,1,1.27-.56,2.44,2.44,0,0,1,1.17,0,3.23,3.23,0,0,1,1.11.56,6.65,6.65,0,0,1,1.08,1.1l-1.09,1.2a6.62,6.62,0,0,0-.81-.91,1.77,1.77,0,0,0-.9-.46,1.76,1.76,0,0,0-1.77,1.16,1.4,1.4,0,0,0,.26,1.12,2.1,2.1,0,0,0,.7.72,2.69,2.69,0,0,0,1,.32l2.93.46a6.85,6.85,0,0,1,2,.6,3.94,3.94,0,0,1,1.63,1.5,3.5,3.5,0,0,1,.56,1.64,2.82,2.82,0,0,1-.36,1.51A3.53,3.53,0,0,1,128.34,206.13Z" style="fill:#fff"></path><path d="M134.83,202a3.44,3.44,0,0,1-1.86.61,3.07,3.07,0,0,1-1.69-.53,5.38,5.38,0,0,1-1.46-1.44L131,199.4a7.37,7.37,0,0,0,.91,1,2.52,2.52,0,0,0,1,.6,1.43,1.43,0,0,0,1.14-.24,1.35,1.35,0,0,0,.7-.91,1.64,1.64,0,0,0-.3-1.17,2.45,2.45,0,0,0-1.12-1,7.66,7.66,0,0,0-1.45-.37l-2.92-.46a3.79,3.79,0,0,1-1.48-.54,4,4,0,0,1-1.15-1.24,3,3,0,0,1-.51-2.34,3.16,3.16,0,0,1,1.49-1.88,4.33,4.33,0,0,1,1.26-.57,2.36,2.36,0,0,1,1.18,0,3.19,3.19,0,0,1,1.11.55,6.25,6.25,0,0,1,1.07,1.1l-1.09,1.2a6.62,6.62,0,0,0-.81-.91,1.7,1.7,0,0,0-.9-.46,1.79,1.79,0,0,0-1.77,1.16,1.44,1.44,0,0,0,.26,1.12,2.24,2.24,0,0,0,.7.73,3.29,3.29,0,0,0,1,.32l2.93.45a7.12,7.12,0,0,1,1.94.6,4,4,0,0,1,1.63,1.5,3.39,3.39,0,0,1,.56,1.64,2.82,2.82,0,0,1-.36,1.51A3.44,3.44,0,0,1,134.83,202Z" style="fill:#fff"></path><path d="M138.62,199.42l-7.07-11.12,2.76-1.75a3.59,3.59,0,0,1,1.83-.66,2.49,2.49,0,0,1,1.54.5,5.16,5.16,0,0,1,1.33,1.49,3.88,3.88,0,0,1,.66,1.72,2.58,2.58,0,0,1-.28,1.57,3.46,3.46,0,0,1-1.28,1.31l-1.23.78,3.29,5.17Zm-2.44-7.27.71-.46a3.43,3.43,0,0,0,1-.82,1.11,1.11,0,0,0,.21-.88,3.28,3.28,0,0,0-.51-1.17,5.3,5.3,0,0,0-.89-1.14,1,1,0,0,0-.86-.28,3.39,3.39,0,0,0-1.26.56l-.73.47Z" style="fill:#fff"></path><path d="M148.13,193.55a3.87,3.87,0,0,1-2.07.7,2.84,2.84,0,0,1-1.76-.64,6.93,6.93,0,0,1-1.51-1.74l-2.68-4.21a6.25,6.25,0,0,1-.9-2.08,2.72,2.72,0,0,1,.19-1.81,3.93,3.93,0,0,1,1.52-1.56,3.89,3.89,0,0,1,2.06-.71,2.79,2.79,0,0,1,1.72.6,6.27,6.27,0,0,1,1.49,1.69l2.69,4.23a6.74,6.74,0,0,1,.91,2.08,3,3,0,0,1-.16,1.87A3.77,3.77,0,0,1,148.13,193.55Zm-.77-1.22a1.78,1.78,0,0,0,.77-.85,1.54,1.54,0,0,0,0-1,5.12,5.12,0,0,0-.58-1.14l-3.09-4.88a5.8,5.8,0,0,0-.79-1,1.43,1.43,0,0,0-.86-.42,1.82,1.82,0,0,0-1.09.36,1.92,1.92,0,0,0-.79.83,1.41,1.41,0,0,0,0,1,5.12,5.12,0,0,0,.56,1.13l3.1,4.87a5.16,5.16,0,0,0,.8,1,1.45,1.45,0,0,0,.88.44A1.82,1.82,0,0,0,147.36,192.33Z" style="fill:#fff"></path><path d="M152.61,190.53l-7.07-11.12,2.24-1.43a5.82,5.82,0,0,1,2-.87,2.48,2.48,0,0,1,1.68.26,4.19,4.19,0,0,1,1.43,1.49,5.19,5.19,0,0,1,.61,1.26,2.54,2.54,0,0,1,.13,1.17,2.07,2.07,0,0,1-.46,1l5.12,4.57-1.49.95-4.77-4.29-1.21.76,3.31,5.22Zm-2.47-7.32.59-.37a3.48,3.48,0,0,0,1-.85,1.31,1.31,0,0,0,.24-.94,3.13,3.13,0,0,0-.51-1.24,2.67,2.67,0,0,0-1.25-1.18,2.1,2.1,0,0,0-1.69.47l-.69.43Z" style="fill:#fff"></path><path d="M161,185.22l-6.34-10-1.88,1.2L152,175.3l5.26-3.35.73,1.16-1.83,1.16,6.34,10Z" style="fill:#fff"></path><circle cx="166.88" cy="246.48" r="34.85" transform="translate(-111.06 353.02) rotate(-76.87)" style="fill:none;stroke:#fff;stroke-miterlimit:10"></circle><ellipse cx="166.88" cy="246.48" rx="14.94" ry="34.85" transform="translate(-106.18 128) rotate(-32.44)" style="fill:none;stroke:#fff;stroke-miterlimit:10"></ellipse><line x1="135.72" y1="231.33" x2="166.57" y2="211.72" style="fill:none;stroke:#fff;stroke-miterlimit:10"></line><line x1="132.25" y1="251.21" x2="186.04" y2="217.01" style="fill:none;stroke:#fff;stroke-miterlimit:10"></line><line x1="147.89" y1="275.83" x2="201.69" y2="241.63" style="fill:none;stroke:#fff;stroke-miterlimit:10"></line><line x1="137.4" y1="265.22" x2="196.55" y2="227.63" style="fill:none;stroke:#fff;stroke-miterlimit:10"></line><line x1="167.65" y1="281.56" x2="198.5" y2="261.95" style="fill:none;stroke:#fff;stroke-miterlimit:10"></line></g><g id="freepik--Globe--inject-27"><circle cx="250.32" cy="359.25" r="111.68" transform="translate(-180.71 282.22) rotate(-45)" style="fill:#92E3A9;stroke:#263238;stroke-linecap:round;stroke-linejoin:round"></circle><path d="M227.89,462.57a105,105,0,0,0,18.2,2.32" style="fill:none;stroke:#263238;stroke-linecap:round;stroke-linejoin:round"></path><path d="M214.2,458.6q4.55,1.65,9.24,2.9" style="fill:none;stroke:#263238;stroke-linecap:round;stroke-linejoin:round"></path><path d="M148.63,330.32a105.77,105.77,0,0,0,61.75,126.8" style="fill:none;stroke:#263238;stroke-linecap:round;stroke-linejoin:round"></path><path d="M162.84,299.91a106,106,0,0,0-9.76,17.87" style="fill:none;stroke:#263238;stroke-linecap:round;stroke-linejoin:round"></path><polygon points="235.19 309.64 246.57 312 250.45 316.03 255.51 316.81 257.12 321.61 255.94 324.86 252.49 326.44 244.04 325.06 243.81 324.02 247.81 321.23 245.05 316.14 237.49 315.11 233.46 311.66 235.19 309.64" style="fill:#fff"></polygon><path d="M326.94,414.7l-9-1.52L307,411.8l-8,1.78-7.85.11-7.87,3.65-4.6,1.3-2.85.63-4.74,4.31-4.72,3.22-8-2.85.2-7.65-4.8-.83-5.17,1.15-1.3-2.16-.51-4.77-2.39-2.18-3.51,1.32-.46,2.82-4.34,1.23-4.92-3.79-2.93-5.87,2.28-8.11,7.61-1.15,2.48,1.36,3.1-.69,3.37-3.19,3.59.28,6.44,7,1.75-.66-1.84-5.84-2.24-2.76-.57-5,8.65-6.26-.83-9.86,3.39-4.29,2-6.7,2.48-1.09,5.08-5.2-.2-2.13-4.08,1.18-1.23-1.9-2.85.63-4.17,2,1.32-3.83,8.48-4.6,1.56-2.78,4.88,4.88,2.85,1.82,3.39-1.84-2.3-3-6.29-2.68-7.76-5.6-7.45-3-6.44.35L251,328.13,246.6,328l-.29,1.15,1.15,7.62,1.61,2.35-.49,8.8-6.1-3,0-3.8-6-1.38-3-2.33-.15-6.75,6.3-7.1-.86-6.33-2.79.89-2.33-1.92L232,312.52l-1.87.14L230,317l-2.73,1.15L224,309.41l-2.35-.83-4-.75-3.68,3,6.27,3.77,2,4.17-10.87-4.92-8-5.55-2.07-6.87-7.19-.58-4.42,4.51a43.17,43.17,0,0,1-3.42,2.94,44.89,44.89,0,0,1-6,2.41l-.06,4.63-5.9,1.58,1.15,2.73,9.92-.57,6.12,4.34,2,9.06-1.07,8.65,2.41,8.42-4.43,14.29,2.65,19.23,4.74,10.35,5.2,7.54,4-.35-2.22-3.85-2.75-2.65-2.56-5.4,2.21-1,5.69,8.51,4.43,7.71,1.49,6.73,6.24,4.86L229.82,420l14.26.63,5,3,4,3.45,5.29,1.81,6,.29,5.63-1.53s.32,2.65.6,3.94-2.36,6.5-2.36,6.5l-1.69,5.81,3.33,5.23,6.21,1.06,9.86,6.5,4,.75.86,3.88.85,1.71a111.19,111.19,0,0,0,48.6-37.6l-.28-1.91,4.17-14.23-3.88-1.58Z" style="fill:#fff"></path><path d="M331.15,306.52l-3.94-4.28-4.89-4.89-2.75-7.53,4.83-.26-.32-2.64-3.42.49,2.56-1.93,2.7-2.5-.57-2.59-4-3.45-1.9-5.42a111.73,111.73,0,0,0-134.83-2.59l6.9,2.9-2.58,5.47-4.69,2.12,1,7.1-1.89,1.24-2,3.42,1.29,4.6,4.52-.46-.84,4.8,4.4-1,5.38-11.24-.14-4.32,7.13-2.12,1.12-3.51,7.33-2.44-.2-4.57,5.37-1.47s3.43-2.93,4.2-3.1a31.44,31.44,0,0,1,4.69.31l4.57,2.25,5.43-1.21,4-3.88,6.06-.8a6.55,6.55,0,0,0,3.08.4c1.29-.29,4.77-3,4.77-3l8.54,3,3.62,1.64.86,3.88,4-.35.78-2.61,3.71.8.2,2.13-7.31,3.8,5.67,4.71,10.46,3.11,5,4.31,5.81-.75.72-2.87,1.95-1-7.87-3.68-4.26.4,3.13-1.78-4.08-3.71,4.34-1.23,6.39,1.84,2.67,5.92,3.59,2.73,4,7,6.61,2.87,1.89,8.54,6.82,2.56.37,2.9,0,3.54,2.59,4.31,1,2.22,4.57-.2,1.1-4.86Z" style="fill:#fff"></path><path d="M328.72,279.71l.33,1.49-.37,4.42,1.58,3.45,3.08.41,1.09,4.91-3.39-.6,2.32,14.14-1.84,6.39,3.68,6.78,4.05,2.36,3.11,14,5.77,10.12,5.46,7.48,6.3.23.92-5.64.7-.84A113.46,113.46,0,0,0,359.34,335,111.17,111.17,0,0,0,328.72,279.71Z" style="fill:#fff"></path><polygon points="268.6 291.37 249.85 287.65 242.41 289.58 241.69 294.9 237.83 292.22 232.43 294.78 233.81 303.44 239.21 305.76 241.48 300.1 246.23 303.12 255.8 308.32 259.02 315.48 267.64 322.53 278.11 318.3 276.99 314.48 273.68 310.6 270.86 300.36 272.48 295.39 268.6 291.37" style="fill:#fff"></polygon><polygon points="283.83 293.95 279.72 293.78 276.99 297.38 280.47 304.48 283.83 303.73 283.83 293.95" style="fill:#fff"></polygon><polygon points="308.99 293.53 299.15 290.82 296.65 288.12 294.76 289.36 297.72 294.13 300.76 300.51 304.99 301.2 305.54 300 302.34 296.63 309.65 297.73 308.99 293.53" style="fill:#fff"></polygon><polygon points="254.18 403.71 253.37 404.98 261.65 405.58 265.56 408.51 270.59 407.94 271.77 404.69 265.59 404.98 254.18 403.71" style="fill:#fff"></polygon><polygon points="278.3 403.51 273.21 406.27 274.44 408.17 281.17 406.68 282 404.32 279.73 405.1 278.3 403.51" style="fill:#fff"></polygon><polygon points="235.19 309.64 246.57 312 250.45 316.03 255.51 316.81 257.12 321.61 255.94 324.86 252.49 326.44 244.04 325.06 243.81 324.02 247.81 321.23 245.05 316.14 237.49 315.11 233.46 311.66 235.19 309.64" style="fill:none;stroke:#263238;stroke-linecap:round;stroke-linejoin:round"></polygon><path d="M326.94,414.7l-9-1.52L307,411.8l-8,1.78-7.85.11-7.87,3.65-4.6,1.3-2.85.63-4.74,4.31-4.72,3.22-8-2.85.2-7.65-4.8-.83-5.17,1.15-1.3-2.16-.51-4.77-2.39-2.18-3.51,1.32-.46,2.82-4.34,1.23-4.92-3.79-2.93-5.87,2.28-8.11,7.61-1.15,2.48,1.36,3.1-.69,3.37-3.19,3.59.28,6.44,7,1.75-.66-1.84-5.84-2.24-2.76-.57-5,8.65-6.26-.83-9.86,3.39-4.29,2-6.7,2.48-1.09,5.08-5.2-.2-2.13-4.08,1.18-1.23-1.9-2.85.63-4.17,2,1.32-3.83,8.48-4.6,1.56-2.78,4.88,4.88,2.85,1.82,3.39-1.84-2.3-3-6.29-2.68-7.76-5.6-7.45-3-6.44.35L251,328.13,246.6,328l-.29,1.15,1.15,7.62,1.61,2.35-.49,8.8-6.1-3,0-3.8-6-1.38-3-2.33-.15-6.75,6.3-7.1-.86-6.33-2.79.89-2.33-1.92L232,312.52l-1.87.14L230,317l-2.73,1.15L224,309.41l-2.35-.83-4-.75-3.68,3,6.27,3.77,2,4.17-10.87-4.92-8-5.55-2.07-6.87-7.19-.58-4.42,4.51a43.17,43.17,0,0,1-3.42,2.94,44.89,44.89,0,0,1-6,2.41l-.06,4.63-5.9,1.58,1.15,2.73,9.92-.57,6.12,4.34,2,9.06-1.07,8.65,2.41,8.42-4.43,14.29,2.65,19.23,4.74,10.35,5.2,7.54,4-.35-2.22-3.85-2.75-2.65-2.56-5.4,2.21-1,5.69,8.51,4.43,7.71,1.49,6.73,6.24,4.86L229.82,420l14.26.63,5,3,4,3.45,5.29,1.81,6,.29,5.63-1.53s.32,2.65.6,3.94-2.36,6.5-2.36,6.5l-1.69,5.81,3.33,5.23,6.21,1.06,9.86,6.5,4,.75.86,3.88.85,1.71a111.19,111.19,0,0,0,48.6-37.6l-.28-1.91,4.17-14.23-3.88-1.58Z" style="fill:none;stroke:#263238;stroke-linecap:round;stroke-linejoin:round"></path><path d="M331.15,306.52l-3.94-4.28-4.89-4.89-2.75-7.53,4.83-.26-.32-2.64-3.42.49,2.56-1.93,2.7-2.5-.57-2.59-4-3.45-1.9-5.42a111.73,111.73,0,0,0-134.83-2.59l6.9,2.9-2.58,5.47-4.69,2.12,1,7.1-1.89,1.24-2,3.42,1.29,4.6,4.52-.46-.84,4.8,4.4-1,5.38-11.24-.14-4.32,7.13-2.12,1.12-3.51,7.33-2.44-.2-4.57,5.37-1.47s3.43-2.93,4.2-3.1a31.44,31.44,0,0,1,4.69.31l4.57,2.25,5.43-1.21,4-3.88,6.06-.8a6.55,6.55,0,0,0,3.08.4c1.29-.29,4.77-3,4.77-3l8.54,3,3.62,1.64.86,3.88,4-.35.78-2.61,3.71.8.2,2.13-7.31,3.8,5.67,4.71,10.46,3.11,5,4.31,5.81-.75.72-2.87,1.95-1-7.87-3.68-4.26.4,3.13-1.78-4.08-3.71,4.34-1.23,6.39,1.84,2.67,5.92,3.59,2.73,4,7,6.61,2.87,1.89,8.54,6.82,2.56.37,2.9,0,3.54,2.59,4.31,1,2.22,4.57-.2,1.1-4.86Z" style="fill:none;stroke:#263238;stroke-linecap:round;stroke-linejoin:round"></path><path d="M328.72,279.71l.33,1.49-.37,4.42,1.58,3.45,3.08.41,1.09,4.91-3.39-.6,2.32,14.14-1.84,6.39,3.68,6.78,4.05,2.36,3.11,14,5.77,10.12,5.46,7.48,6.3.23.92-5.64.7-.84A113.46,113.46,0,0,0,359.34,335,111.17,111.17,0,0,0,328.72,279.71Z" style="fill:none;stroke:#263238;stroke-linecap:round;stroke-linejoin:round"></path><polygon points="268.6 291.37 249.85 287.65 242.41 289.58 241.69 294.9 237.83 292.22 232.43 294.78 233.81 303.44 239.21 305.76 241.48 300.1 246.23 303.12 255.8 308.32 259.02 315.48 267.64 322.53 278.11 318.3 276.99 314.48 273.68 310.6 270.86 300.36 272.48 295.39 268.6 291.37" style="fill:none;stroke:#263238;stroke-linecap:round;stroke-linejoin:round"></polygon><polygon points="283.83 293.95 279.72 293.78 276.99 297.38 280.47 304.48 283.83 303.73 283.83 293.95" style="fill:none;stroke:#263238;stroke-linecap:round;stroke-linejoin:round"></polygon><polygon points="308.99 293.53 299.15 290.82 296.65 288.12 294.76 289.36 297.72 294.13 300.76 300.51 304.99 301.2 305.54 300 302.34 296.63 309.65 297.73 308.99 293.53" style="fill:none;stroke:#263238;stroke-linecap:round;stroke-linejoin:round"></polygon><polygon points="254.18 403.71 253.37 404.98 261.65 405.58 265.56 408.51 270.59 407.94 271.77 404.69 265.59 404.98 254.18 403.71" style="fill:none;stroke:#263238;stroke-linecap:round;stroke-linejoin:round"></polygon><polygon points="278.3 403.51 273.21 406.27 274.44 408.17 281.17 406.68 282 404.32 279.73 405.1 278.3 403.51" style="fill:none;stroke:#263238;stroke-linecap:round;stroke-linejoin:round"></polygon></g><g id="freepik--Locators--inject-27"><path d="M354.22,283.51A15.46,15.46,0,0,0,338.76,299c0,8.54,15.46,25.77,15.46,25.77s15.47-17.23,15.47-25.77A15.47,15.47,0,0,0,354.22,283.51Zm0,22.27A6.81,6.81,0,1,1,361,299,6.8,6.8,0,0,1,354.22,305.78Z" style="fill:#263238;stroke:#263238;stroke-miterlimit:10"></path><path d="M234.25,323.2a13.49,13.49,0,0,0-13.49,13.49c0,7.45,13.49,22.48,13.49,22.48s13.49-15,13.49-22.48A13.49,13.49,0,0,0,234.25,323.2Zm0,19.43a5.94,5.94,0,1,1,5.94-5.94A5.94,5.94,0,0,1,234.25,342.63Z" style="fill:#263238;stroke:#263238;stroke-miterlimit:10"></path><path d="M285.26,428.4a6.79,6.79,0,0,0-6.79,6.78c0,3.75,6.79,11.31,6.79,11.31s6.78-7.56,6.78-11.31A6.79,6.79,0,0,0,285.26,428.4Zm0,9.77a3,3,0,1,1,3-3A3,3,0,0,1,285.26,438.17Z" style="fill:#263238;stroke:#263238;stroke-miterlimit:10"></path><path d="M200.88,365.75a6.79,6.79,0,0,0-6.78,6.79c0,3.75,6.78,11.31,6.78,11.31s6.79-7.56,6.79-11.31A6.79,6.79,0,0,0,200.88,365.75Zm0,9.78a3,3,0,1,1,3-3A3,3,0,0,1,200.88,375.53Z" style="fill:#263238;stroke:#263238;stroke-miterlimit:10"></path><path d="M224.88,394.31a6.78,6.78,0,0,0-6.78,6.79c0,3.75,6.78,11.31,6.78,11.31s6.79-7.56,6.79-11.31A6.79,6.79,0,0,0,224.88,394.31Zm0,9.78a3,3,0,1,1,3-3A3,3,0,0,1,224.88,404.09Z" style="fill:#263238;stroke:#263238;stroke-miterlimit:10"></path><path d="M309.17,407.13a8.05,8.05,0,0,0-8.05,8.05c0,4.44,8.05,13.4,8.05,13.4s8-9,8-13.4A8,8,0,0,0,309.17,407.13Zm0,11.59a3.55,3.55,0,1,1,3.54-3.54A3.54,3.54,0,0,1,309.17,418.72Z" style="fill:#263238;stroke:#263238;stroke-miterlimit:10"></path><path d="M308.58,253.32a7.14,7.14,0,0,0-7.14,7.14c0,4,7.14,11.91,7.14,11.91s7.15-8,7.15-11.91A7.15,7.15,0,0,0,308.58,253.32Zm0,10.29a3.15,3.15,0,1,1,3.15-3.15A3.15,3.15,0,0,1,308.58,263.61Z" style="fill:#263238;stroke:#263238;stroke-miterlimit:10"></path><path d="M186.29,298a7.14,7.14,0,0,0-7.15,7.14c0,3.95,7.15,11.91,7.15,11.91s7.14-8,7.14-11.91A7.14,7.14,0,0,0,186.29,298Zm0,10.29a3.15,3.15,0,1,1,3.14-3.15A3.15,3.15,0,0,1,186.29,308.29Z" style="fill:#263238;stroke:#263238;stroke-miterlimit:10"></path></g><g id="freepik--Character--inject-27"><path d="M271.06,144.13s-.62,56.3-.62,65.6-.77,18.3-.77,18.3,2.79,2,2.32,4.34a29.36,29.36,0,0,1-2.17,5.74,9.3,9.3,0,0,0-3.25-.15c-1.09.31-7.6,3.25-8.69,3.25s-1.55.93-1.86-2a44.6,44.6,0,0,1-.31-7.91,49,49,0,0,1,1.09-7l-6.52-71.18-1.55,69.32s.31,4.19.78,5a11,11,0,0,1,1.24,3.57c0,.77-1.4,8.06-2,8.37s-2.48,1.4-2.48,1.4-1.24-.31-2.95-2.48-5.73-2-6.51-1.71l-.78.31s-2.32-2.79-2.79-4.81,2.64-2.17,2.48-7.6S230.9,173,230.9,173l-1.09-31,41.56-1.24Z" style="fill:#263238;stroke:#263238;stroke-miterlimit:10"></path><path d="M254.78,72.17l-16.59,1.09-.62,70.87s1.24,1.09,11.47,1.24,12.41-1.08,12.41-1.08Z" style="fill:#fff;stroke:#263238;stroke-miterlimit:10"></path><path d="M253.76,37.27s4.06,5.73,4,6.6a21.09,21.09,0,0,1-.5,2.54s4.42,4.56,4,4.93l-2.46,2.1s.07,4.27.07,4.93.94,2.32.65,3a6.91,6.91,0,0,1-1.37,2c-.51.43-4.21.36-4.21.36l-.07,5.87s.65,3.7.07,5-2.25,2.32-6.45,2.54-6.25-1.21-7.48-2.23-1.07-10.38-1.15-11.83-.14-4.21-.94-5.44-6-10-6.88-12.18-.95-4.42.72-6.37,3.77-2.83,4-3.92,0-2.17,1.59-2.68a9.17,9.17,0,0,1,3.55-.22s3.05-3.69,4.64-3.26l1.6.43s4.42-1.23,6.74.73S256.66,35.24,253.76,37.27Z" style="fill:#fff;stroke:#263238;stroke-miterlimit:10"></path><path d="M254.59,47.52c0,.92.28,1.67.64,1.67s.64-.75.64-1.67-.29-1.68-.64-1.68S254.59,46.59,254.59,47.52Z" style="fill:#263238;stroke:#263238;stroke-miterlimit:10"></path><path d="M235.71,35.17c.21-1.09,0-2.17,1.59-2.68a9.17,9.17,0,0,1,3.55-.22s3.05-3.69,4.64-3.26l1.6.43s4.42-1.23,6.74.73,2.83,5.07-.07,7.1c0,0-8,.87-7,2.32s1.45,2.61.66,3-4.42,2.24-4.06,3.11.72,3.19.22,3.34-.44-.15-2-1.31-3.34-.29-3.55,2a3.79,3.79,0,0,0,2.46,3.92c.8.14.36,3-1.16,4.06a5.08,5.08,0,0,1-1.12.56,3.9,3.9,0,0,0-.33-.71c-.8-1.23-6-10-6.88-12.18s-.95-4.42.72-6.37S235.49,36.26,235.71,35.17Z" style="fill:#263238;stroke:#263238;stroke-miterlimit:10"></path><path d="M258,55.68s-3.26.58-5.14-1.73" style="fill:none;stroke:#263238;stroke-miterlimit:10"></path><polygon points="253.9 63.73 247.23 61.63 253.76 68.22 253.9 63.73" style="fill:#263238;stroke:#263238;stroke-miterlimit:10"></polygon><path d="M256.15,43.83s-2.36-1.29-3.73.65" style="fill:none;stroke:#263238;stroke-miterlimit:10"></path><path d="M271.61,99.17s9.05,15.16,9.3,18.09-4.77,13-6.24,13.33-5.63-4.4-6.11-6.36-1.23-24.08-.37-26S271.61,99.17,271.61,99.17Z" style="fill:#263238;stroke:#263238;stroke-miterlimit:10"></path><path d="M256.6,72l8.68.66s4.78-1.11,6.22-.66,21.91,8.34,24.14,9.9,1.89,7.22,1.33,9.56a3.9,3.9,0,0,1-3.56,3c-1,.11-21.68-1.22-21.68-1.22l5.33,54.16L265.94,151l-7.89,1-3.9-67.51Z" style="fill:#92E3A9;stroke:#263238;stroke-miterlimit:10"></path><path d="M253.76,68.23,256.6,72s.33,5.67-.44,8a31.12,31.12,0,0,1-2,4.56l-3.56-8.23A24.54,24.54,0,0,0,253.76,68.23Z" style="fill:#92E3A9;stroke:#263238;stroke-miterlimit:10"></path><path d="M240,86.65l1,65.59s-9.78-1.1-13-2.45a59.59,59.59,0,0,1-5.38-2.57s3.18-24,3.3-25.92.12-3.55.12-3.55-7.21,2.57-9.9,1.72-3.06-3.67-2.81-7.22a47.56,47.56,0,0,0,.06-5.9c0-.61.73-10.74,3.67-18.32s1.16-7.82,3.24-9.16,17.24-6.73,17.24-6.73l1.71,3.55Z" style="fill:#92E3A9;stroke:#263238;stroke-miterlimit:10"></path><path d="M228.45,75.81s2.2,25.92-.37,34.48l-4,.13c.25,3,2.07-2.33,2.56-18.59.21-7-2.93-14.43-2.93-14.43A33.74,33.74,0,0,1,228.45,75.81Z" style="fill:#263238;stroke:#263238;stroke-miterlimit:10"></path><path d="M239.14,68.63s1.45,3.67,2.33,5.56S243,77.31,243,77.31l-3,9.34A58.42,58.42,0,0,1,237.25,76c-.45-4.23-.85-3.58-.85-3.58S238.36,67.85,239.14,68.63Z" style="fill:#92E3A9;stroke:#263238;stroke-miterlimit:10"></path><path d="M269.28,56.4a12,12,0,0,1-2.56-1.23c-.67-.55-2-2.67-2.45-3.11s-2.65.33-3-.72-.6-2.13.72-1.82a27.71,27.71,0,0,0,3.95.42l-2.09-6.83,9.59,0s2.78,9.46,2.78,10.23a16.21,16.21,0,0,1-.44,2.56s13.12,14.68,15.9,18.35,6.23,8.68,6.57,10.57-.67,7.89-3,8.67-4.45-.11-6.89-2.44-9.79-17.35-10.12-17.91-6-14.57-6.34-15A18.21,18.21,0,0,0,269.28,56.4Z" style="fill:#fff;stroke:#263238;stroke-miterlimit:10"></path><path d="M264.4,72.75s2.81,18.35,5.87,27.4,5.62,14.79,5.62,14.79l-1.34,8a135.23,135.23,0,0,1-9.17-20.42c-4.16-11.74-6.48-30.08-6.48-30.08Z" style="fill:#263238;stroke:#263238;stroke-miterlimit:10"></path><polygon points="239.92 90.33 243.22 119.62 224.4 117.39 219.49 88.2 239.92 90.33" style="fill:#fff;stroke:#263238;stroke-miterlimit:10"></polygon><polygon points="237.5 90.48 243.49 119.34 224.53 118.85 216.95 90.24 237.5 90.48" style="fill:#fff;stroke:#263238;stroke-miterlimit:10"></polygon><path d="M219.15,107.12a65.31,65.31,0,0,0,6.36,3,7.54,7.54,0,0,0,6.12-.24,8.5,8.5,0,0,0,2.81-2.08s.61-3.3,1.34-3.79,2.45-.86,3.18-2,1.1-1,1.35.12.49,2.33-.25,2.82a2,2,0,0,0-.85,1.22s.12.86,1.1.49,1.59-1.59,2.57-1.22a1.38,1.38,0,0,1,1,2,10.65,10.65,0,0,1-1,1.71s1.22,2.82.61,4.65-3.67,2.94-5.14,3.06-5.62.24-5.62.24-6,2-9.66,3.06-4.77.86-6.85-.73a6.52,6.52,0,0,1-2.2-7.22C214.87,109.32,215.85,107.73,219.15,107.12Z" style="fill:#fff;stroke:#263238;stroke-miterlimit:10"></path><path d="M268.89,235.79s2,4.8,2.48,5.73a11.5,11.5,0,0,0,4.19,4c2.33,1.39,5.12,2.32,4.5,3.56s-3.41,1.55-5.74,1.86-7.75-.62-9.93-.62-7-.77-7.44-1.86.16-8.84.16-8.84S260.67,235.63,268.89,235.79Z" style="fill:#fff;stroke:#263238;stroke-miterlimit:10"></path><path d="M257,248.5a9.33,9.33,0,0,1-.17-2.54l5.59,1.66a63.09,63.09,0,0,0,10.42,1.7,17.7,17.7,0,0,0,7.13-1.11.8.8,0,0,1,.14.91c-.62,1.24-3.41,1.55-5.74,1.86s-7.75-.62-9.93-.62S257.42,249.59,257,248.5Z" style="fill:#fff;stroke:#263238;stroke-miterlimit:10"></path><path d="M246.73,240s-.46,8-.57,8.58-.68,1-2.26,1.19-2.27.11-3.17.55-2.83,1.41-8.26,1.41-7.13-1-6.45-2.93,5.88-5.76,7.13-7.28a26.16,26.16,0,0,0,2.63-4.78s1.55-1.3,4.61-.65,3.85,1.85,4.19,2.39A8.93,8.93,0,0,0,246.73,240Z" style="fill:#fff;stroke:#263238;stroke-miterlimit:10"></path><path d="M226,248.84a2.39,2.39,0,0,1,.17-.37,6,6,0,0,0,1.86,1.34c2,1,10.08.44,11.89-.54A46.38,46.38,0,0,1,246.3,247c-.06.86-.11,1.5-.14,1.64-.11.54-.68,1-2.26,1.19s-2.27.11-3.17.55-2.83,1.41-8.26,1.41S225.34,250.79,226,248.84Z" style="fill:#fff;stroke:#263238;stroke-miterlimit:10"></path><path d="M261.3,44.64l7.4-.49v5.79l-7.4-.49c-.35,0-.64-1.07-.64-2.4S261,44.64,261.3,44.64Z" style="fill:#fff;stroke:#263238;stroke-miterlimit:10"></path><path d="M259.27,44.06h2.33a.37.37,0,0,1,.34.51,7.48,7.48,0,0,0-.35,2.48,7.37,7.37,0,0,0,.35,2.47.37.37,0,0,1-.34.51h-2.33c-.44,0-.8-1.34-.8-3S258.83,44.06,259.27,44.06Z" style="fill:#fff;stroke:#263238;stroke-miterlimit:10"></path><path d="M266.61,43.11l16.07-.8v9.48L266.61,51c-.58,0-1-1.77-1-3.94S266,43.11,266.61,43.11Z" style="fill:#fff;stroke:#263238;stroke-miterlimit:10"></path><path d="M281.42,47.05c0,2.61.57,4.74,1.26,4.74s1.26-2.13,1.26-4.74-.56-4.74-1.26-4.74S281.42,44.43,281.42,47.05Z" style="fill:#fff;stroke:#263238;stroke-miterlimit:10"></path><path d="M258.49,44.64l7.4-.49v5.79l-7.4-.49c-.35,0-.64-1.07-.64-2.4S258.14,44.64,258.49,44.64Z" style="fill:#263238;stroke:#263238;stroke-miterlimit:10"></path><path d="M256.46,44.06h2.33a.37.37,0,0,1,.34.51,7.52,7.52,0,0,0-.34,2.48,7.41,7.41,0,0,0,.34,2.47.37.37,0,0,1-.34.51h-2.33c-.44,0-.8-1.34-.8-3S256,44.06,256.46,44.06Z" style="fill:#fff;stroke:#263238;stroke-miterlimit:10"></path><path d="M263.8,43.11l16.07-.8v9.48L263.8,51c-.57,0-1-1.77-1-3.94S263.23,43.11,263.8,43.11Z" style="fill:#263238;stroke:#263238;stroke-miterlimit:10"></path><path d="M278.61,47.05c0,2.61.57,4.74,1.26,4.74s1.26-2.13,1.26-4.74-.56-4.74-1.26-4.74S278.61,44.43,278.61,47.05Z" style="fill:#fff;stroke:#263238;stroke-miterlimit:10"></path><path d="M273.12,42.54s-2.07-2.23-2.84-2.23-2,2-2.22,2.23-.08.61.76.69a3.13,3.13,0,0,0,1.77-.62Z" style="fill:#fff;stroke:#263238;stroke-miterlimit:10"></path><path d="M270.28,40.31a14.8,14.8,0,0,0-3.22-.46c-.62.15-1.77,2.76-1.54,3.15s2.54-.46,2.54-.46S269.59,40.23,270.28,40.31Z" style="fill:#fff;stroke:#263238;stroke-miterlimit:10"></path><path d="M266.52,40.08s-1.23-.77-1.84-.23-1.92,2.38-1.61,3.07,2.45.08,2.45.08S266,40.31,266.52,40.08Z" style="fill:#fff;stroke:#263238;stroke-miterlimit:10"></path><path d="M264.07,40.31s-1.54-.61-2.08,0-1.91,2.53-1,3,1.84-.92,1.84-.92Z" style="fill:#fff;stroke:#263238;stroke-miterlimit:10"></path></g></svg>
